<?xml version="1.0" encoding="UTF-8"?>
<svg width="810px" height="1288px" viewBox="0 0 810 1288" version="1.1" xmlns="http://www.w3.org/2000/svg" xmlns:xlink="http://www.w3.org/1999/xlink">
    <!-- Generator: Sketch 46.2 (44496) - http://www.bohemiancoding.com/sketch -->
    <title>Avatar</title>
    <desc>Created with Sketch.</desc>
    <defs>
        <rect id="path-1" x="0" y="0" width="811" height="1291"></rect>
        <filter x="-5.0%" y="-1.5%" width="107.6%" height="106.2%" filterUnits="objectBoundingBox" id="filter-3">
            <feOffset dx="-20" dy="41" in="SourceAlpha" result="shadowOffsetOuter1"></feOffset>
            <feColorMatrix values="0 0 0 0 0   0 0 0 0 0   0 0 0 0 0  0 0 0 0.02 0" type="matrix" in="shadowOffsetOuter1" result="shadowMatrixOuter1"></feColorMatrix>
            <feMerge>
                <feMergeNode in="shadowMatrixOuter1"></feMergeNode>
                <feMergeNode in="SourceGraphic"></feMergeNode>
            </feMerge>
        </filter>
        <path d="M237.930103,168.878939 C343.120706,168.878939 430.240957,137.403855 430.240957,112.71664 C430.240957,88.0294255 346.298428,74.593662 241.107825,74.593662 C135.917222,74.593662 49.3120862,88.0294255 49.3120862,112.71664 C49.3120862,137.403855 132.7395,168.878939 237.930103,168.878939 Z" id="path-4"></path>
        <path d="M134.242331,0.00547817641 L137.593817,113.766493 C122.166413,116.43297 95.9055804,122.150202 58.8113199,130.918189 C21.7170594,139.686177 2.37963396,202.243275 0.799043684,318.589483 L487.525929,313.358083 C482.12086,193.302734 466.256156,130.230777 439.931818,124.14221 C413.607479,118.053644 382.000117,111.326191 345.109731,103.959852 L346.451154,0.00547817641 L134.242331,0.00547817641 Z" id="path-5"></path>
        <path d="M0.362723397,482.562161 C7.77186878,255.843743 14.6364932,131.289063 20.9565965,108.898121 C30.4367516,75.311707 57.7690192,55.380372 83.1677925,46.9103984 C108.566566,38.4404249 141.496309,25.8785956 234.228908,12.795183 C244.514039,11.3440794 247.590253,9.68753221 256.056511,23.2394898 C259.097435,28.107104 342.752123,166.372612 371.596495,166.067962 C390.826076,165.864862 429.329049,115.432047 487.105413,14.7695163 C491.765921,3.04059196 499.625872,-1.36423541 510.685264,1.5550342 C518.254342,3.55299015 618.199645,22.5139958 664.335487,43.387175 C678.770037,50.2974843 707.302819,70.4752844 719.373736,108.228416 C727.421013,133.39717 734.816279,258.178701 741.559533,482.573007 C651.632088,534.387913 528.055634,561.171037 370.830173,562.92238 C213.604712,564.673724 90.1155617,537.886984 0.362723397,482.562161 Z" id="path-7"></path>
        <path d="M0.362723397,566.809351 C15.5210636,280.03917 26.2602854,125.458608 32.5803888,103.067666 C42.0605439,69.4812518 69.3928115,55.380372 94.7915847,46.9103984 C111.7241,41.2637494 160.598345,29.2544653 241.414318,10.8825461 C261.939373,7.6660219 275.023987,10.575079 280.668159,19.6097174 C283.128387,23.5478107 310.178373,123.986204 323.28693,285.603762 C327.244494,334.397225 322.061788,420.374796 307.738812,543.536477 C353.333647,552.155631 386.496476,556.465208 407.227299,556.465208 C427.958121,556.465208 460.226952,552.155631 504.033792,543.536477 C485.3842,419.562682 478.26918,326.194419 482.688731,263.431689 C489.318059,169.287593 527.405044,24.4215695 531.276598,9.81637458 C533.883064,-0.0163571593 559.249704,-1.86119035 584.009168,3.49851929 C665.563773,21.1527383 675.994291,27.6833991 719.813264,41.8516136 C735.83383,47.0316259 767.801506,65.314534 779.872422,103.067666 C787.919699,128.23642 798.111052,282.816982 810.446481,566.809351 C698.859154,565.058007 564.45276,565.058007 407.227299,566.809351 C250.001837,568.560694 114.380312,568.560694 0.362723397,566.809351 Z" id="path-9"></path>
        <filter x="-84.4%" y="-2.3%" width="225.0%" height="105.1%" filterUnits="objectBoundingBox" id="filter-11">
            <feOffset dx="-7" dy="2" in="SourceAlpha" result="shadowOffsetOuter1"></feOffset>
            <feColorMatrix values="0 0 0 0 0   0 0 0 0 0   0 0 0 0 0  0 0 0 0.03 0" type="matrix" in="shadowOffsetOuter1" result="shadowMatrixOuter1"></feColorMatrix>
            <feMerge>
                <feMergeNode in="shadowMatrixOuter1"></feMergeNode>
                <feMergeNode in="SourceGraphic"></feMergeNode>
            </feMerge>
        </filter>
        <filter x="-71.1%" y="-2.3%" width="200.0%" height="105.1%" filterUnits="objectBoundingBox" id="filter-12">
            <feOffset dx="-7" dy="2" in="SourceAlpha" result="shadowOffsetOuter1"></feOffset>
            <feColorMatrix values="0 0 0 0 0   0 0 0 0 0   0 0 0 0 0  0 0 0 0.03 0" type="matrix" in="shadowOffsetOuter1" result="shadowMatrixOuter1"></feColorMatrix>
            <feMerge>
                <feMergeNode in="shadowMatrixOuter1"></feMergeNode>
                <feMergeNode in="SourceGraphic"></feMergeNode>
            </feMerge>
        </filter>
        <path d="M309.484952,806.623069 C349.720843,806.056939 381.571508,761.95827 429.462893,704.835918 C467.181392,659.847254 526.321742,557.289385 529.433254,512.843406 C559.840718,10.0311181 528.047041,66.7637282 309.484952,66.7637282 C90.9228636,66.7637282 54.8443883,1.87891841 88.810409,528.23235 C93.9962618,575.530947 149.489086,667.591566 180.305285,708.721169 C231.159604,776.595147 268.304342,804.454927 309.484952,806.623069 Z" id="path-13"></path>
        <path d="M6.44971829,6.85534199 C25.9785956,-3.7573426 38.9697871,-1.43030464 45.4232929,13.8364559 C50.3572662,25.5085286 45.2643311,61.7726422 26.9165308,102.473589 C22.8175826,111.566291 23.7425555,121.953534 14.7470828,126.997839 C9.21550646,130.099728 4.37087555,130.099728 0.213190085,126.997839 L6.44971829,6.85534199 Z" id="path-14"></path>
        <path d="M356.973246,159.36735 C308.173687,213.87125 268.595507,251.196482 238.238705,271.343047 C129.061011,343.799805 100.221888,333.990522 78.3405782,329.22771 C-24.6488565,306.810437 -75.0415533,38.4448953 249.387347,2.3210418 C411.357894,-12.9992365 543.553774,73.6671806 535.41967,137.653746 C533.519265,152.603196 525.652414,182.749079 500.708124,190.997189 C483.861676,196.567657 466.495956,166.92387 425.51985,156.97333 C412.024615,153.696179 389.175747,154.494186 356.973246,159.36735 Z" id="path-16"></path>
        <path d="M44.9939828,7.36433056 C24.012545,-3.81899412 10.0550669,-1.3668322 3.12154856,14.7208163 C-2.17941431,27.0204921 4.89073649,58.9201475 24.6032486,101.809569 C29.007077,111.391182 26.414902,128.65131 36.0794592,133.966845 C42.0224749,137.235522 47.2274501,137.235522 51.6943848,133.966845 L44.9939828,7.36433056 Z" id="path-18"></path>
        <path d="M0.445420024,7.6777324 C0.36798328,9.84594296 32.5361411,38.0312263 37.9615396,41.6381238 C43.3869382,45.2450212 48.9092412,47.980912 53.6949579,50.1738297 C54.8052756,50.682601 57.0569396,50.1903995 60.4499501,48.6972251 C62.4201528,51.7905042 64.860433,53.3907635 67.7707908,53.4980031 C70.6222875,53.6030738 73.9438618,52.2151247 77.7355136,49.3341558 C79.9411972,52.0198414 82.2681712,53.4077905 84.7164356,53.4980031 C86.9347707,53.5797433 89.2743961,52.363747 91.7353118,49.8500141 C96.6126282,50.5485088 100.14288,50.5485088 102.326067,49.8500141 C107.50351,48.1935294 111.333888,45.8385499 113.817202,42.7850758 C113.911312,45.480569 115.089186,46.3379287 117.350821,45.3571549 C117.350821,45.3571549 156.911536,2.14184818 155.876576,0.279594022 C155.582621,-0.249334288 146.337714,2.69195971 138.941431,7.30243006 C135.838446,9.23667404 130.905403,14.3256376 127.509776,15.0538419 C123.983418,15.8100822 120.307031,13.2646878 116.168421,11.4912402 C112.029812,9.71779254 98.9020286,19.4288956 96.8655876,18.6755913 C95.6749952,18.2351767 94.6014479,17.422197 93.6449456,16.2366521 C91.383064,9.6810986 87.3145871,14.4174057 83.3567107,14.5553775 C77.6470726,14.7544158 71.1980515,11.749475 69.7507329,15.0305721 C67.3931008,20.3753661 63.5185911,21.1566586 61.4926471,19.9111331 C58.6345343,18.1540004 57.8935477,17.7429553 51.0666933,15.6831203 C49.0247656,15.067019 46.7524494,13.9159303 42.7656131,13.3196586 C40.1077221,12.9221442 40.0277015,15.3400716 42.525551,20.5734407 C39.1821189,17.4598275 35.5767971,15.4157363 31.7095857,14.4411671 C30.2422112,14.0713766 28.5129471,14.7711081 26.5217934,16.5403616 C9.37543884,8.50804183 0.683314381,5.5538321 0.445420024,7.6777324 Z" id="path-20"></path>
        <path d="M3.96382021,26.9371917 C4.30704831,27.9878354 5.99462828,28.0502562 9.02656013,27.1244538 C10.7350423,29.5236852 12.6150464,30.7612421 14.6665725,30.8371246 C17.054008,30.9254318 19.6129654,29.8520645 22.3434449,27.6170227 C24.0898976,29.6957369 25.88261,30.7691042 27.7215822,30.8371246 C29.4777816,30.9020834 31.2802408,29.9616954 33.1289597,28.0159606 C38.0097653,29.6388285 40.729489,29.6388285 41.2881307,28.0159606 C43.9259648,20.3529874 44.4027169,11.0671462 42.7183871,0.158437093 C40.0062852,3.04605062 38.1272728,4.29566866 37.0813499,3.90729123 C35.7054923,3.3964008 29.9024622,5.76760724 26.8532944,5.87430742 C22.4545606,6.02823325 18.5825223,2.92439545 15.418848,4.10519507 C13.7583071,4.72497004 11.3455183,5.19658787 10.2614516,4.28600741 C8.55960266,2.85651011 5.95790748,3.22457554 0.698464643,1.63160679 C-0.874646681,1.15514621 0.314614619,15.7667338 3.96382021,26.9371917 Z" id="path-22"></path>
        <path d="M0.361248115,15.1205167 C49.2586375,15.6838481 83.50398,15.4579272 103.097276,14.4427539 C172.446409,10.8496174 210.986127,4.90836299 214.129363,0.216875038 C215.949028,-2.49909513 200.570444,21.4709559 180.203379,43.4858826 C164.775637,60.1618558 152.27205,75.7725181 109.04527,77.4891075 C70.830812,79.0066514 48.6617243,67.640757 28.9024273,47.8337338 C22.7199306,41.636304 13.2062042,30.7318983 0.361248115,15.1205167 Z" id="path-24"></path>
        <rect id="path-26" x="75.1648631" y="14.7163391" width="5.11082925" height="4.62529615" rx="1.11392136"></rect>
        <rect id="path-27" x="113.983504" y="13.6010701" width="5.11082925" height="4.62529615" rx="1.11392136"></rect>
        <rect id="path-28" x="154.702538" y="9.06530023" width="5.11082925" height="4.62529615" rx="1.11392136"></rect>
        <rect id="path-29" x="195.261044" y="0.747502419" width="5.11082925" height="4.62529615" rx="1.11392136"></rect>
        <rect id="path-30" x="37.2436623" y="12.9730185" width="5.11082925" height="4.62529615" rx="1.11392136"></rect>
        <rect id="path-31" x="0.76408872" y="8.85987376" width="5.11082925" height="4.62529615" rx="1.11392136"></rect>
        <rect id="path-32" x="78.9851151" y="44.478964" width="5.11082925" height="4.62529615" rx="1.11392136"></rect>
        <rect id="path-33" x="114.739126" y="43.4517426" width="5.11082925" height="4.62529615" rx="1.11392136"></rect>
        <rect id="path-34" x="150.350445" y="39.0627186" width="5.11082925" height="4.62529615" rx="1.11392136"></rect>
        <rect id="path-35" x="42.049032" y="41.7535067" width="5.11082925" height="4.62529615" rx="1.11392136"></rect>
        <path d="M102.445995,2.61419083 C102.565634,5.35653081 102.625453,7.61023334 102.625453,9.37529844 C102.625453,11.1403635 102.565634,14.0229155 102.445995,18.0229545 C91.2171887,18.1005434 82.8480168,18.4850495 77.3384791,19.1764727 C71.8289413,19.8678959 46.4617887,23.7171528 1.23702116,30.7242436 C0.482083682,29.201182 0.332436604,27.5856234 0.788079926,25.8775676 C1.24372325,24.1695119 2.19671457,22.7735993 3.6470539,21.6898298 C35.1258315,14.6830436 58.7718469,9.78378239 74.5851,6.99204626 C90.3983531,4.20031014 99.685318,2.74102499 102.445995,2.61419083 Z M108.112024,1.73093104 C122.156854,0.848366914 132.698597,0.364046081 139.737254,0.277968536 C146.77591,0.191890991 173.029068,0.492413121 218.496725,1.17953493 C220.244626,1.85725277 221.551749,3.10090957 222.418094,4.91050534 C223.284439,6.72010111 223.364544,8.37404256 222.658407,9.87232967 L166.105228,13.7478961 C148.737558,14.3487296 135.690666,14.9481448 126.964553,15.5461418 C118.23844,16.1441388 112.434272,16.836579 109.552049,17.6234626 C108.886574,13.7594052 108.47189,10.9229925 108.307997,9.11422452 C108.144104,7.3054565 108.07878,4.84435867 108.112024,1.73093104 Z" id="path-36"></path>
    </defs>
    <g id="Page-1" stroke="none" stroke-width="1" fill="none" fill-rule="evenodd">
        <g id="Artboard" transform="translate(-131.000000, -91.000000)">
            <g id="Avatar" transform="translate(131.000000, 88.000000)">
                <mask id="mask-2" fill="white">
                    <use xlink:href="#path-1"></use>
                </mask>
                <g id="Rectangle-5" opacity="0.340000004"></g>
                <g id="Nelo" filter="url(#filter-3)" mask="url(#mask-2)">
                    <g transform="translate(0.265690, -6.773940)">
                        <g id="Body" transform="translate(0.000000, 660.454528)">
                            <g id="Skin" transform="translate(168.971000, 0.000000)">
                                <g id="Hood" transform="translate(239.776521, 121.736300) rotate(-2.000000) translate(-239.776521, -121.736300) ">
                                    <use fill="#414850" fill-rule="evenodd" xlink:href="#path-4"></use>
                                    <path stroke="#5B626C" stroke-width="17.4843013" d="M237.930103,160.136788 C286.624243,160.136788 334.235553,153.21794 370.915871,141.71397 C387.547054,136.497968 401.068736,130.567832 410.196782,124.592553 C414.414247,121.831772 417.537567,119.158225 419.474893,116.745002 C420.933571,114.928005 421.498806,113.576897 421.498806,112.71664 C421.498806,110.783667 418.668227,107.693576 411.58843,104.172554 C403.070942,99.9365201 390.146857,96.1310732 373.498939,92.987821 C340.288382,86.7174174 293.711967,83.3358127 241.107825,83.3358127 C188.416885,83.3358127 141.190979,86.7272168 107.355422,92.9934283 C90.32725,96.1469784 77.0673822,99.9633174 68.3002405,104.212029 C60.9915882,107.753932 58.0542369,110.869869 58.0542369,112.71664 C58.0542369,115.210874 61.4585373,119.623624 68.8998493,124.67293 C77.6848783,130.634016 90.7373271,136.542206 106.85518,141.73445 C142.577009,153.241968 189.307559,160.136788 237.930103,160.136788 Z"></path>
                                    <path stroke-opacity="0.03" stroke="#000000" stroke-width="3.71249998" d="M237.930103,167.022689 C287.306335,167.022689 335.611561,160.003002 372.976513,148.284311 C407.446154,137.473671 428.384707,123.767156 428.384707,112.71664 C428.384707,91.0365018 351.12831,76.449912 241.107825,76.449912 C130.477488,76.449912 51.1683362,91.1376535 51.1683362,112.71664 C51.1683362,123.841653 71.3364502,137.526737 104.743791,148.28866 C141.169666,160.022981 188.611107,167.022689 237.930103,167.022689 Z"></path>
                                </g>
                                <path d="M110.662768,115.451738 C166.135953,101.950092 205.504145,94.5000654 228.767344,93.1016591 C271.875157,90.5103456 318.657427,94.3973158 369.114155,104.76257 L363.431652,108.579316 C308.67667,98.2608781 265.751061,94.0499938 234.654827,95.9466631 C212.156368,99.0921735 171.65952,106.866114 113.164284,119.268484 L110.662768,115.451738 Z" id="Path-41" fill="#E4E4E4"></path>
                                <mask id="mask-6" fill="white">
                                    <use xlink:href="#path-5"></use>
                                </mask>
                                <g id="Combined-Shape">
                                    <use fill="#E9D2C2" fill-rule="evenodd" xlink:href="#path-5"></use>
                                    <path stroke-opacity="0.03" stroke="#000000" stroke-width="1.23749999" d="M134.879578,0.624228173 L138.228104,114.284786 L137.699199,114.376203 C122.287538,117.039958 96.0363987,122.75508 58.953652,131.520346 C22.3326968,140.176458 3.06475957,202.308656 1.42653228,317.963953 L486.878899,312.746252 C481.462135,193.459189 465.638492,130.723002 439.792387,124.745046 C413.474686,118.658015 381.873249,111.931823 344.98857,104.566623 L344.484399,104.465949 L345.824368,0.624228173 L134.879578,0.624228173 Z"></path>
                                </g>
                                <path d="M243.473666,136.028528 C327.994143,135.142679 382.973417,78.4408216 408.411489,-34.0770442 L81.7563522,-29.0791402 C95.5054878,82.2798497 149.411259,137.315739 243.473666,136.028528 Z" id="Path-20" fill="#000000" opacity="0.0299999993" mask="url(#mask-6)"></path>
                                <path d="M214.934471,200.501059 C225.340088,209.98658 233.083472,214.729341 238.164624,214.729341 C243.245777,214.729341 250.989161,209.98658 261.394777,200.501059 C250.807104,205.24382 243.06372,207.6152 238.164624,207.6152 C233.265529,207.6152 225.522144,205.24382 214.934471,200.501059 Z" id="Path-39" fill="#000000" opacity="0.0700000003" mask="url(#mask-6)"></path>
                            </g>
                            <g id="Shirt" transform="translate(36.397126, 103.073151)">
                                <mask id="mask-8" fill="white">
                                    <use xlink:href="#path-7"></use>
                                </mask>
                                <use id="Combined-Shape" fill="#F2F3F5" xlink:href="#path-7"></use>
                                <polygon id="Path-22" fill-opacity="0.03" fill="#000000" mask="url(#mask-8)" points="640.577911 501.323175 652.664348 178.024947 676.723429 501.323175"></polygon>
                                <polygon id="Path-22-Copy" fill-opacity="0.03" fill="#000000" mask="url(#mask-8)" transform="translate(82.138031, 339.806265) rotate(2.000000) translate(-82.138031, -339.806265) " points="60.8627236 501.621528 78.2426135 177.991003 103.413338 500.135074"></polygon>
                                <path d="M40.7042491,74.680114 C65.8325099,103.13034 79.5254747,124.696097 81.7831434,139.377385 C84.0408121,154.058672 84.0408121,273.237063 81.7831434,496.912558" id="Path-19" stroke="#000000" stroke-width="3.81233703" opacity="0.100000001" mask="url(#mask-8)"></path>
                                <path d="M652.217885,74.680114 C681.233175,103.13034 696.869654,124.696097 699.127323,139.377385 C701.384992,154.058672 701.384992,273.237063 699.127323,496.912558" id="Path-19-Copy" stroke="#000000" stroke-width="3.81233703" opacity="0.100000001" mask="url(#mask-8)" transform="translate(676.519230, 285.796336) scale(-1, 1) translate(-676.519230, -285.796336) "></path>
                                <path d="M223.421904,-1.87680083 C241.075912,25.850314 253.384839,45.2851649 260.348682,56.4277518 C274.878709,79.6767065 285.68741,98.2080435 293.430186,108.939808 C334.439058,165.779568 360.92063,186.599498 371.413711,186.599498 C381.995141,186.599498 410.935966,162.971194 450.934587,103.071394 C463.584817,84.1270838 484.653478,46.8630348 514.140568,-8.72075319" id="Path-42" stroke="#000000" stroke-width="1.94270015" opacity="0.049999997" stroke-dasharray="9.71350085735321,3.885400235652924" mask="url(#mask-8)"></path>
                            </g>
                            <g id="Hoodie" transform="translate(0.000000, 99.186181)">
                                <mask id="mask-10" fill="white">
                                    <use xlink:href="#path-9"></use>
                                </mask>
                                <g id="Combined-Shape-Copy-2">
                                    <use fill="#626A74" fill-rule="evenodd" xlink:href="#path-9"></use>
                                    <path stroke-opacity="0.03" stroke="#000000" stroke-width="3.71249998" d="M2.31815721,564.98272 C115.918083,566.704333 250.881323,566.694532 407.206623,564.953216 C563.523902,563.211989 697.290037,563.20176 808.506475,564.922642 C796.22805,282.612906 786.052345,128.491223 778.104347,103.632977 C772.712754,86.7701687 762.944289,72.7361062 750.110494,61.6494122 C740.141233,53.0372948 728.776536,46.7006244 719.242183,43.6178329 C713.019535,41.6058318 707.245459,39.6786146 700.346082,37.3273429 C699.517597,37.0449997 687.458875,32.9140681 684.037926,31.7580407 C680.883641,30.692126 678.046794,29.7484377 675.271921,28.8446704 C651.713991,21.1719276 626.962067,14.6958265 583.61644,5.31274873 C558.564243,-0.110328929 535.180477,2.33367016 533.070878,10.2920034 C530.867604,18.6037155 528.119617,29.2932371 524.785933,42.8107899 C519.698842,63.4381213 514.630919,85.1226715 509.830668,107.191477 C496.566492,168.172563 487.454113,222.183935 484.540396,263.562077 C480.132396,326.160763 487.238324,419.409713 505.869388,543.260345 L506.133376,545.015214 L504.392145,545.357808 C460.476477,553.998374 428.106514,558.321458 407.227299,558.321458 C386.352369,558.321458 353.094186,553.999489 307.394017,545.360423 L305.695283,545.039298 L305.894989,543.322051 C320.204614,420.27517 325.38167,334.391327 321.436755,285.753827 C315.649347,214.399916 306.74718,149.503977 296.160838,93.8236532 C289.071989,56.5388705 280.910581,23.5012336 279.093868,20.5932175 C273.9518,12.362298 261.597762,9.60826448 241.763944,12.7066761 C161.059986,31.0535896 112.223293,43.054024 95.3788144,48.6713145 C80.4257949,53.6578419 68.6465211,59.3538277 58.8623535,67.0307419 C46.960161,76.3695139 38.6825284,88.2822282 34.3668378,103.571912 C28.1215605,125.697759 17.4011854,279.85506 2.31815721,564.98272 Z"></path>
                                </g>
                                <path d="M201.278243,182.453678 L216.938814,167.139717 L232.72133,182.453678 L216.938814,198.356947 L201.278243,182.453678 Z M200.792364,218.408152 L216.452936,203.094192 L232.235451,218.408152 L216.452936,234.311421 L200.792364,218.408152 Z M165.305191,182.827096 L180.87988,167.139717 L214.518436,200.67385 L176.732355,238.40574 L161.436192,223.005898 L182.675353,200.67385 L165.305191,182.827096 Z" id="Combined-Shape" fill="#FFFFFF" opacity="0" mask="url(#mask-10)"></path>
                                <g id="Group-21" filter="url(#filter-11)" mask="url(#mask-10)">
                                    <g transform="translate(561.828452, -12.604396)">
                                        <path d="M4.71040879,0.896293264 C1.10433413,42.4549367 -0.240115307,75.8876883 0.677060484,101.194548 C1.39156241,120.909199 8.53616453,159.284429 14.427982,217.841612 C15.5421543,228.91507 15.5421543,245.976237 14.427982,269.025114" id="Path-40-Copy" stroke="#EFEFEF" stroke-width="5.82810044" transform="translate(7.830855, 134.960703) scale(-1, 1) translate(-7.830855, -134.960703) "></path>
                                        <path d="M0.69485631,267.252172 L1.20154749,276.920268" id="Path-55" stroke="#414850" stroke-width="3.88540029"></path>
                                    </g>
                                </g>
                                <path d="M521.93333,588.969169 C502.309756,473.726622 493.469727,375.603423 495.413241,294.599572 C496.95698,230.257994 514.724449,128.572982 548.715649,-10.4554655" id="Path-23" stroke="#FFFFFF" stroke-width="11.6562009" opacity="0.900000036" mask="url(#mask-10)"></path>
                                <path d="M258.96115,7.79507417 C286.308203,113.597654 302.180239,198.787084 306.577259,263.363363 C310.974278,327.939642 306.500587,427.855119 293.156185,563.109794" id="Path-18" stroke="#FFFFFF" stroke-width="11.6562009" opacity="0.900000036" mask="url(#mask-10)"></path>
                                <polygon id="Path-22" fill-opacity="0.03" fill="#000000" mask="url(#mask-10)" points="676.74837 545.210145 688.834807 181.911917 712.893888 545.210145"></polygon>
                                <polygon id="Path-22-Copy" fill-opacity="0.03" fill="#000000" mask="url(#mask-10)" transform="translate(124.459388, 363.717595) rotate(2.000000) translate(-124.459388, -363.717595) " points="103.184081 545.520674 119.167991 181.914516 145.734695 544.034221"></polygon>
                                <path d="M60.1327471,57.578544 C99.3228513,84.7165649 120.414247,113.278502 123.406936,143.264355 C126.399624,173.250208 126.399624,305.761932 123.406936,540.799528" id="Path-19" stroke="#000000" stroke-width="3.81233703" opacity="0.100000001" mask="url(#mask-10)"></path>
                                <path d="M690.081596,53.8363565 C725.641738,90.2009399 743.42181,120.010273 743.42181,143.264355 C743.42181,166.518437 743.42181,302.060667 743.42181,549.891044" id="Path-19-Copy" stroke="#000000" stroke-width="3.81233703" opacity="0.100000001" mask="url(#mask-10)" transform="translate(716.751703, 301.863700) scale(-1, 1) translate(-716.751703, -301.863700) "></path>
                                <g id="Group-22" filter="url(#filter-12)" mask="url(#mask-10)">
                                    <g transform="translate(232.374477, 6.830455)">
                                        <path d="M6.66564788,0.896293264 C1.8614428,39.7244413 -0.0820718418,71.7919453 0.835103949,97.098805 C1.54960588,116.813456 11.4631609,156.164224 17.3549784,214.721407 C18.4691507,225.794865 18.1452316,243.8961 16.3832211,269.025114" id="Path-40" stroke="#EFEFEF" stroke-width="5.82810044"></path>
                                        <path d="M16.3053782,267.260539 L14.7908561,276.82271" id="Path-55" stroke="#414850" stroke-width="3.88540029"></path>
                                    </g>
                                </g>
                            </g>
                        </g>
                        <g id="Head" transform="translate(402.458773, 416.764850) rotate(2.000000) translate(-402.458773, -416.764850) translate(112.958773, 10.264850)">
                            <g id="Combined-Shape">
                                <use fill="#ECD6C6" fill-rule="evenodd" xlink:href="#path-13"></use>
                                <path stroke-opacity="0.03" stroke="#000000" stroke-width="1.23749999" d="M309.496854,806.004087 C322.618244,805.814574 335.26218,800.960261 348.585312,791.381106 C359.852825,783.279915 371.561031,771.917738 386.146754,755.402828 C391.991669,748.784832 398.11192,741.574691 406.588238,731.386589 C405.464232,732.737587 423.631648,710.828047 428.988739,704.438388 C447.938252,681.836396 472.134041,644.898769 491.881294,608.34208 C513.586396,568.160963 527.373963,533.398987 528.815632,512.806055 C536.30654,388.937775 539.352235,309.34465 538.449678,249.739301 C537.479169,185.646453 531.782868,143.936999 520.16461,116.589684 C508.98935,90.2851107 492.072692,76.3345411 465.54714,70.0551845 C453.672927,67.2442188 439.696878,65.8766447 421.658232,65.5435322 C407.958409,65.2905431 399.281476,65.4600706 365.211735,66.4206741 C341.274197,67.095598 326.506559,67.3824782 309.484952,67.3824782 C291.185175,67.3824782 275.27569,67.0011719 249.866763,66.113022 C215.542043,64.9132273 207.711638,64.7070121 194.227211,64.882761 C176.382682,65.1153372 162.547718,66.4372543 150.775189,69.2611406 C124.408549,75.5857281 107.542422,89.9215723 96.4131636,117.066833 C74.2824654,171.045594 73.1094869,275.315092 89.4254732,528.164914 C91.7942713,549.770006 104.904558,582.324243 125.491066,620.496426 C142.590381,652.202539 163.955232,685.867252 180.800464,708.350158 C231.351376,775.819187 268.391824,803.831207 309.496854,806.004087 Z"></path>
                            </g>
                            <g id="Group-10" transform="translate(242.053542, 492.344580)">
                                <path d="M21.5276695,23.7439557 C27.6290068,22.2837638 31.7495064,22.2837638 33.8891682,23.7439557 C36.02883,25.2041477 39.2952759,29.6624578 43.6885058,37.118886 C36.4368195,34.6933177 31.6508183,32.7803328 29.330502,31.3799313 C27.0101857,29.9795298 24.4092415,27.4342046 21.5276695,23.7439557 Z" id="Path-25" fill="#373737" opacity="0.5" transform="translate(32.608088, 29.883849) rotate(-15.000000) translate(-32.608088, -29.883849) "></path>
                                <path d="M72.1810096,23.7439557 C78.2823469,22.2837638 82.4028465,22.2837638 84.5425083,23.7439557 C86.6821701,25.2041477 89.948616,29.6624578 94.3418459,37.118886 C87.0901596,34.6933177 82.3041583,32.7803328 79.9838421,31.3799313 C77.6635258,29.9795298 75.0625816,27.4342046 72.1810096,23.7439557 Z" id="Path-25-Copy" fill="#373737" opacity="0.5" transform="translate(83.261428, 29.883849) scale(-1, 1) rotate(-15.000000) translate(-83.261428, -29.883849) "></path>
                                <path d="M107.32536,0 C93.9218353,14.2372409 91.4281944,23.4587541 99.8444378,27.6645395 C108.260681,31.870325 113.813429,33.9732177 116.502682,33.9732177 C106.419681,28.3594136 100.866933,23.6599413 99.8444378,19.8748006 C98.8219426,16.0896599 101.315583,9.46472637 107.32536,0 Z" id="Path-10-Copy" fill="#373737" opacity="0.349999994" transform="translate(105.738847, 16.986609) scale(-1, 1) translate(-105.738847, -16.986609) "></path>
                                <path d="M40.6584016,4.99021909 C44.6257689,2.43935648 48.9240343,11.4425976 55.4908288,11.4425976 C62.0576233,11.4425976 66.0215792,1.99638231 74.573763,4.99021909 C77.3744582,11.4425976 72.9107436,26.6875957 55.4908288,26.4201395 C38.070914,26.1526834 40.6584016,10.0363984 40.6584016,4.99021909 Z" id="Path-43" fill="#FFFFFF" opacity="0.349999994"></path>
                                <path d="M12.3503478,0 C-1.0531774,14.2372409 -3.54681828,23.4587541 4.86942517,27.6645395 C13.2856686,31.870325 18.8384167,33.9732177 21.5276695,33.9732177 C11.4446685,28.3594136 5.89192042,23.6599413 4.86942517,19.8748006 C3.84692992,16.0896599 6.3405708,9.46472637 12.3503478,0 Z" id="Path-10" fill="#373737" opacity="0.349999994"></path>
                            </g>
                            <path d="M520.35726,150.536284 C475.802214,173.511172 502.26778,201.876206 526.15584,316.641111 C528.643486,328.592455 526.101143,388.081566 529.435007,410.575385 C530.384375,416.980839 534.017158,416.853928 540.333358,410.194653 L545.240891,303.79106 C547.075004,186.917496 538.780461,135.832571 520.35726,150.536284 Z" id="Path-3" fill="#3C3C3C"></path>
                            <path d="M38.031904,210.139312 C63.5921962,186.604072 77.6753418,184.107774 80.2813409,202.650421 C106.763084,210.36937 102.732,254.859097 86.7366483,347.947361 C85.3548119,355.989243 87.8335598,404.880741 86.7222498,419.677037 C86.0546238,428.565998 83.9212506,432.15107 80.32213,430.432254 L64.6870843,335.446386 L41.8552978,238.081647 L38.031904,210.139312 Z" id="Path-3-Copy" fill="#3C3C3C"></path>
                            <g id="Group-3" transform="translate(530.469151, 356.045194)">
                                <mask id="mask-15" fill="white">
                                    <use xlink:href="#path-14"></use>
                                </mask>
                                <g id="Path-4">
                                    <use fill="#EBD6C8" fill-rule="evenodd" xlink:href="#path-14"></use>
                                    <path stroke-opacity="0.03" stroke="#000000" stroke-width="1.23749999" d="M7.0496297,7.23430332 L0.848506647,126.694744 C4.73611346,129.445843 9.23284611,129.380611 14.4444471,126.458151 C19.2776231,123.747898 21.0692643,120.276329 23.3195752,111.673942 C23.9565413,109.238977 24.0761962,108.790492 24.3863479,107.720066 C24.9973052,105.611471 25.6121492,103.861507 26.3524474,102.219303 C43.1205648,65.0225683 50.3082582,26.9817469 44.8533706,14.0773712 C38.5960012,-0.725398807 26.1183214,-3.03275607 7.0496297,7.23430332 Z"></path>
                                </g>
                                <path d="M25.6702674,38.760225 C16.1932762,24.8074806 7.64622923,21.3526514 0.02912638,28.3957373 C-2.20905283,30.4652497 0.118579611,63.7550606 14.5100983,93.6594724 C16.1267821,97.0188105 22.6729928,99.0490956 26.4181507,104.132903 C27.1834119,105.171695 28.9756113,107.835106 31.7947489,112.123134 L25.6702674,38.760225 Z" id="Path-4-Copy-2" fill="#000000" opacity="0.00999999978" mask="url(#mask-15)" transform="translate(15.543653, 68.487475) scale(-1, 1) rotate(1.000000) translate(-15.543653, -68.487475) "></path>
                                <path d="M3.78093771,30.9163371 C15.6114176,19.7401968 24.7437179,17.7790088 31.1778385,25.0327732 C37.6119592,32.2865376 39.5796521,35.2916685 37.0809172,34.0481661 L33.1646854,29.9585123 C35.1348106,37.1037646 34.1748813,46.7605335 30.2848975,58.9288189 C24.449922,77.181247 18.3790178,93.9718697 17.4307431,93.3525472 C16.4824683,92.7332247 23.9060093,79.8015277 29.1265369,53.8558609 C31.1428886,43.8347303 31.5290088,35.1425591 30.2848975,27.7793471 C26.540872,25.4381824 23.4309544,24.5226578 20.9551447,25.0327732 C15.3495677,26.1877453 9.62483201,31.4799169 3.78093771,40.909288 L3.78093771,30.9163371 Z M2.58305297,53.6758324 C10.6621876,48.9090729 16.4659493,48.0800713 19.994338,51.1888274 C22.623188,53.5050274 17.7174989,51.5847825 9.9856158,53.6758324 C8.22182091,54.1528421 5.75429997,56.2297988 2.58305297,59.9067026 L2.58305297,53.6758324 Z M1.53931229,72.4766946 C1.54328619,72.3262 2.41187734,72.0252108 4.14508574,71.5737271 C6.74489834,70.8965015 7.08886131,75.1313659 7.71055563,77.7273973 C8.12501851,79.4580849 6.22365534,81.5838207 2.00646611,84.1046048 L1.53931229,72.4766946 Z" id="Combined-Shape" fill="#000000" opacity="0.100000001" mask="url(#mask-15)"></path>
                            </g>
                            <g id="Group-5" transform="translate(0.000000, 0.000000)">
                                <mask id="mask-17" fill="white">
                                    <use xlink:href="#path-16"></use>
                                </mask>
                                <use id="Combined-Shape" fill="#333333" xlink:href="#path-16"></use>
                                <path d="M467.987474,177.171233 C451.447463,165.690687 441.670237,158.224271 438.655796,154.771983 C427.07913,141.513807 419.047841,134.902043 409.351965,133.673953 C392.408019,131.527815 374.820251,140.21281 356.58866,159.728938 L467.987474,177.171233 Z" id="Path-50" fill="#000000" opacity="0.300000012" mask="url(#mask-17)"></path>
                                <g id="Group-6" opacity="0.300000012" mask="url(#mask-17)">
                                    <g transform="translate(-50.360205, -28.157676)">
                                        <path d="M323.067683,128.427295 C248.935002,206.942524 192.170565,252.430966 152.774369,264.892621 C113.378173,277.354277 81.3772237,275.06178 56.7715197,258.01513" id="Path-48" stroke="#262626" stroke-width="25.506572"></path>
                                        <path d="M296.090087,100.451867 C196.544142,201.025115 122.334043,248.921562 73.4597898,244.141207 C24.5855369,239.360853 0.226824155,222.477983 0.383651501,193.492599" id="Path-49" stroke="#262626" stroke-width="47.784997"></path>
                                        <path d="M349.532723,150.812087 C247.028544,242.149288 176.759808,293.240278 138.726517,304.085055 C100.693225,314.929832 68.5446282,299.037486 42.2807253,256.408017" id="Path-51" stroke="#262626" stroke-width="13.8103967"></path>
                                        <path d="M379.850876,172.143499 C291.756451,253.88138 214.670727,309.172523 148.593705,338.016928 C111.511243,352.964769 82.5053126,341.984582 61.5759144,305.076369" id="Path-52" stroke="#262626" stroke-width="47.784997"></path>
                                        <path d="M595.827169,176.068325 C528.960153,104.136627 508.472827,65.076941 534.365189,58.889268" id="Path-29" stroke="#262626" stroke-width="36.6457834"></path>
                                        <path d="M107.276334,93.482226 C78.5434374,130.490162 60.7256304,169.841074 53.8229134,211.534962 C45.723781,260.455455 62.7645671,309.779924 24.7995941,311.105903" id="Path-20" stroke="#2A2A2A" stroke-width="8.79770035"></path>
                                        <path d="M445.815873,33.7030989 C439.916605,55.6397889 446.103283,82.2130949 464.375905,113.423017 C482.648528,144.632939 521.539173,182.837427 581.04784,228.036479" id="Path-26" stroke="#262626" stroke-width="38.9872475"></path>
                                        <path d="M532.488528,167.218969 C549.940028,177.260974 561.781516,183.560141 568.012991,186.116471 C574.244467,188.672801 581.121399,190.467347 588.643787,191.500112" id="Path-58" stroke="#262626" stroke-width="5.82810044"></path>
                                        <path d="M586.478683,194.927499 C579.062441,214.720428 529.098,214.069789 436.58536,192.975583 C297.816399,161.334274 329.107197,57.3072222 157.426903,57.3072222" id="Path-24" stroke="#262626" stroke-width="8.79770035"></path>
                                        <path d="M574.555136,212.110503 C539.105372,206.578745 495.922607,189.416888 445.006842,160.624934 C368.633195,117.437003 352.273124,-2.68210584 323.931113,0.0491220848" id="Path-16" stroke="#262626" stroke-width="18.2660832"></path>
                                        <path d="M401.240639,32.3209802 C406.823392,65.4093969 413.389434,89.477971 420.938763,104.526702 C428.488092,119.575434 446.50814,143.978581 474.998906,177.736144" id="Path-28" stroke="#262626" stroke-width="19.9369652"></path>
                                        <path d="M595.99159,190.307811 C463.016951,104.402257 442.829065,46.6755882 535.42793,17.1278044" id="Path-17" stroke="#262626" stroke-width="8.79775061"></path>
                                        <path d="M260.647103,75.415478 C187.504019,168.610239 125.609162,217.986699 74.9625328,223.544857 C24.3159032,229.103016 18.4438503,225.40506 57.3463741,212.450991" id="Path-53" stroke="#262626" stroke-width="8.79770075"></path>
                                        <path d="M216.080353,57.2428145 C176.323364,133.224854 130.649861,180.671917 79.0598418,199.584003 C27.4698231,218.496089 18.1747084,221.026352 51.174498,207.174793" id="Path-54" stroke="#262626" stroke-width="42.2153902"></path>
                                        <path d="M158.895246,75.6938451 C130.608437,120.909502 106.053972,152.779036 85.2318491,171.302447 C64.4097266,189.825858 55.0651833,196.609296 57.1982192,191.65276" id="Path-27" stroke="#262626" stroke-width="8.79770075"></path>
                                        <path d="M239.727826,18.1305036 C281.60243,43.5888258 307.28948,61.2034939 316.788976,70.974508 C348.703556,103.801282 364.493476,137.880822 391.120702,156.903002 C423.932025,180.343028 439.610846,191.773781 438.157168,191.195261" id="Path-21" stroke="#262626" stroke-width="38.9872475"></path>
                                    </g>
                                </g>
                                <path d="M119.691909,36.0898666 C68.9032644,98.82174 52.5379786,135.893784 70.5960511,147.306 C97.6831598,164.424323 135.695878,113.772344 151.789811,126.405708 C167.883743,139.039073 143.437381,198.90331 160.525738,205.53222 C177.614096,212.161131 192.335017,199.915509 204.361005,199.495473 C216.386993,199.075437 198.943661,221.11254 221.231153,231.968087 C236.089481,239.205119 280.848389,217.718809 355.507876,167.509157 L256.769503,270.824825 C204.516936,295.130019 173.485682,303.439622 163.675742,295.753633 C148.960832,284.22465 174.616926,259.143886 168.304698,253.342887 C161.99247,247.541889 119.303605,300.859866 99.4796769,282.292974 C79.6557488,263.726082 107.246424,228.854018 92.4823897,219.824719 C77.7183556,210.79542 81.9608442,227.366224 42.2234097,228.754149 C15.7317867,229.679432 -0.123745617,201.377219 -5.34318725,143.84751 C28.1264652,102.654245 55.2038208,73.144222 75.8888793,55.3174419 C96.5739379,37.4906618 111.174948,31.08147 119.691909,36.0898666 Z" id="Path-47" fill="#FFFFFF" opacity="0.0700000003" mask="url(#mask-17)" transform="translate(175.082345, 166.482826) rotate(-2.000000) translate(-175.082345, -166.482826) "></path>
                                <path d="M392.766511,156.822948 C389.164942,150.281767 390.930289,144.553108 398.062552,139.63697 C403.141416,136.136202 407.890982,134.253829 412.311252,133.989851 C402.168858,132.742238 393.337282,133.9782 385.816526,137.697737 C373.854023,142.581351 363.989793,150.153313 356.223836,160.413625 L392.766511,156.822948 Z" id="Path-56" fill="#000000" opacity="0.100000001" mask="url(#mask-17)"></path>
                            </g>
                            <g id="Group-2" transform="translate(61.714968, 428.637807) rotate(-1.000000) translate(-61.714968, -428.637807) translate(35.214968, 360.137807)">
                                <mask id="mask-19" fill="white">
                                    <use xlink:href="#path-18"></use>
                                </mask>
                                <g id="Path-4-Copy" transform="translate(26.557507, 68.451785) rotate(1.000000) translate(-26.557507, -68.451785) ">
                                    <use fill="#EBD6C8" fill-rule="evenodd" xlink:href="#path-18"></use>
                                    <path stroke-opacity="0.03" stroke="#000000" stroke-width="1.23749999" d="M44.3946049,7.74672487 C23.8730254,-3.09642438 10.4250276,-0.66191336 3.68977203,14.9657115 C-1.70250265,27.4772555 6.1380455,60.1523473 25.1654597,101.55117 C26.537618,104.536638 27.1622204,107.469081 28.1685292,114.26428 C28.2464975,114.790982 28.2830334,115.037423 28.3248034,115.317563 C29.9420261,126.163854 31.6722262,130.836691 36.3776477,133.424687 C42.0008449,136.517463 46.8607983,136.582699 51.0585589,133.660561 L44.3946049,7.74672487 Z"></path>
                                </g>
                                <path d="M46.7776419,35.9047372 C36.2254479,21.2838751 27.4269308,18.0845792 20.3820907,26.3068495 C16.2524221,31.1267249 23.4340285,62.5190585 36.2055038,90.3065464 C37.7938792,93.762448 41.2408589,95.9603037 47.1948105,103.130233 C47.978852,104.0744 49.3481407,106.601458 51.3026765,110.711406 L46.7776419,35.9047372 Z" id="Path-4-Copy-2" fill="#000000" opacity="0.00999999978" mask="url(#mask-19)" transform="translate(35.258259, 66.289454) rotate(1.000000) translate(-35.258259, -66.289454) "></path>
                                <path d="M16.2561997,28.23508 C28.0866796,17.0589397 37.2189799,15.0977517 43.6531005,22.3515161 C50.0872212,29.6052805 52.0549141,32.6104114 49.5561792,31.366909 L45.6399474,27.2772552 C47.6100726,34.4225075 46.6501433,44.0792764 42.7601595,56.2475618 C36.9251839,74.4999899 30.8542798,91.2906126 29.906005,90.6712901 C28.9577303,90.0519676 36.3812713,77.1202706 41.6017989,51.1746038 C43.6181506,41.1534732 44.0042708,32.461302 42.7601595,25.09809 C39.016134,22.7569253 35.9062164,21.8414007 33.4304067,22.3515161 C27.8248297,23.5064882 22.100094,28.7986598 16.2561997,38.2280309 L16.2561997,28.23508 Z M15.058315,50.9945753 C23.1374496,46.2278158 28.9412112,45.3988142 32.4696,48.5075703 C35.09845,50.8237703 30.1927609,48.9035254 22.4608778,50.9945753 C20.6970829,51.471585 18.229562,53.5485417 15.058315,57.2254455 L15.058315,50.9945753 Z M14.0145743,69.7954375 C14.0185482,69.6449429 14.8871393,69.3439537 16.6203477,68.89247 C19.2201603,68.2152444 19.5641233,72.4501088 20.1858176,75.0461402 C20.6002805,76.7768278 18.6989173,78.9025636 14.4817281,81.4233477 L14.0145743,69.7954375 Z" id="Combined-Shape-Copy" fill="#000000" opacity="0.100000001" mask="url(#mask-19)" transform="translate(32.309594, 54.378472) scale(-1, 1) rotate(1.000000) translate(-32.309594, -54.378472) "></path>
                                <g id="Group" mask="url(#mask-19)">
                                    <g transform="translate(30.584373, 113.768641)">
                                        <ellipse id="Oval-3-Copy" fill="#565656" transform="translate(8.302831, 8.180901) rotate(-22.000000) translate(-8.302831, -8.180901) " cx="8.30283079" cy="8.18090115" rx="4.9063335" ry="6.73639673"></ellipse>
                                        <ellipse id="Oval-3" fill="#373737" transform="translate(7.076247, 8.793301) rotate(-22.000000) translate(-7.076247, -8.793301) " cx="7.07624741" cy="8.79330085" rx="4.9063335" ry="6.73639673"></ellipse>
                                    </g>
                                </g>
                            </g>
                            <g id="Group-7" transform="translate(114.675495, 303.877124)" fill="#373737">
                                <path d="M132.690956,8.68236751 C133.427456,14.5405146 133.583299,18.9912397 133.158487,22.034543 C132.733674,25.0778462 131.404328,29.0339373 129.17045,33.9028162 C91.4924996,36.2027806 60.1435947,40.6490513 35.1237354,47.2416283 C18.2355735,51.6915537 6.01703106,65.3441975 1.38182734,63.240455 C-2.3923238,61.5275115 1.99069192,53.0791308 14.5308745,37.8953129 C33.9816561,28.8708503 48.1442443,23.1823611 57.0186392,20.8298453 C65.8930341,18.4773295 91.1171398,14.4281703 132.690956,8.68236751 Z" id="Path-7-Copy-2"></path>
                                <path d="M228.85624,0.48648877 C226.693611,5.96409146 225.866828,10.3668363 226.375891,13.6947231 C226.884954,17.02261 229.134397,21.920195 233.12422,28.387478 C251.836413,28.1796871 271.901181,29.171303 293.318524,31.3623256 C349.953103,37.1561184 369.140301,56.3565305 372.720295,56.4566865 C376.290695,56.5565741 373.234251,48.8467419 363.550962,33.3271899 C355.318293,26.5288066 345.437591,21.0739682 333.908855,16.9626747 C315.537108,11.1168753 280.51957,5.62481337 228.85624,0.48648877 Z" id="Path-7-Copy-3"></path>
                            </g>
                            <g id="Group-4" transform="translate(162.655841, 375.480354)" fill="#373737">
                                <path d="M72.3369729,19.34206 C67.7159637,10.9456894 58.866357,4.85480882 45.7881529,1.06941835 C32.7099488,-2.71597213 17.5032698,4.36068721 0.168116045,22.2993963 C16.5129949,8.14607768 30.37479,2.10448605 41.7535014,4.17462147 C53.1322129,6.24475688 63.3267034,11.3005697 72.3369729,19.34206 Z" id="Path-9" opacity="0.200000003"></path>
                                <path d="M72.8133709,18.9681299 C74.114239,29.7217741 56.92755,19.1812936 35.0531664,23.4746401 C25.6312911,25.3238979 7.80673795,45.0787617 3.51764181,34.8066731 C2.96077259,33.4730099 9.36227509,18.8480149 23.3856998,12.6736467 C48.4709194,1.62888518 71.465753,7.8280283 72.8133709,18.9681299 Z" id="Path-8"></path>
                                <path d="M197.204771,23.1009522 C197.335748,33.9408668 212.964124,20.9805336 235.192231,22.0216686 C244.766464,22.4701129 265.024649,39.4166747 267.916371,28.6150574 C268.291813,27.2126434 260.022513,13.6695046 245.320717,9.61339533 C219.02202,2.35779303 197.069087,11.87148 197.204771,23.1009522 Z" id="Path-8-Copy"></path>
                                <path d="M270.012812,23.3495296 C269.559175,14.2417034 260.668478,7.16504403 243.340721,2.11955161 C226.012963,-2.92594081 210.806284,4.15071852 197.720684,23.3495296 C211.18678,7.51551005 225.048575,1.47391842 239.306069,5.22475473 C253.563564,8.97559104 263.799144,15.0171827 270.012812,23.3495296 Z" id="Path-9-Copy" opacity="0.200000003" transform="translate(233.866748, 11.947026) scale(-1, 1) translate(-233.866748, -11.947026) "></path>
                            </g>
                            <g id="Beard" transform="translate(228.656738, 758.452041)">
                                <mask id="mask-21" fill="white">
                                    <use xlink:href="#path-20"></use>
                                </mask>
                                <use id="Path-5" fill="#4C4C4C" xlink:href="#path-20"></use>
                                <g id="Group-8" opacity="0.100000001" mask="url(#mask-21)" stroke="#2A2A2A">
                                    <g transform="translate(-12.234118, -69.095852)">
                                        <path d="M0.374723183,45.9501258 L47.2696252,118.098411" id="Path-22" stroke-width="5.86513357"></path>
                                        <path d="M27.748102,47.2561377 L53.201107,121.365682" id="Path-30" stroke-width="11.4349598"></path>
                                        <path d="M54.4685799,48.4193045 L66.0010505,135.475661" id="Path-31" stroke-width="11.4349598"></path>
                                        <path d="M70.1382006,35.9637263 L77.4226782,133.719903" id="Path-32" stroke-width="5.86513357"></path>
                                        <path d="M93.5457167,-6.60242483e-05 C92.3384616,35.8775438 91.4789789,62.7876807 90.9672684,80.7303448 C90.4555579,98.6730089 89.9769339,118.682369 89.5313965,140.758427" id="Path-33" stroke-width="21.4602509"></path>
                                        <path d="M111.105179,42.202994 L100.658766,142.015973" id="Path-34" stroke-width="5.86513357"></path>
                                        <path d="M126.121899,48.0315822 L116.328386,124.989353" id="Path-35" stroke-width="17.0045665"></path>
                                        <path d="M147.667628,45.2741626 L127.427701,138.605548" id="Path-36" stroke-width="5.86513357"></path>
                                        <path d="M161.281631,54.3677806 L146.264911,116.35488" id="Path-37" stroke-width="16.9873007"></path>
                                        <path d="M186.043406,54.9723212 L152.79392,121.481997" id="Path-38" stroke-width="5.86513357"></path>
                                    </g>
                                </g>
                            </g>
                            <g id="Goatie" transform="translate(283.457671, 672.063137)">
                                <mask id="mask-23" fill="white">
                                    <use xlink:href="#path-22"></use>
                                </mask>
                                <use id="Path-5" fill="#4C4C4C" xlink:href="#path-22"></use>
                                <g id="Group-8" opacity="0.100000001" mask="url(#mask-23)" stroke="#2A2A2A">
                                    <g transform="translate(5.041460, -63.970556)">
                                        <path d="M0.426797467,27.8682588 L6.03879551,103.467777" id="Path-32" stroke-width="7.82919634"></path>
                                        <path d="M20.0570186,-5.10597031e-05 C19.1269433,27.7458174 18.4647934,48.5567109 18.0705691,62.4326296 C17.6763448,76.3085482 17.3076105,91.782742 16.9643662,108.855211" id="Path-33" stroke-width="11.7279206"></path>
                                        <path d="M33.5849167,32.63759 L25.5369471,109.827732" id="Path-34" stroke-width="7.27223566"></path>
                                    </g>
                                </g>
                            </g>
                            <path d="M266.046168,666.092437 C282.215029,675.917601 296.40516,680.615499 308.61656,680.186131 C320.82796,679.756762 333.023176,673.94435 345.202207,662.748895 C327.531365,668.202196 314.338692,671.112897 305.624187,671.480997 C296.909683,671.849096 283.71701,670.052909 266.046168,666.092437 Z" id="Lips" fill="#D3C0B1"></path>
                            <g id="Mouth" transform="translate(201.265711, 567.527018)">
                                <mask id="mask-25" fill="white">
                                    <use xlink:href="#path-24"></use>
                                </mask>
                                <use id="Path-6" fill="#FFFFFF" xlink:href="#path-24"></use>
                                <g id="Group-11" opacity="0.5" mask="url(#mask-25)">
                                    <g transform="translate(5.110829, 14.296370)">
                                        <path d="M3.22124923,8.07104601 C44.9756595,13.8537612 77.0507713,16.7451188 99.4465848,16.7451188 C137.87097,16.7451188 171.740862,13.2411066 201.056259,6.2330821" id="Path-57" stroke="#979797" stroke-width="1.23749999" transform="translate(102.138754, 11.489100) rotate(-3.000000) translate(-102.138754, -11.489100) "></path>
                                        <path d="M4.38062413,37.9085808 C46.1350344,43.691296 78.2101462,46.5826536 100.60596,46.5826536 C139.030345,46.5826536 172.900237,41.3967155 202.215634,31.0248392" id="Path-57-Copy" stroke="#979797" stroke-width="1.23749999" transform="translate(103.298129, 38.803746) rotate(-2.000000) translate(-103.298129, -38.803746) "></path>
                                        <g id="Rectangle" stroke="none">
                                            <use fill="#DEDEDE" fill-rule="evenodd" xlink:href="#path-26"></use>
                                            <rect stroke="#979797" stroke-width="1.23749999" x="75.7836131" y="15.3350891" width="3.87332926" height="3.38779616" rx="1.11392136"></rect>
                                        </g>
                                        <g id="Rectangle-Copy" stroke="none" transform="translate(116.538918, 15.913718) rotate(-4.000000) translate(-116.538918, -15.913718) ">
                                            <use fill="#DEDEDE" fill-rule="evenodd" xlink:href="#path-27"></use>
                                            <rect stroke="#979797" stroke-width="1.23749999" x="114.602254" y="14.2198201" width="3.87332926" height="3.38779616" rx="1.11392136"></rect>
                                        </g>
                                        <g id="Rectangle-Copy-2" stroke="none" transform="translate(157.257953, 11.377948) rotate(-8.000000) translate(-157.257953, -11.377948) ">
                                            <use fill="#DEDEDE" fill-rule="evenodd" xlink:href="#path-28"></use>
                                            <rect stroke="#979797" stroke-width="1.23749999" x="155.321288" y="9.68405023" width="3.87332926" height="3.38779616" rx="1.11392136"></rect>
                                        </g>
                                        <g id="Rectangle-Copy-3" stroke="none" transform="translate(197.816459, 3.060150) rotate(-17.000000) translate(-197.816459, -3.060150) ">
                                            <use fill="#DEDEDE" fill-rule="evenodd" xlink:href="#path-29"></use>
                                            <rect stroke="#979797" stroke-width="1.23749999" x="195.879794" y="1.36625242" width="3.87332926" height="3.38779616" rx="1.11392136"></rect>
                                        </g>
                                        <g id="Rectangle-Copy-4" stroke="none" transform="translate(39.799077, 15.285667) rotate(4.000000) translate(-39.799077, -15.285667) ">
                                            <use fill="#DEDEDE" fill-rule="evenodd" xlink:href="#path-30"></use>
                                            <rect stroke="#979797" stroke-width="1.23749999" x="37.8624123" y="13.5917685" width="3.87332926" height="3.38779616" rx="1.11392136"></rect>
                                        </g>
                                        <g id="Rectangle-Copy-5" stroke="none" transform="translate(3.319503, 11.172522) rotate(9.000000) translate(-3.319503, -11.172522) ">
                                            <use fill="#DEDEDE" fill-rule="evenodd" xlink:href="#path-31"></use>
                                            <rect stroke="#979797" stroke-width="1.23749999" x="1.38283872" y="9.47862376" width="3.87332926" height="3.38779616" rx="1.11392136"></rect>
                                        </g>
                                        <g id="Rectangle-Copy-6" stroke="none">
                                            <use fill="#DEDEDE" fill-rule="evenodd" xlink:href="#path-32"></use>
                                            <rect stroke="#979797" stroke-width="1.23749999" x="79.6038651" y="45.097714" width="3.87332926" height="3.38779616" rx="1.11392136"></rect>
                                        </g>
                                        <g id="Rectangle-Copy-7" stroke="none" transform="translate(117.294541, 45.764391) rotate(-5.000000) translate(-117.294541, -45.764391) ">
                                            <use fill="#DEDEDE" fill-rule="evenodd" xlink:href="#path-33"></use>
                                            <rect stroke="#979797" stroke-width="1.23749999" x="115.357876" y="44.0704926" width="3.87332926" height="3.38779616" rx="1.11392136"></rect>
                                        </g>
                                        <g id="Rectangle-Copy-8" stroke="none" transform="translate(152.905860, 41.375367) rotate(-8.000000) translate(-152.905860, -41.375367) ">
                                            <use fill="#DEDEDE" fill-rule="evenodd" xlink:href="#path-34"></use>
                                            <rect stroke="#979797" stroke-width="1.23749999" x="150.969195" y="39.6814686" width="3.87332926" height="3.38779616" rx="1.11392136"></rect>
                                        </g>
                                        <g id="Rectangle-Copy-9" stroke="none" transform="translate(44.604447, 44.066155) rotate(3.000000) translate(-44.604447, -44.066155) ">
                                            <use fill="#DEDEDE" fill-rule="evenodd" xlink:href="#path-35"></use>
                                            <rect stroke="#979797" stroke-width="1.23749999" x="42.667782" y="42.3722567" width="3.87332926" height="3.38779616" rx="1.11392136"></rect>
                                        </g>
                                    </g>
                                </g>
                                <path d="M10.7589285,37.442046 L13.2923949,38.3070672 C52.4834949,45.0147464 81.2762499,48.2910865 99.67066,48.1360875 C118.06507,47.9810886 151.063955,43.0403058 198.667314,33.3137393 L202.467514,31.6348386 C154.288605,41.0139387 119.839997,45.8172903 99.1216892,46.0448934 C78.4033811,46.2724965 48.9491276,43.4048807 10.7589285,37.442046 Z" id="Path-14" fill="#000000" opacity="0.300000012" mask="url(#mask-25)"></path>
                            </g>
                            <g id="Stache" opacity="0.800000012" transform="translate(306.871836, 562.240187) rotate(2.000000) translate(-306.871836, -562.240187) translate(194.871836, 546.740187)">
                                <mask id="mask-37" fill="white">
                                    <use xlink:href="#path-36"></use>
                                </mask>
                                <use id="Combined-Shape" fill="#4C4C4C" xlink:href="#path-36"></use>
                                <g id="Group-9" opacity="0.200000003" mask="url(#mask-37)" stroke="#2A2A2A">
                                    <g transform="translate(1.214245, -75.601169)">
                                        <path d="M34.5953889,0.459270172 C33.7217387,34.1457117 33.0997597,59.4123546 32.7294519,76.2591988 C32.3591441,93.106043 32.0127799,111.893364 31.6903594,132.62116" id="Path-33" stroke-width="5.02524612"></path>
                                        <path d="M46.2319592,40.4253773 L38.6722383,134.142436" id="Path-34" stroke-width="10.5950634"></path>
                                        <path d="M56.9449655,46.4081917 L49.8577271,118.665888" id="Path-35" stroke-width="5.02524612"></path>
                                        <path d="M3.11265498,1.885887 C2.23900479,35.5723285 1.61702579,60.8389714 1.24671798,77.6858156 C0.87641018,94.5326599 0.530046011,113.31998 0.207625477,134.047777" id="Path-33-Copy" stroke-width="7.25329878"></path>
                                        <path d="M14.7492253,41.8519941 L7.18950435,135.569053" id="Path-34-Copy" stroke-width="5.02524612"></path>
                                        <path d="M25.4622316,47.8348085 L18.3749932,120.092505" id="Path-35-Copy" stroke-width="13.3798668"></path>
                                        <path d="M72.6016281,44.1845059 L57.9546687,131.815824" id="Path-36" stroke-width="11.1520241"></path>
                                        <path d="M82.2156894,53.3348856 L71.3485905,111.536221" id="Path-37" stroke-width="5.02524612"></path>
                                        <path d="M100.116815,54.1161307 L76.0552719,116.563833" id="Path-38" stroke-width="16.1646702" transform="translate(88.086044, 85.339982) rotate(-13.000000) translate(-88.086044, -85.339982) "></path>
                                        <path d="M106.036953,54.8516287 L131.38886,128.648422" id="Path-22" stroke-width="14.4937881"></path>
                                        <path d="M122.408429,59.9608879 L140.827919,129.544309" id="Path-30" stroke-width="5.02524612"></path>
                                        <path d="M141.703995,61.9280462 L150.049659,143.667573" id="Path-31" stroke-width="16.1646702"></path>
                                        <path d="M153.3512,50.7538287 L158.622733,142.539701" id="Path-32" stroke-width="5.02524612"></path>
                                        <path d="M171.190054,17.6426007 C170.316404,51.3290422 169.694425,76.5956851 169.324117,93.4425293 C168.95381,110.289374 168.607445,129.076694 168.285025,149.804491" id="Path-33" stroke-width="18.3925118"></path>
                                        <path d="M182.181796,60.0938246 L190.52746,141.833352" id="Path-31-Copy" stroke-width="9.48114202"></path>
                                        <path d="M198.566787,48.7038162 L203.83832,140.489689" id="Path-32-Copy" stroke-width="16.1646691"></path>
                                        <path d="M216.405641,15.5925882 C215.531991,49.2790298 214.910012,74.5456727 214.539704,91.3925169 C214.169397,108.239361 213.823032,127.026682 213.500612,147.754478" id="Path-33-Copy-2" stroke-width="7.81025946"></path>
                                    </g>
                                </g>
                            </g>
                        </g>
                    </g>
                </g>
            </g>
        </g>
    </g>
</svg>