<svg width="826" height="1186" xmlns="http://www.w3.org/2000/svg" xmlns:xlink="http://www.w3.org/1999/xlink"><defs><path id="a" d="M0 0h815v1234H0z"/><path id="b" d="M0 0h826v1186H0z"/><filter x="-8.7%" y="-5.7%" width="117.4%" height="111.5%" filterUnits="objectBoundingBox" id="c"><feOffset dx="-20" dy="40" in="SourceAlpha" result="shadowOffsetOuter1"/><feColorMatrix values="0 0 0 0 0 0 0 0 0 0 0 0 0 0 0 0 0 0 0.02 0" in="shadowOffsetOuter1" result="shadowMatrixOuter1"/><feMerge><feMergeNode in="shadowMatrixOuter1"/><feMergeNode in="SourceGraphic"/></feMerge></filter><path id="e" d="M87.54 8l3.39 38.87-39.55 8.32 150.87 165.2L328.19 43.36l-27.74-6.38L301.81 0z"/><path d="M0 485.91c14.59-228.03 25.07-353.35 31.45-375.96 9.57-33.9 37.17-54.03 62.81-62.58 25.65-8.56 58.9-21.24 152.53-34.45 10.38-1.47 13.49-3.14 22.04 10.54 3.07 4.92 62.46 122.22 116.66 122.22 36.13 0 75-43.6 116.63-130.77 4.7-11.84 12.64-16.29 23.8-13.34 7.65 2.02 108.56 21.16 155.14 42.24 14.58 6.98 43.39 27.35 55.57 65.47 8.13 25.41 21.92 151.4 41.37 377.97-103.44 52.32-234.54 79.36-393.29 81.13C225.96 570.15 97.73 542.66 0 485.9z" id="g"/><path d="M6.51 6.92c19.72-10.71 32.84-8.36 39.35 7.05 4.99 11.79-.16 48.4-18.68 89.5-4.14 9.18-3.2 19.67-12.29 24.76-5.59 3.13-10.48 3.13-14.67 0l6.3-121.3z" id="i"/><path d="M45.43 7.44C24.25-3.86 10.15-1.38 3.15 14.86-2.2 27.28 4.94 59.5 24.85 102.8c4.44 9.67 1.82 27.1 11.58 32.47 6 3.3 11.25 3.3 15.77 0L45.43 7.44z" id="k"/><path d="M353.36 160.91c-49.27 55.03-89.23 92.72-119.88 113.06-110.24 73.16-138.1 57.63-161.45 58.45-87.65 3.06-154.87-293.6 172.7-330.08C461.39-14.54 541.76 74.38 533.54 139c-1.91 15.1-9.85 45.53-35.04 53.86-17 5.62-34.54-24.3-75.92-34.36-13.62-3.3-36.7-2.5-69.2 2.42z" id="m"/><path d="M.45 7.75c-.08 2.2 32.4 30.65 37.88 34.3 5.48 3.63 11.05 6.4 15.89 8.61 1.12.51 3.39.02 6.82-1.5 1.98 3.13 4.45 4.75 7.39 4.86 2.88.1 6.23-1.3 10.06-4.2 2.23 2.7 4.58 4.1 7.05 4.2 2.24.08 4.6-1.15 7.08-3.69 4.93.7 8.5.7 10.7 0 5.22-1.67 9.1-4.05 11.6-7.13.1 2.72 1.28 3.59 3.57 2.6 0 0 39.94-43.64 38.9-45.52-.3-.53-9.63 2.44-17.1 7.1-3.14 1.95-8.12 7.08-11.54 7.82-3.57.76-7.28-1.8-11.46-3.6-4.17-1.79-17.43 8.02-19.49 7.26a7.6 7.6 0 0 1-3.25-2.47c-2.28-6.62-6.39-1.83-10.39-1.7-5.76.2-12.27-2.83-13.73.49-2.38 5.4-6.3 6.18-8.34 4.92-2.89-1.77-3.64-2.19-10.53-4.26-2.06-.63-4.35-1.79-8.38-2.4-2.68-.4-2.76 2.05-.24 7.33a24.92 24.92 0 0 0-10.92-6.19c-1.48-.37-3.23.33-5.24 2.12C9.47 8.6.69 5.6.45 7.75z" id="o"/><path d="M4 27.2c.35 1.06 2.05 1.12 5.11.19 1.73 2.42 3.63 3.67 5.7 3.75 2.4.09 5-1 7.75-3.26 1.76 2.1 3.57 3.19 5.43 3.26 1.77.06 3.6-.89 5.46-2.85 4.93 1.64 7.67 1.64 8.24 0 2.66-7.74 3.14-17.12 1.44-28.13-2.74 2.92-4.63 4.18-5.69 3.79-1.39-.52-7.25 1.87-10.33 1.98-4.44.16-8.35-2.98-11.54-1.79-1.68.63-4.11 1.1-5.2.19C8.63 2.88 6.01 3.26.7 1.65-.9 1.17.3 15.92 4 27.2z" id="q"/><path d="M.36 15.27c49.38.57 83.95.34 103.74-.69C174.12 10.95 213.03 4.96 216.2.22c1.84-2.74-13.69 21.46-34.25 43.69-15.58 16.84-28.2 32.6-71.85 34.33-38.58 1.53-60.97-9.94-80.92-29.94C22.94 42.04 13.33 31.03.36 15.27z" id="s"/><path d="M85.16 143.1c46.13 0 76.23-31.24 83.53-78.68 8.35-54.3-41.07-63.91-83.95-63.3-40.6.58-83.12 11.63-83.12 63.3 0 43.45 37.4 78.68 83.54 78.68z" id="u"/><path d="M81.77 143.62c44.33 0 80.27-35.39 80.27-78.68 0-54.7-39.47-63.9-80.67-63.3-39 .58-90.7 12.4-79.87 63.3 8.79 41.3 35.94 78.68 80.27 78.68z" id="w"/></defs><g fill="none" fill-rule="evenodd"><mask id="d" fill="#fff"><use xlink:href="#b"/></mask><g filter="url(#c)" mask="url(#d)"><g transform="translate(216.4 728.02)"><path d="M63.73 48.57C119.75 34.94 159.5 27.42 182.98 26c43.53-2.61 90.76 1.31 141.71 11.78l-5.74 3.85c-55.28-10.42-98.62-14.67-130.02-12.75-22.72 3.17-63.6 11.02-122.67 23.54l-2.53-3.85z" fill="#888"/><mask id="f" fill="#fff"><use xlink:href="#e"/></mask><use fill="#ECD6C6" xlink:href="#e"/><use fill-opacity=".02" fill="#000" xlink:href="#e"/><path fill="#000" opacity=".03" mask="url(#f)" d="M193.8 85.63L372.52-15.34 51.38 11.3z"/><path d="M169.02 134.44c10.5 9.58 18.32 14.37 23.45 14.37 5.13 0 12.95-4.79 23.46-14.37-10.7 4.8-18.51 7.19-23.46 7.19-4.94 0-12.76-2.4-23.45-7.19z" fill="#000" opacity=".07" mask="url(#f)"/></g><g transform="translate(24.26 764.09)"><mask id="h" fill="#fff"><use xlink:href="#g"/></mask><use fill="#999" xlink:href="#g"/><path d="M252.22 46.37c-31.5 7.34-56.13 11.44-73.86 12.3-17.73.87-42.11-.84-73.15-5.11l147.01-7.19z" fill="#949494" mask="url(#h)" transform="rotate(-4 178.72 52.63)"/><path d="M658.22 44.37c-31.5 7.34-56.13 11.44-73.86 12.3-17.73.87-42.11-.84-73.15-5.11l147.01-7.19z" fill="#949494" mask="url(#h)" transform="scale(-1 1) rotate(-4 0 16794.7)"/><path d="M622.34 487.06c11.43-8.53 17.28-24.42 17.56-47.65.28-23.23-2.77-110.47-9.14-261.72 12.89 103.4 21.87 162.3 26.94 176.68 5.08 14.38 10.09 26.24 15.04 35.57l10.15 95-60.55 2.12z" fill-opacity=".03" fill="#000" mask="url(#h)" transform="scale(-1 1) rotate(2 0 -37055.95)"/><path d="M655.85 75.4c29.3 28.73 45.08 50.5 47.36 65.33 2.28 14.82 7.18 136.64 14.7 365.45" stroke="#000" stroke-width="3.85" opacity=".1" mask="url(#h)" transform="matrix(-1 0 0 1 1373.75 0)"/><path d="M327.74 371.38c22.28-12.32 34.55-21.46 36.79-27.42 2.24-5.97 8.43-45.99 18.57-120.05 7.72 68.77 13.05 107.34 15.97 115.73 2.93 8.38 15.33 20.62 37.22 36.72-23.07-8.01-40.8-12.02-53.19-12.02-12.38 0-30.84 2.35-55.36 7.04z" fill="#969696" mask="url(#h)"/><path d="M103.67 486.74c4.76-8.3 7.28-24.07 7.56-47.3.28-23.24-6.92-109.45-21.6-258.63 18.53 101.43 30.33 159.34 35.4 173.72 5.08 14.38 11.42 26.2 19.04 35.44l15.56 94.81-55.96 1.96z" fill-opacity=".03" fill="#000" mask="url(#h)" transform="rotate(2 124.63 333.77)"/><path d="M51.39 75.4c25.37 28.73 39.2 50.5 41.48 65.33 2.28 14.82 13.08 129.88 32.42 345.18" stroke="#000" stroke-width="3.85" opacity=".1" mask="url(#h)"/><path d="M235.88-1.9c16.99 27.86 29 47.42 36.03 58.67 14.67 23.47 27.9 45.13 35.72 55.97 41.4 57.39 67.08 53.67 77.67 53.67 10.69 0 47.15-7.56 87.53-68.04C485.6 79.24 504.46 43.52 529.41-8.8" stroke="#000" stroke-width="1.96" opacity=".05" stroke-dasharray="9.811616897583008,3.924646615982056" mask="url(#h)"/></g><g><path d="M410.23 809.42c40.62.85 72.71-40.79 123.05-96.74 39.65-44.07 104.54-138.21 109.24-182.95 48.4-506.3 14.32-450.18-206.22-457.88-220.55-7.7-254.67-74.45-238.94 457.88 3.57 47.91 57.26 139.18 86.9 181.77 48.93 70.28 84.49 94.29 125.97 97.92z" fill="#ECD6C6"/><g transform="rotate(2 -10318.3 18779)"><mask id="j" fill="#fff"><use xlink:href="#i"/></mask><use fill="#ECD6C6" xlink:href="#i"/><path d="M25.92 39.14C16.35 25.04 7.72 21.56.02 28.67c-2.25 2.1.1 35.7 14.63 65.9 1.63 3.39 8.24 5.44 12.02 10.57.78 1.05 2.59 3.74 5.43 8.07l-6.18-74.07z" fill="#000" opacity=".03" mask="url(#j)" transform="scale(-1 1) rotate(1 0 -1729.23)"/><path d="M3.82 31.22c11.94-11.29 21.16-13.27 27.66-5.94 6.5 7.32 8.48 10.35 5.96 9.1l-3.95-4.13c1.99 7.21 1.02 16.96-2.91 29.25-5.9 18.43-12.02 35.38-12.98 34.76-.96-.63 6.54-13.68 11.8-39.88 2.04-10.12 2.43-18.9 1.18-26.33-3.78-2.37-6.92-3.29-9.42-2.77-5.66 1.16-11.44 6.5-17.34 16.03V31.2zM2.6 54.2c8.16-4.82 14.02-5.65 17.58-2.51 2.65 2.33-2.3.4-10.1 2.5-1.79.49-4.28 2.58-7.48 6.3v-6.3zM1.55 73.18c0-.15.89-.46 2.64-.91 2.62-.69 2.97 3.59 3.6 6.21.41 1.75-1.5 3.9-5.76 6.44l-.48-11.74z" fill="#000" opacity=".1" mask="url(#j)"/></g><g transform="rotate(1 -20475 8657.83)"><mask id="l" fill="#fff"><use xlink:href="#k"/></mask><use fill="#ECD6C6" transform="rotate(1 26.81 69.12)" xlink:href="#k"/><path d="M47.23 36.25C36.58 21.5 27.7 18.26 20.58 26.56c-4.17 4.87 3.08 36.57 15.98 64.62 1.6 3.5 5.08 5.71 11.1 12.95.78.95 2.17 3.5 4.14 7.65l-4.57-75.53z" fill="#000" opacity=".03" mask="url(#l)" transform="rotate(1 35.6 66.93)"/><path d="M16.41 28.5c11.95-11.28 21.17-13.26 27.67-5.93 6.5 7.32 8.48 10.36 5.96 9.1l-3.96-4.13c2 7.22 1.02 16.97-2.9 29.25-5.9 18.43-12.03 35.39-12.98 34.76-.96-.63 6.53-13.68 11.8-39.88 2.04-10.12 2.43-18.9 1.17-26.33-3.78-2.36-6.92-3.29-9.42-2.77-5.66 1.16-11.44 6.5-17.34 16.03V28.5zm-1.2 22.99c8.15-4.81 14.01-5.65 17.57-2.51 2.66 2.34-2.3.4-10.1 2.5-1.78.5-4.27 2.59-7.48 6.3v-6.3zm-1.06 18.98c0-.15.88-.45 2.63-.91 2.63-.68 2.97 3.6 3.6 6.21.42 1.75-1.5 3.9-5.76 6.44l-.47-11.74z" fill="#000" opacity=".1" mask="url(#l)" transform="scale(-1 1) rotate(1 0 -3683.27)"/><g mask="url(#l)"><g transform="translate(32.92 114.9)"><ellipse fill="#EEE" transform="rotate(-22 6.29 7.5)" cx="6.29" cy="7.51" rx="3.66" ry="4.62"/><ellipse fill="#F6F6F6" transform="rotate(-22 5.36 7.92)" cx="5.36" cy="7.92" rx="3.66" ry="4.62"/></g></g></g><path d="M393.07 571.55c7.45 4.56 13.18 6.91 17.2 7.05 4.02.15 9.9-1.8 17.65-5.83-7.65 1.88-13.5 2.75-17.53 2.61-4.04-.14-9.81-1.41-17.32-3.83z" fill="#D3C0B1"/><path d="M372.81 532.7c5.67-2.83 9.73-3.76 12.16-2.81 2.44.95 6.67 4.6 12.68 10.93-7.68-.74-12.83-1.53-15.43-2.38-2.6-.85-5.73-2.77-9.4-5.74zM448.73 535.35c-5.46-3.21-9.44-4.43-11.93-3.65-2.5.78-6.97 4.12-13.41 10.02 7.71-.2 12.9-.63 15.55-1.3 2.66-.67 5.92-2.36 9.8-5.07z" fill="#373737" opacity=".5"/><path d="M458.35 508.59c13.03 14.84 15.22 24.23 6.58 28.18-8.64 3.94-14.32 5.87-17.03 5.78 10.37-5.31 16.14-9.86 17.3-13.64 1.17-3.79-1.12-10.56-6.85-20.32z" fill="#373737" opacity=".35"/><path d="M394.1 511.39c4.1-2.44 8.12 6.8 14.75 7.03 6.62.23 10.96-9.16 19.48-5.84 2.6 6.61-2.44 21.84-20.01 20.95-17.57-.88-14.39-17.05-14.21-22.14z" fill="#FFF" opacity=".35"/><path d="M365.72 505.35c-14.03 13.9-16.87 23.11-8.52 27.65 8.34 4.54 13.87 6.86 16.58 6.96-9.97-6.02-15.41-10.96-16.31-14.82-.9-3.85 1.85-10.45 8.25-19.79z" fill="#373737" opacity=".35"/><path d="M646.13 163.81c-45.77 21.62-20.06 51.17 0 167.82 2.09 12.15-2.57 72.09 0 94.9.73 6.5 4.4 6.5 11 0l8.7-107.2c5.98-117.86-.6-169.7-19.7-155.52zM201.62 347.74c-1.2 9.74-.9 57.48-2.54 72.38-.99 8.94-3.27 12.48-6.84 10.62l-12.43-96.4c-13.01-92.93-14.97-143.48-5.86-151.64 29.79-26.7 42.92 40.14 27.67 165.04z" fill="#3D3D3D"/><g transform="rotate(2 243.73 3818.72)"><mask id="n" fill="#fff"><use xlink:href="#m"/></mask><use fill="#333" xlink:href="#m"/><path d="M465.45 178.89c-16.7-11.6-26.57-19.13-29.61-22.62-11.7-13.38-19.8-20.06-29.59-21.3-17.1-2.17-34.87 6.6-53.27 26.3l112.47 17.62z" fill="#000" opacity=".3" mask="url(#n)"/><g opacity=".3" mask="url(#n)"><path d="M268.28 101.24c-74.85 79.28-132.16 125.2-171.94 137.79-39.78 12.58-72.09 10.27-96.93-6.94" stroke="#262626" stroke-width="25.76"/><path d="M241.04 73C140.54 174.53 65.6 222.9 16.26 218.07c-49.35-4.83-73.95-21.88-73.79-51.14" stroke="#262626" stroke-width="48.27"/><path d="M295 123.84C191.5 216.07 120.56 267.65 82.15 278.6c-38.4 10.95-70.86-5.1-97.38-48.14" stroke="#262626" stroke-width="13.95"/><path d="M325.61 145.38c-88.94 82.53-166.78 138.36-233.5 167.48-37.43 15.1-66.72 4-87.85-33.26" stroke="#262626" stroke-width="48.27"/><path d="M543.68 149.34c-67.51-72.62-88.2-112.06-62.05-118.31" stroke="#262626" stroke-width="37.02"/><path d="M50.4 65.96c-29.01 37.36-47 77.1-53.97 119.2-8.18 49.39 9.03 99.2-29.3 100.53" stroke="#2A2A2A" stroke-width="8.89"/><path d="M392.22 5.6c-5.96 22.15.29 48.98 18.74 80.5 18.45 31.5 57.72 70.08 117.8 115.72" stroke="#262626" stroke-width="39.38"/><path d="M479.73 140.4c17.62 10.15 29.58 16.5 35.87 19.09a85.26 85.26 0 0 0 20.83 5.44" stroke="#262626" stroke-width="5.89"/><path d="M534.24 168.39c-7.48 19.98-57.93 19.32-151.34-1.97C242.79 134.47 274.38 29.43 101.04 29.43" stroke="#262626" stroke-width="8.89"/><path d="M522.2 185.74c-35.79-5.59-79.39-22.92-130.8-51.99-77.11-43.6-93.63-164.89-122.25-162.13" stroke="#262626" stroke-width="18.45"/><path d="M347.21 4.2c5.64 33.41 12.27 57.71 19.9 72.9 7.61 15.2 25.8 39.84 54.57 73.93" stroke="#262626" stroke-width="20.14"/><path d="M543.85 163.72C409.59 76.98 389.2 18.7 482.7-11.14M205.26 47.72C131.4 141.82 68.9 191.67 17.77 197.28c-51.13 5.61-57.06 1.88-17.78-11.2" stroke="#262626" stroke-width="8.89"/><path d="M160.26 29.37C120.12 106.09 74 153.99 21.9 173.09c-52.09 19.1-61.48 21.65-28.16 7.66" stroke="#262626" stroke-width="42.64"/><path d="M102.52 48c-28.56 45.65-53.35 77.83-74.38 96.53-21.02 18.7-30.46 25.55-28.3 20.55" stroke="#262626" stroke-width="8.89"/><path d="M184.13-10.12c42.28 25.7 68.22 43.49 77.81 53.35C294.17 76.38 310.11 110.8 337 130c33.13 23.67 48.96 35.21 47.5 34.63" stroke="#262626" stroke-width="39.38"/></g><path d="M113.78 36.44c-51.28 63.34-67.8 100.77-49.57 112.3 27.35 17.28 65.73-33.86 81.98-21.1 16.25 12.75-8.43 73.2 8.82 79.88 17.26 6.7 32.12-5.67 44.26-6.1 12.15-.41-5.47 21.84 17.04 32.8 15 7.3 60.2-14.4 135.57-65.09l-99.7 104.32c-52.75 24.54-84.08 32.93-93.99 25.17-14.85-11.64 11.05-36.96 4.68-42.82-6.38-5.86-49.48 47.98-69.5 29.23-20.01-18.75 7.85-53.96-7.06-63.07-14.9-9.12-10.62 7.61-50.75 9.01-26.74.94-42.75-27.64-48.02-85.73 33.8-41.6 61.13-71.39 82.02-89.39 20.88-18 35.62-24.47 44.22-19.41z" fill="#FFF" opacity=".07" mask="url(#n)" transform="rotate(-2 169.71 168.1)"/><path d="M389.5 158.34c-3.63-6.6-1.85-12.39 5.35-17.35 5.13-3.53 9.92-5.43 14.39-5.7-10.24-1.26-19.16-.01-26.75 3.74a69.97 69.97 0 0 0-29.88 22.94l36.9-3.63z" fill="#000" opacity=".1" mask="url(#n)"/></g><g fill="#373737"><path d="M364.95 317.69c.54 5.93.54 10.43 0 13.49-.53 3.05-2.01 7-4.44 11.83-38.1 1-69.89 4.38-95.37 10.15-17.2 3.9-30 17.24-34.61 14.95-3.75-1.86.97-10.23 14.16-25.1 19.95-8.43 34.44-13.67 43.48-15.73 9.03-2.06 34.63-5.26 76.78-9.6zM462.28 312.8c-2.38 5.46-3.36 9.87-2.97 13.25.4 3.37 2.5 8.4 6.3 15.06 18.88.45 39.1 2.16 60.63 5.12 56.94 7.85 75.63 27.9 79.24 28.12 3.6.23.78-7.66-8.44-23.66-8.07-7.15-17.85-13-29.34-17.56-18.33-6.54-53.47-13.32-105.42-20.32z"/></g><g fill="#373737"><path d="M347.55 400.26c-4.37-8.63-13.08-15.1-26.15-19.37-13.06-4.28-28.65 2.32-46.78 19.81 17-13.7 31.2-19.31 42.6-16.82 11.41 2.49 21.52 7.95 30.33 16.38z" opacity=".2"/><path d="M348.04 399.9c.94 10.9-16.03-.34-38.26 3.22-9.57 1.53-28.25 20.84-32.22 10.32-.51-1.36 6.46-15.9 20.83-21.63 25.7-10.26 48.69-3.2 49.65 8.09zM477.46 408.45c-.25 10.95 15.97-1.58 38.37.25 9.64.8 29.49 18.6 32.79 7.81.42-1.4-7.44-15.36-22.14-19.97-26.28-8.25-48.77.58-49.02 11.91z"/><path d="M477.97 408.72c.78-9.17 10-16 27.66-20.48s32.76 3.2 45.29 23.03c-13.03-16.45-26.8-23.04-41.33-19.75-14.52 3.28-25.06 9.01-31.62 17.2z" opacity=".2"/></g><g transform="rotate(2 -21690.02 9844.68)"><mask id="p" fill="#fff"><use xlink:href="#o"/></mask><use fill="#4C4C4C" xlink:href="#o"/><g opacity=".1" mask="url(#p)" stroke="#2A2A2A"><path d="M-11.97-23.37l47.34 72.85" stroke-width="5.92"/><path d="M15.66-22.05l25.7 74.83M42.64-20.88l11.65 87.9" stroke-width="11.55"/><path d="M58.47-33.45l7.35 98.7" stroke-width="5.92"/><path d="M82.1-69.77C80.88-33.54 80-6.37 79.5 11.75c-.52 18.11-1 38.32-1.45 60.6" stroke-width="21.68"/><path d="M99.83-27.15L89.28 73.63" stroke-width="5.92"/><path d="M115-21.27l-9.9 77.7" stroke-width="17.18"/><path d="M136.75-24.05L116.3 70.18" stroke-width="5.92"/><path d="M150.5-14.87l-15.17 62.59" stroke-width="17.16"/><path d="M175.5-14.26l-33.58 67.15" stroke-width="5.92"/></g></g><g transform="rotate(2 -19276.39 11474.28)"><mask id="r" fill="#fff"><use xlink:href="#q"/></mask><use fill="#4C4C4C" xlink:href="#q"/><g opacity=".1" mask="url(#r)" stroke="#2A2A2A"><path d="M5.52-36.45l5.67 76.33" stroke-width="7.91"/><path d="M25.34-64.6c-.94 28.02-1.6 49.04-2 63.05-.4 14-.77 29.63-1.12 46.87" stroke-width="11.85"/><path d="M39-31.64L30.87 46.3" stroke-width="7.35"/></g></g><path d="M371.34 673.09c15.97 10.48 30.13 15.72 42.46 15.72 12.34 0 24.85-5.44 37.54-16.3-18.03 4.87-31.44 7.35-40.25 7.41-8.8.06-22.05-2.21-39.75-6.83z" fill="#D3C0B1"/><g transform="rotate(2 -16326.01 9151.86)"><mask id="t" fill="#fff"><use xlink:href="#s"/></mask><use fill="#FFF" xlink:href="#s"/><g opacity=".36" mask="url(#t)" stroke="#979797" stroke-width="1.25"><path d="M8.37 27.82c42.4 3.62 74.9 4.84 97.48 3.66 38.75-2.03 72.71-7.36 101.9-15.97M9.61 56.2c42.34 4.36 74.8 6.15 97.4 5.36C145.8 60.2 179.79 53.78 209 42.28"/><path d="M82.18 29.92a.5.5 0 0 0-.5.5v2.42c0 .28.22.5.5.5h2.9a.5.5 0 0 0 .5-.5v-2.42a.5.5 0 0 0-.5-.5h-2.9zM121.26 28.9a.5.5 0 0 0-.47.53l.17 2.42a.5.5 0 0 0 .54.46l2.9-.2a.5.5 0 0 0 .46-.54l-.17-2.41a.5.5 0 0 0-.53-.46l-2.9.2zM162.26 24.43a.5.5 0 0 0-.42.57l.33 2.4c.04.27.3.46.57.42l2.88-.4a.5.5 0 0 0 .43-.57l-.34-2.4a.5.5 0 0 0-.57-.42l-2.88.4zM203 16.31a.5.5 0 0 0-.33.63l.7 2.31a.5.5 0 0 0 .63.34l2.78-.86a.5.5 0 0 0 .34-.62l-.71-2.31a.5.5 0 0 0-.63-.34l-2.78.85zM44.01 28.06a.5.5 0 0 0-.53.47l-.17 2.4a.5.5 0 0 0 .46.54l2.9.2a.5.5 0 0 0 .54-.46l.17-2.41a.5.5 0 0 0-.46-.54l-2.9-.2zM7.34 23.8a.5.5 0 0 0-.57.41l-.38 2.4a.5.5 0 0 0 .42.57l2.87.45a.5.5 0 0 0 .57-.41l.38-2.4a.5.5 0 0 0-.41-.57l-2.88-.45zM86.04 59.97a.5.5 0 0 0-.5.5v2.42c0 .28.22.5.5.5h2.9a.5.5 0 0 0 .5-.5v-2.42a.5.5 0 0 0-.5-.5h-2.9zM122 59.07a.5.5 0 0 0-.46.54l.2 2.4a.5.5 0 0 0 .55.46l2.9-.25a.5.5 0 0 0 .45-.54l-.2-2.41a.5.5 0 0 0-.55-.46l-2.9.26zM157.87 54.72a.5.5 0 0 0-.43.57l.34 2.4c.04.27.3.46.56.42l2.89-.4a.5.5 0 0 0 .42-.57l-.33-2.4a.5.5 0 0 0-.57-.42l-2.88.4zM48.83 57.14a.5.5 0 0 0-.52.48l-.13 2.41a.5.5 0 0 0 .47.53l2.91.15a.5.5 0 0 0 .53-.47l.12-2.42a.5.5 0 0 0-.47-.52l-2.9-.16z" fill="#DEDEDE"/></g><path d="M10.86 37.8l2.56.88C53 45.45 82.06 48.76 100.64 48.6c18.57-.15 51.89-5.14 99.95-14.96l3.84-1.7C155.78 41.41 121 46.26 100.08 46.5c-20.92.23-50.66-2.66-89.22-8.69z" fill="#000" opacity=".3" mask="url(#t)"/></g><g><g transform="rotate(2 -10141.26 6622.56)"><mask id="v" fill="#fff"><use xlink:href="#u"/></mask><path stroke="#676767" stroke-width="5.64" d="M85.16 145.92c-47.66 0-86.36-36.45-86.36-81.5 0-25.1 9.72-42.58 27.72-53.23C41.18 2.5 60.65-1.35 84.7-1.7c25.93-.37 47.18 2.99 62.58 11.4 19.44 10.63 28.25 28.81 24.2 55.14-7.7 50-39.82 81.08-86.32 81.08z"/><path fill="#FFF" opacity=".1" mask="url(#v)" d="M-4.56 113.06L79.13-10.9h24.99L-3.38 145.8l11.04 10.6L125.1-12.45h50.02L56.2 187.11l11.15 5.4L180.86 6.92l8.08-.27L74.42 192.27l107.8-9.39 27.22-242.37L.52-40z"/></g><g transform="rotate(2 -10248.26 12752.58)"><mask id="x" fill="#fff"><use xlink:href="#w"/></mask><path stroke="#676767" stroke-width="5.64" d="M81.77 146.44c-42.14 0-72.88-33.22-83.03-80.92-5.25-24.67 3.22-42.49 22.6-53.55C36.51 3.3 57.7-.83 81.32-1.18c24.62-.36 43.25 2.84 57.3 11.31 17.16 10.36 26.25 28.23 26.25 54.8 0 44.93-37.27 81.5-83.1 81.5z"/><path fill="#FFF" opacity=".1" mask="url(#x)" d="M-20.7 110.87L62.85-18.05H87.8L-19.5 144.92l31 10.32 117.24-175.6 29.95.7L39.95 187.88l11.13 5.62L164.41.49l6.08-.21L56.15 193.3l109.63-9.83 27.17-252.06L-15.63-48.3z"/></g><path d="M395.3 418.71c9.49-2.52 16.45-3.71 20.9-3.56 4.45.16 11.22 1.83 20.32 5l-.28 7.87c-9.1-2.9-15.87-4.43-20.33-4.59-4.46-.15-11.42.9-20.88 3.16l.28-7.88zM228.44 399.63l-31.24-36.17c-1.52-.9-4.19-1.56-8-2a38.89 38.89 0 0 0-10 0l15.25 6.5 30.99 36.59 3-4.92zM597.54 406.75l55.2-30.59a33.06 33.06 0 0 1 17.51-2.38l-14.56 7.28L600 412.43l-2.47-5.68z" fill="#666"/></g></g></g></g></svg>