<svg width="810" height="1288" xmlns="http://www.w3.org/2000/svg" xmlns:xlink="http://www.w3.org/1999/xlink"><defs><path id="a" d="M0 0h811v1291H0z"/><filter x="-5%" y="-1.5%" width="107.6%" height="106.2%" filterUnits="objectBoundingBox" id="b"><feOffset dx="-20" dy="41" in="SourceAlpha" result="shadowOffsetOuter1"/><feColorMatrix values="0 0 0 0 0 0 0 0 0 0 0 0 0 0 0 0 0 0 0.02 0" in="shadowOffsetOuter1" result="shadowMatrixOuter1"/><feMerge><feMergeNode in="shadowMatrixOuter1"/><feMergeNode in="SourceGraphic"/></feMerge></filter><path d="M238 168.9c105.1 0 192.2-31.5 192.2-56.2 0-24.7-83.9-38.1-189-38.1-105.3 0-191.9 13.4-191.9 38.1 0 24.7 83.4 56.2 188.6 56.2z" id="d"/><path d="M134.2 0l3.4 113.8c-15.4 2.6-41.7 8.4-78.8 17.1-37 8.8-56.4 71.3-58 187.7l486.7-5.2C482.1 193.3 466.3 130.2 440 124c-26.3-6-57.9-12.8-94.8-20.1l1.4-104H134.2z" id="e"/><path d="M.4 482.6C7.8 255.8 14.6 131.3 21 108.9c9.4-33.6 36.8-53.5 62.2-62 25.4-8.5 58.3-21 151-34.1 10.3-1.5 13.4-3.1 21.9 10.4 3 5 86.7 143.2 115.5 142.9 19.2-.2 57.7-50.7 115.5-151.3C491.8 3 499.6-1.4 510.7 1.6c7.6 2 107.5 21 153.6 41.8 14.5 6.9 43 27 55 64.8 8.1 25.2 15.5 150 22.3 374.4-90 51.8-213.5 78.6-370.8 80.3-157.2 1.8-280.7-25-370.4-80.3z" id="g"/><path d="M.4 566.8C15.5 280 26.3 125.5 32.6 103.1 42 69.5 69.4 55.4 94.8 46.9c17-5.6 65.8-17.6 146.6-36 20.5-3.2 33.6-.3 39.3 8.7 2.4 4 29.5 104.4 42.6 266 4 48.8-1.2 134.8-15.6 258 45.6 8.6 78.8 12.9 99.5 12.9 20.8 0 53-4.3 96.8-13-18.6-124-25.7-217.3-21.3-280 6.6-94.2 44.7-239 48.6-253.7 2.6-9.8 28-11.7 52.7-6.3 81.6 17.7 92 24.2 135.8 38.4 16 5.1 48 23.4 60 61.2 8.1 25.1 18.3 179.7 30.6 463.7-111.5-1.7-246-1.7-403.2 0-157.2 1.8-292.8 1.8-406.8 0z" id="i"/><filter x="-84.4%" y="-2.3%" width="225%" height="105.1%" filterUnits="objectBoundingBox" id="k"><feOffset dx="-7" dy="2" in="SourceAlpha" result="shadowOffsetOuter1"/><feColorMatrix values="0 0 0 0 0 0 0 0 0 0 0 0 0 0 0 0 0 0 0.03 0" in="shadowOffsetOuter1" result="shadowMatrixOuter1"/><feMerge><feMergeNode in="shadowMatrixOuter1"/><feMergeNode in="SourceGraphic"/></feMerge></filter><filter x="-71.1%" y="-2.3%" width="200%" height="105.1%" filterUnits="objectBoundingBox" id="l"><feOffset dx="-7" dy="2" in="SourceAlpha" result="shadowOffsetOuter1"/><feColorMatrix values="0 0 0 0 0 0 0 0 0 0 0 0 0 0 0 0 0 0 0.03 0" in="shadowOffsetOuter1" result="shadowMatrixOuter1"/><feMerge><feMergeNode in="shadowMatrixOuter1"/><feMergeNode in="SourceGraphic"/></feMerge></filter><path d="M309.5 806.6c40.2-.5 72-44.6 120-101.8 37.7-45 96.8-147.5 100-192 30.3-502.8-1.5-446-220-446-218.6 0-254.7-65-220.7 461.4 5.2 47.3 60.7 139.4 91.5 180.5 50.9 67.9 88 95.8 129.2 98z" id="m"/><path d="M6.4 6.9c19.6-10.7 32.6-8.3 39 7 5 11.6-.1 47.9-18.5 88.6-4 9-3.2 19.5-12.2 24.5-5.5 3.1-10.3 3.1-14.5 0L6.4 6.9z" id="n"/><path d="M357 159.4c-48.8 54.5-88.4 91.8-118.8 112-109.1 72.4-138 62.6-159.9 57.8C-24.7 306.8-75 38.4 249.3 2.3c162-15.3 294.3 71.4 286.1 135.4-1.9 14.9-9.7 45-34.7 53.3-16.8 5.6-34.2-24-75.2-34-13.5-3.3-36.3-2.5-68.5 2.4z" id="p"/><path d="M45 7.4C24-3.8 10-1.4 3 14.7-2.2 27 5 59 24.6 101.8c4.4 9.6 1.8 26.9 11.5 32.2 6 3.2 11.1 3.2 15.6 0L45 7.4z" id="r"/><path d="M.4 7.7C.4 9.8 32.5 38 38 41.7c5.4 3.5 11 6.3 15.7 8.5 1.1.5 3.4 0 6.7-1.5 2 3 4.5 4.7 7.4 4.8 2.8.1 6.1-1.3 10-4.2 2.1 2.7 4.5 4.1 7 4.2 2.1 0 4.5-1.1 7-3.6 4.8.6 8.3.6 10.5 0 5.2-1.7 9-4 11.5-7.1.1 2.7 1.3 3.5 3.6 2.6 0 0 39.5-43.3 38.5-45.1a49 49 0 0 0-17 7c-3 2-8 7-11.4 7.8-3.5.7-7.2-1.8-11.3-3.6-4.2-1.8-17.3 8-19.3 7.2a7.5 7.5 0 0 1-3.3-2.5c-2.2-6.5-6.3-1.8-10.2-1.6-5.8.2-12.2-2.9-13.6.4-2.4 5.4-6.3 6.2-8.3 5A32.9 32.9 0 0 0 51 15.6c-2-.6-4.3-1.8-8.3-2.4-2.7-.4-2.8 2-.3 7.3-3.3-3.1-7-5.2-10.8-6.2-1.5-.3-3.2.4-5.2 2.1C9.4 8.5.7 5.5.5 7.7z" id="t"/><path d="M4 27c.3 1 2 1 5 .1 1.7 2.4 3.6 3.7 5.7 3.7 2.4.1 5-1 7.6-3.2 1.8 2.1 3.6 3.2 5.4 3.2 1.8.1 3.6-.8 5.4-2.8 5 1.6 7.6 1.6 8.2 0 2.6-7.6 3.1-17 1.4-27.8C40 3 38.1 4.3 37.1 3.9c-1.4-.5-7.2 1.9-10.2 2-4.4.1-8.3-3-11.5-1.8-1.6.6-4 1.1-5.1.2C8.6 2.9 6 3.3.7 1.6-.9 1.2.3 15.8 4 27z" id="v"/><path d="M.4 15.1c48.9.6 83.1.4 102.7-.7C172.4 10.8 211 5 214.1.2c1.8-2.7-13.5 21.3-33.9 43.3-15.4 16.7-28 32.3-71.2 34C70.8 79 48.7 67.6 29 47.8A516.7 516.7 0 0 1 .4 15.1z" id="x"/><rect id="z" x="75.2" y="14.7" width="5.1" height="4.6" rx="1.1"/><rect id="A" x="114" y="13.6" width="5.1" height="4.6" rx="1.1"/><rect id="B" x="154.7" y="9.1" width="5.1" height="4.6" rx="1.1"/><rect id="C" x="195.3" y=".7" width="5.1" height="4.6" rx="1.1"/><rect id="D" x="37.2" y="13" width="5.1" height="4.6" rx="1.1"/><rect id="E" x=".8" y="8.9" width="5.1" height="4.6" rx="1.1"/><rect id="F" x="79" y="44.5" width="5.1" height="4.6" rx="1.1"/><rect id="G" x="114.7" y="43.5" width="5.1" height="4.6" rx="1.1"/><rect id="H" x="150.4" y="39.1" width="5.1" height="4.6" rx="1.1"/><rect id="I" x="42" y="41.8" width="5.1" height="4.6" rx="1.1"/><path d="M102.4 2.6a160.9 160.9 0 0 1 0 15.4c-11.2.1-19.6.5-25 1.2-5.6.7-31 4.5-76.2 11.5A6.7 6.7 0 0 1 .8 26a7.5 7.5 0 0 1 2.8-4.2c31.5-7 55.2-12 71-14.7 15.8-2.8 25-4.3 27.8-4.4zm5.7-.9c14-.9 24.6-1.3 31.6-1.4 7-.1 33.3.2 78.8.9 1.7.7 3 1.9 4 3.7.8 1.8.9 3.5.2 5L166 13.7c-17.4.6-30.4 1.2-39.1 1.8-8.8.6-14.6 1.3-17.4 2.1a77.2 77.2 0 0 1-1.4-15.9z" id="J"/></defs><g transform="translate(0 -3)" fill="none" fill-rule="evenodd"><mask id="c" fill="#fff"><use xlink:href="#a"/></mask><g filter="url(#b)" mask="url(#c)"><g transform="translate(169.2 653.7)"><g transform="rotate(-2 239.8 121.7)"><use fill="#414850" xlink:href="#d"/><path stroke="#5B626C" stroke-width="17.5" d="M238 160.1c48.6 0 96.2-6.9 133-18.4a164.2 164.2 0 0 0 39.2-17.1c4.2-2.8 7.3-5.4 9.3-7.9 1.4-1.8 2-3.1 2-4 0-2-2.8-5-10-8.5-8.4-4.3-21.4-8-38-11.2a759.1 759.1 0 0 0-132.4-9.7A781 781 0 0 0 107.4 93c-17 3.1-30.3 7-39.1 11.2-7.3 3.6-10.2 6.7-10.2 8.5 0 2.5 3.4 7 10.8 12 8.8 6 21.8 11.8 38 17a443.5 443.5 0 0 0 131 18.4z"/><path d="M238 167c49.3 0 97.6-7 135-18.7 34.4-10.8 55.4-24.5 55.4-35.6C428.4 91 351 76.4 241 76.4c-110.6 0-190 14.7-190 36.3 0 11.1 20.2 24.8 53.6 35.6A450.3 450.3 0 0 0 238 167z"/></g><path d="M110.7 115.5c55.4-13.5 94.8-21 118-22.4 43.2-2.6 90 1.3 140.4 11.7l-5.7 3.8C308.7 98.3 265.8 94 234.7 95.9c-22.5 3.2-63 11-121.5 23.4l-2.5-3.8z" fill="#E4E4E4"/><mask id="f" fill="#fff"><use xlink:href="#e"/></mask><use fill="#E9D2C2" xlink:href="#e"/><path d="M134.9.6l3.3 113.7h-.5C122.3 117 96 122.9 59 131.6 22.3 140.2 3 202.3 1.4 318l485.5-5.3c-5.4-119.2-21.3-182-47.1-188-26.3-6-58-12.8-94.8-20.1l-.5-.1L345.8.6h-211z"/><path d="M215 200.5c10.3 9.5 18 14.2 23.2 14.2 5 0 12.8-4.7 23.2-14.2a66.1 66.1 0 0 1-23.2 7.1c-5 0-12.7-2.4-23.3-7.1z" fill="#000" opacity=".1" mask="url(#f)"/></g><g transform="translate(36.7 756.8)"><mask id="h" fill="#fff"><use xlink:href="#g"/></mask><use fill="#F2F3F5" xlink:href="#g"/><path fill="none" mask="url(#h)" d="M640.6 501.3l12-323.3 24.1 323.3z"/><path fill="none" mask="url(#h)" transform="rotate(2 82.1 339.8)" d="M60.9 501.6L78.2 178 103.4 500z"/><path d="M40.7 74.7c25.1 28.4 38.8 50 41 64.7 2.3 14.7 2.3 133.8 0 357.5" stroke="#000" stroke-width="3.8" opacity=".1" mask="url(#h)"/><path d="M652.2 74.7c29 28.4 44.7 50 47 64.7 2.2 14.7 2.2 133.8 0 357.5" stroke="#000" stroke-width="3.8" opacity=".1" mask="url(#h)" transform="matrix(-1 0 0 1 1353 0)"/></g><g transform="translate(.3 752.9)"><mask id="j" fill="#fff"><use xlink:href="#i"/></mask><use fill="#626A74" xlink:href="#i"/><path d="M2.3 565c113.6 1.7 248.6 1.7 405 0 156.2-1.8 290-1.8 401.2 0-12.3-282.4-22.4-436.5-30.4-461.4a92 92 0 0 0-28-42 94 94 0 0 0-30.9-18l-18.9-6.3-16.3-5.5-8.7-3a893 893 0 0 0-91.7-23.5c-25-5.4-48.4-3-50.5 5a2404.2 2404.2 0 0 0-23.2 96.9c-13.3 61-22.4 115-25.4 156.4-4.4 62.6 2.7 155.8 21.4 279.7l.2 1.7-1.7.4c-44 8.6-76.3 13-97.2 13-20.8 0-54.1-4.4-99.8-13l-1.7-.4.2-1.7c14.3-123 19.5-209 15.5-257.5a1831 1831 0 0 0-25.2-192C289 56.5 280.9 23.5 279 20.6c-5.1-8.2-17.5-11-37.3-7.9-80.7 18.4-129.6 30.4-146.4 36-15 5-26.8 10.7-36.5 18.3a68.9 68.9 0 0 0-24.5 36.6c-6.3 22.1-17 176.3-32 461.4z"/><g filter="url(#k)" mask="url(#j)"><path d="M572.8-11.7c3.6 41.6 5 75 4 100.3-.7 19.7-7.8 58-13.7 116.6-1.2 11.1-1.2 28.2 0 51.2" stroke="#EFEFEF" stroke-width="5.8"/><path d="M562.5 254.6l.5 9.7" stroke="#414850" stroke-width="3.9"/></g><path d="M522 589c-19.7-115.3-28.5-213.4-26.6-294.4 1.6-64.3 19.3-166 53.3-305M259 7.8c27.3 105.8 43.2 191 47.6 255.6 4.4 64.5-.1 164.5-13.4 299.7" stroke="#FFF" stroke-width="11.7" opacity=".9" mask="url(#j)"/><path fill="none" mask="url(#j)" d="M676.7 545.2L688.8 182l24 363.3z"/><path fill="none" mask="url(#j)" transform="rotate(2 124.5 363.7)" d="M103.2 545.5l16-363.6L145.7 544z"/><path d="M60.1 57.6c39.2 27.1 60.3 55.7 63.3 85.7s3 162.5 0 397.5" stroke="#000" stroke-width="3.8" opacity=".1" mask="url(#j)"/><path d="M690 53.8c35.6 36.4 53.4 66.2 53.4 89.5v406.6" stroke="#000" stroke-width="3.8" opacity=".1" mask="url(#j)" transform="matrix(-1 0 0 1 1433.5 0)"/><g filter="url(#l)" mask="url(#j)"><path d="M239 7.7a626.4 626.4 0 0 0-5.8 96.2c.7 19.7 10.6 59 16.5 117.7a361 361 0 0 1-1 54.3" stroke="#EFEFEF" stroke-width="5.8"/><path d="M248.7 274l-1.5 9.7" stroke="#414850" stroke-width="3.9"/></g></g><g><g transform="rotate(2 246.1 3651.6)"><use fill="#ECD6C6" xlink:href="#m"/><path d="M309.5 806a68 68 0 0 0 39-14.6c11.4-8.1 23-19.5 37.6-36 5.9-6.6 12-13.8 20.5-24l22.4-27c19-22.6 43.1-59.5 62.9-96 21.7-40.2 35.5-75 37-95.6 7.4-123.9 10.5-203.5 9.5-263-1-64.2-6.6-105.9-18.2-133.2A72.8 72.8 0 0 0 465.5 70a208.1 208.1 0 0 0-43.8-4.6c-13.7-.2-22.4 0-56.5 1a1596.4 1596.4 0 0 1-115.3-.3c-34.4-1.3-42.2-1.5-55.7-1.3-17.8.2-31.7 1.5-43.4 4.4-26.4 6.3-43.3 20.6-54.4 47.8-22.1 54-23.3 158.2-7 411 2.4 21.7 15.5 54.2 36 92.4a763 763 0 0 0 55.4 87.9c50.6 67.4 87.6 95.4 128.7 97.6z"/></g><path d="M371.7 521.6c5.6-2.8 9.6-3.7 12-2.7 2.4.9 6.6 4.5 12.6 10.8a85.7 85.7 0 0 1-15.3-2.4c-2.6-.8-5.7-2.7-9.3-5.7zM446.9 524.3c-5.4-3.2-9.4-4.4-11.9-3.6-2.4.7-6.9 4-13.2 9.9 7.6-.2 12.7-.7 15.4-1.3 2.6-.7 5.8-2.3 9.7-5z" fill="#373737" opacity=".5"/><path d="M456.4 497.8c12.9 14.7 15 24 6.5 27.9-8.5 3.9-14.2 5.8-16.9 5.7 10.3-5.3 16-9.8 17.2-13.5 1.1-3.8-1.1-10.5-6.8-20.1z" fill="#373737" opacity=".3"/><path d="M392.8 500.5c4-2.4 8 6.8 14.6 7 6.5.2 10.8-9 19.3-5.8 2.5 6.6-2.5 21.6-19.9 20.8-17.4-1-14.2-17-14-22z" fill="#FFF" opacity=".3"/><path d="M364.7 494.6c-14 13.7-16.8 22.8-8.5 27.3a51.3 51.3 0 0 0 16.4 7c-9.8-6-15.2-11-16.1-14.7-1-3.9 1.8-10.4 8.2-19.6z" fill="#373737" opacity=".3"/><path d="M642.4 162.2c-45.4 21.4-19.9 50.7 0 166.2 2 12-2.6 71.4 0 94 .7 6.5 4.3 6.5 10.9 0l8.6-106.1c6-116.8-.6-168.1-19.5-154zM158.3 205c26.3-22.7 40.5-24.7 42.4-6 26.2 8.6 20.7 53 1.4 145.4-1.6 8-.9 57-2.5 71.7-1 8.8-3.2 12.4-6.8 10.5l-12.3-95.5-19.4-98-2.8-28.1z" fill="#3C3C3C"/><g transform="rotate(2 -10218 18668.8)"><mask id="o" fill="#fff"><use xlink:href="#n"/></mask><use fill="#EBD6C8" xlink:href="#n"/><path d="M7 7.2L.8 126.7c4 2.7 8.4 2.7 13.6-.2 4.9-2.8 6.7-6.2 9-14.8a130.8 130.8 0 0 1 3-9.5C43 65 50.4 27 44.9 14.1 38.6-.7 26-3 7 7.2z"/><path d="M3.8 31c11.8-11.3 21-13.2 27.4-6 6.4 7.3 8.4 10.3 5.9 9l-4-4a53 53 0 0 1-2.8 29c-5.9 18.2-12 35-12.9 34.4-1-.7 6.5-13.6 11.7-39.5 2-10 2.4-18.8 1.2-26.1-3.8-2.4-6.9-3.3-9.3-2.8-5.7 1.2-11.4 6.5-17.2 16V31zM2.6 53.6c8-4.8 13.9-5.6 17.4-2.5 2.6 2.3-2.3.4-10 2.5-1.8.5-4.2 2.5-7.4 6.2v-6.2zm-1 18.8c0-.2.8-.5 2.5-1 2.6-.6 3 3.6 3.6 6.2.4 1.8-1.5 3.9-5.7 6.4l-.5-11.6z" fill="#000" opacity=".1" mask="url(#o)"/></g><g transform="rotate(2 246.1 3651.6)"><mask id="q" fill="#fff"><use xlink:href="#p"/></mask><use fill="#333" xlink:href="#p"/><path d="M468 177.2a223.7 223.7 0 0 1-29.3-22.4c-11.6-13.3-19.7-19.9-29.3-21.1-17-2.2-34.6 6.5-52.8 26L468 177.2z" fill="#000" opacity=".3" mask="url(#q)"/><g opacity=".3" mask="url(#q)"><path d="M272.7 100.3c-74.1 78.5-130.9 124-170.3 136.4C63 249.2 31 247 6.4 230" stroke="#262626" stroke-width="25.5"/><path d="M245.7 72.3C146.2 172.9 72 220.8 23.1 216c-48.9-4.8-73.2-21.7-73-50.7" stroke="#262626" stroke-width="47.8"/><path d="M299.2 122.7C196.7 214 126.4 265 88.4 275.9c-38 10.9-70.2-5-96.5-47.6" stroke="#262626" stroke-width="13.8"/><path d="M329.5 144c-88.1 81.7-165.2 137-231.3 165.9-37 15-66 4-87-33" stroke="#262626" stroke-width="47.8"/><path d="M545.5 148C478.6 76 458 37 484 30.6" stroke="#262626" stroke-width="36.6"/><path d="M57 65.3a260.5 260.5 0 0 0-53.5 118c-8.1 49 8.9 98.3-29 99.6" stroke="#2A2A2A" stroke-width="8.8"/><path d="M395.5 5.5c-6 22 .2 48.6 18.5 79.8 18.3 31.2 57.2 69.4 116.7 114.6" stroke="#262626" stroke-width="39"/><path d="M482.1 139a378 378 0 0 0 35.6 19 84.4 84.4 0 0 0 20.6 5.3" stroke="#262626" stroke-width="5.8"/><path d="M536.1 166.8c-7.4 19.8-57.4 19.1-149.9-2C247.5 133.2 278.7 29.1 107.1 29.1" stroke="#262626" stroke-width="8.8"/><path d="M524.2 184c-35.5-5.6-78.6-22.7-129.6-51.5-76.3-43.2-92.7-163.3-121-160.6" stroke="#262626" stroke-width="18.3"/><path d="M350.9 4.2c5.6 33 12.1 57.1 19.7 72.2 7.5 15 25.5 39.4 54 73.2" stroke="#262626" stroke-width="19.9"/><path d="M545.6 162.2c-133-86-153.1-143.7-60.5-173.2M210.3 47.3c-73.2 93.2-135 142.5-185.7 148-50.6 5.6-56.5 2-17.6-11" stroke="#262626" stroke-width="8.8"/><path d="M165.7 29c-39.7 76-85.4 123.5-137 142.4-51.6 19-60.9 21.5-27.9 7.6" stroke="#262626" stroke-width="42.2"/><path d="M108.5 47.5C80.2 92.8 55.7 124.6 35 143.1c-20.9 18.6-30.2 25.4-28 20.4" stroke="#262626" stroke-width="8.8"/><path d="M189.4-10c41.8 25.4 67.5 43 77 52.8 32 32.8 47.7 67 74.4 86 32.8 23.4 48.5 34.8 47 34.2" stroke="#262626" stroke-width="39"/></g><path d="M119.7 36C68.9 98.9 52.5 136 70.6 147.4c27 17.1 65.1-33.5 81.2-20.9 16 12.6-8.4 72.5 8.7 79.1 17.1 6.7 31.8-5.6 43.9-6 12-.4-5.5 21.6 16.8 32.5 14.9 7.2 59.6-14.3 134.3-64.5l-98.7 103.3c-52.3 24.3-83.3 32.6-93.1 25-14.7-11.6 11-36.7 4.6-42.5-6.3-5.8-49 47.6-68.8 29-19.8-18.6 7.7-53.4-7-62.5-14.8-9-10.5 7.6-50.3 9-26.5.9-42.3-27.4-47.5-85C28 102.7 55.2 73.1 75.9 55.3c20.7-17.8 35.3-24.2 43.8-19.2z" fill="#FFF" opacity=".1" mask="url(#q)" transform="rotate(-2 175 166.5)"/><path d="M392.8 156.8c-3.6-6.5-1.9-12.2 5.3-17.2 5-3.5 9.8-5.3 14.2-5.6a46 46 0 0 0-26.5 3.7 69.3 69.3 0 0 0-29.6 22.7l36.6-3.6z" fill="#000" opacity=".1" mask="url(#q)"/></g><g transform="rotate(1 -20277.2 8714.8)"><mask id="s" fill="#fff"><use xlink:href="#r"/></mask><g transform="rotate(1 26.6 68.5)"><use fill="#EBD6C8" xlink:href="#r"/><path d="M44.4 7.7C23.9-3 10.4-.7 3.7 15-1.7 27.5 6 60.2 25.2 101.6a44.4 44.4 0 0 1 3.1 13.7c1.6 10.9 3.4 15.5 8 18.1 5.7 3.1 10.6 3.2 14.8.3l-6.7-126z"/></g><path d="M16.3 28.2c11.8-11.1 21-13.1 27.4-5.8 6.4 7.2 8.4 10.2 5.9 9l-4-4.1a53 53 0 0 1-2.8 29c-5.9 18.2-12 35-12.9 34.4-1-.6 6.5-13.6 11.7-39.5 2-10 2.4-18.7 1.2-26.1-3.8-2.3-6.9-3.3-9.4-2.7-5.6 1.1-11.3 6.4-17.1 15.8v-10zM15 51c8-4.8 13.8-5.6 17.4-2.5 2.6 2.3-2.3.4-10 2.5-1.8.5-4.3 2.5-7.4 6.2V51zm-1 18.8c0-.2.8-.5 2.5-1 2.6-.6 3 3.7 3.6 6.2.4 1.8-1.5 3.9-5.7 6.4L14 69.8z" fill="#000" opacity=".1" mask="url(#s)" transform="scale(-1 1) rotate(1 0 -3648)"/><g mask="url(#s)"><g transform="translate(30.6 113.8)"><ellipse fill="#565656" transform="rotate(-22 8.3 8.2)" cx="8.3" cy="8.2" rx="4.9" ry="6.7"/><ellipse fill="#373737" transform="rotate(-22 7 8.8)" cx="7.1" cy="8.8" rx="4.9" ry="6.7"/></g></g></g><g fill="#373737"><path d="M363.9 314.6c.5 6 .5 10.4 0 13.4s-2 7-4.4 11.7c-37.7 1-69.2 4.4-94.5 10-17 4-29.7 17.1-34.2 14.9-3.8-1.9 1-10.2 14-24.9a298.5 298.5 0 0 1 43-15.6c9-2 34.3-5.2 76.1-9.5zM460.3 309.8a26.9 26.9 0 0 0-3 13.1c.4 3.4 2.5 8.3 6.3 15a535 535 0 0 1 60 5c56.4 7.8 75 27.6 78.5 27.9 3.6.2.8-7.6-8.3-23.5-8-7-17.7-12.9-29.1-17.4-18.2-6.4-53-13.2-104.4-20.1z"/></g><g fill="#373737"><path d="M348.7 396.4c-4.4-8.5-13-15-26-19.2-12.9-4.2-28.3 2.3-46.3 19.7 16.9-13.6 31-19.2 42.2-16.7a61.9 61.9 0 0 1 30 16.2z" opacity=".2"/><path d="M349.1 396c1 10.9-15.8-.3-37.8 3.2-9.5 1.6-28 20.7-32 10.3-.5-1.4 6.4-15.8 20.7-21.5 25.4-10.1 48.2-3.1 49.1 8zM473.3 404.5c-.2 10.9 15.8-1.5 38 .3 9.6.8 29.2 18.4 32.5 7.7.4-1.4-7.4-15.2-22-19.8-26-8.1-48.2.6-48.5 11.8z"/><path d="M473.8 404.8c.8-9 10-15.8 27.4-20.3 17.5-4.4 32.5 3.2 44.9 22.8-13-16.3-26.6-22.8-41-19.5a53.8 53.8 0 0 0-31.3 17z" opacity=".2"/></g><g transform="rotate(2 -21594 9822.2)"><mask id="u" fill="#fff"><use xlink:href="#t"/></mask><use fill="#4C4C4C" xlink:href="#t"/><g opacity=".1" mask="url(#u)" stroke="#2A2A2A"><path d="M-11.9-23.1l47 72.1" stroke-width="5.9"/><path d="M15.5-21.8l25.5 74M42.2-20.7l11.6 87" stroke-width="11.4"/><path d="M57.9-33.1l7.3 97.7" stroke-width="5.9"/><path d="M81.3-69.1a17237.3 17237.3 0 0 0-4 140.8" stroke-width="21.5"/><path d="M98.9-26.9L88.4 73" stroke-width="5.9"/><path d="M113.9-21L104 55.8" stroke-width="17"/><path d="M135.4-23.8l-20.2 93.3" stroke-width="5.9"/><path d="M149-14.7l-15 62" stroke-width="17"/><path d="M173.8-14.1l-33.2 66.5" stroke-width="5.9"/></g></g><g transform="rotate(2 -19146.8 11435.2)"><mask id="w" fill="#fff"><use xlink:href="#v"/></mask><use fill="#4C4C4C" xlink:href="#v"/><g opacity=".1" mask="url(#w)" stroke="#2A2A2A"><path d="M5.5-36.1L11 39.5" stroke-width="7.8"/><path d="M25.1-64a13381.2 13381.2 0 0 0-3 108.9" stroke-width="11.7"/><path d="M38.6-31.3l-8 77.2" stroke-width="7.3"/></g></g><path d="M370.2 668.6c15.8 10.4 29.9 15.6 42 15.6 12.3 0 24.7-5.4 37.2-16.2a175 175 0 0 1-39.8 7.4c-8.7 0-21.9-2.2-39.4-6.8z" fill="#D3C0B1"/><g transform="rotate(2 -16111.3 9133)"><mask id="y" fill="#fff"><use xlink:href="#x"/></mask><use fill="#FFF" xlink:href="#x"/><g opacity=".5" mask="url(#y)"><path d="M8.3 27.5c42 3.6 74.2 4.8 96.5 3.7 38.4-2 72-7.3 101-15.8M9.5 55.7c42 4.3 74.1 6 96.5 5.3 38.4-1.4 72-7.7 101-19.1" stroke="#979797" stroke-width="1.2"/><g transform="translate(5.1 14.3)"><use fill="#DEDEDE" xlink:href="#z"/><rect stroke="#979797" stroke-width="1.2" x="75.8" y="15.3" width="3.9" height="3.4" rx="1.1"/></g><g transform="rotate(-4 323.8 -50.1)"><use fill="#DEDEDE" xlink:href="#A"/><rect stroke="#979797" stroke-width="1.2" x="114.6" y="14.2" width="3.9" height="3.4" rx="1.1"/></g><g transform="rotate(-8 262 -18)"><use fill="#DEDEDE" xlink:href="#B"/><rect stroke="#979797" stroke-width="1.2" x="155.3" y="9.7" width="3.9" height="3.4" rx="1.1"/></g><g transform="rotate(-17 248.2 -6.9)"><use fill="#DEDEDE" xlink:href="#C"/><rect stroke="#979797" stroke-width="1.2" x="195.9" y="1.4" width="3.9" height="3.4" rx="1.1"/></g><g transform="rotate(4 -162.3 95.6)"><use fill="#DEDEDE" xlink:href="#D"/><rect stroke="#979797" stroke-width="1.2" x="37.9" y="13.6" width="3.9" height="3.4" rx="1.1"/></g><g transform="rotate(9 -85 50.8)"><use fill="#DEDEDE" xlink:href="#E"/><rect stroke="#979797" stroke-width="1.2" x="1.4" y="9.5" width="3.9" height="3.4" rx="1.1"/></g><g transform="translate(5.1 14.3)"><use fill="#DEDEDE" xlink:href="#F"/><rect stroke="#979797" stroke-width="1.2" x="79.6" y="45.1" width="3.9" height="3.4" rx="1.1"/></g><g transform="rotate(-5 283.6 -5.6)"><use fill="#DEDEDE" xlink:href="#G"/><rect stroke="#979797" stroke-width="1.2" x="115.4" y="44.1" width="3.9" height="3.4" rx="1.1"/></g><g transform="rotate(-8 257.7 12)"><use fill="#DEDEDE" xlink:href="#H"/><rect stroke="#979797" stroke-width="1.2" x="151" y="39.7" width="3.9" height="3.4" rx="1.1"/></g><g transform="rotate(3 -225.8 148.8)"><use fill="#DEDEDE" xlink:href="#I"/><rect stroke="#979797" stroke-width="1.2" x="42.7" y="42.4" width="3.9" height="3.4" rx="1.1"/></g></g><path d="M10.8 37.4l2.5 1c39.2 6.6 68 9.9 86.4 9.7 18.4-.1 51.4-5 99-14.8l3.8-1.7C154.3 41 119.8 45.8 99 46c-20.7.3-50.2-2.6-88.3-8.6z" fill="#000" opacity=".3" mask="url(#y)"/></g><g opacity=".8" transform="rotate(4 -7622.3 4624.3)"><mask id="K" fill="#fff"><use xlink:href="#J"/></mask><use fill="#4C4C4C" xlink:href="#J"/><g opacity=".2" mask="url(#K)" stroke="#2A2A2A"><path d="M35.8-75.1A20985.8 20985.8 0 0 0 33 57" stroke-width="5"/><path d="M47.4-35.2L40 58.5" stroke-width="10.6"/><path d="M58.2-29.2L51 43.1" stroke-width="5"/><path d="M4.3-73.7A20985.8 20985.8 0 0 0 1.4 58.4" stroke-width="7.3"/><path d="M16-33.7L8.4 60" stroke-width="5"/><path d="M26.7-27.8l-7.1 72.3" stroke-width="13.4"/><path d="M73.8-31.4L59.2 56.2" stroke-width="11.2"/><path d="M83.4-22.3L72.6 36" stroke-width="5"/><path d="M94-23.4L84.6 43" stroke-width="16.2"/><path d="M107.3-20.7L132.6 53" stroke-width="14.5"/><path d="M123.6-15.6L142 53.9" stroke-width="5"/><path d="M143-13.7l8.3 81.8" stroke-width="16.2"/><path d="M154.6-24.8l5.2 91.7" stroke-width="5"/><path d="M172.4-58a20985.9 20985.9 0 0 0-2.9 132.2" stroke-width="18.4"/><path d="M183.4-15.5l8.3 81.7" stroke-width="9.5"/><path d="M199.8-26.9l5.3 91.8" stroke-width="16.2"/><path d="M217.6-60a20985.9 20985.9 0 0 0-2.9 132.2" stroke-width="7.8"/></g></g></g></g></g></svg>
