<?xml version="1.0" encoding="UTF-8" standalone="no"?>
<svg width="450px" height="623px" viewBox="0 0 450 623" version="1.1" xmlns="http://www.w3.org/2000/svg" xmlns:xlink="http://www.w3.org/1999/xlink">
    <!-- Generator: Sketch 46.2 (44496) - http://www.bohemiancoding.com/sketch -->
    <title>Avatar</title>
    <desc>Created with Sketch.</desc>
    <defs>
        <rect id="path-1" x="0" y="0" width="469" height="625"></rect>
        <filter x="-4.5%" y="-1.5%" width="106.8%" height="106.0%" filterUnits="objectBoundingBox" id="filter-3">
            <feOffset dx="-10" dy="20" in="SourceAlpha" result="shadowOffsetOuter1"></feOffset>
            <feColorMatrix values="0 0 0 0 0   0 0 0 0 0   0 0 0 0 0  0 0 0 0.02 0" type="matrix" in="shadowOffsetOuter1" result="shadowMatrixOuter1"></feColorMatrix>
            <feMerge>
                <feMergeNode in="shadowMatrixOuter1"></feMergeNode>
                <feMergeNode in="SourceGraphic"></feMergeNode>
            </feMerge>
        </filter>
        <path d="M120.117565,85.2579457 C173.222401,85.2579457 217.20453,69.3678592 217.20453,56.9046044 C217.20453,44.4413497 174.826655,37.6583512 121.721819,37.6583512 C68.6169831,37.6583512 24.8949068,44.4413497 24.8949068,56.9046044 C24.8949068,69.3678592 67.0127292,85.2579457 120.117565,85.2579457 Z" id="path-4"></path>
        <path d="M67.7714243,0.00276563835 L69.4634015,57.4346187 C61.6749704,58.7807802 48.417349,61.667105 29.6905372,66.0935931 C10.9637253,70.5200811 1.20134373,102.101815 0.403392344,160.838794 L246.1245,158.19774 C243.395784,97.588214 235.386585,65.7465553 222.096902,62.6727637 C208.80722,59.5989721 192.850436,56.2026409 174.226549,52.48377 L174.903758,0.00276563835 L67.7714243,0.00276563835 Z" id="path-5"></path>
        <path d="M0.183118701,243.619831 C14.0204591,129.161825 22.5344621,66.2808277 25.7251279,54.9768381 C30.5111265,38.0208537 44.3096556,27.9585884 57.1320718,23.6825517 C69.9544879,19.406515 86.5788684,13.0647191 133.394357,6.4596037 C138.586743,5.72701906 140.139751,4.89071699 144.41389,11.7323757 C145.949082,14.1897738 188.181642,83.9926353 202.743548,83.8388339 C212.451485,83.7362996 231.889477,58.275468 261.057523,7.45633901 C263.410352,1.53503229 267.3784,-0.688729511 272.961667,0.785053615 C276.78287,1.79371474 327.239648,11.3661126 350.531048,21.9038646 C357.818243,25.3925103 372.222844,35.5792026 378.316773,54.6387399 C382.379392,67.3450981 391.161286,130.34062 404.662455,243.625307 C349.166253,269.783882 281.730993,283.305249 202.356675,284.189409 C122.982357,285.073568 55.5911716,271.550376 0.183118701,243.619831 Z" id="path-7"></path>
        <path d="M0.183118701,245.318418 C17.9325929,127.765698 28.4026629,63.3373426 31.5933287,52.033353 C36.3793273,35.0773686 50.1778564,27.9585884 63.0002726,23.6825517 C71.54855,20.8318606 96.2224151,14.7690152 137.021868,5.49401562 C147.383817,3.87016453 153.989505,5.33879189 156.838931,9.89989772 C158.080962,11.8880305 171.736983,62.5940045 178.354758,144.186067 C180.35271,168.819277 177.736252,212.224756 170.505385,274.402502 C193.52366,278.753852 210.265713,280.929527 220.731543,280.929527 C231.197372,280.929527 247.488095,278.753852 269.603712,274.402502 C260.188579,211.814763 256.596604,164.67812 258.827788,132.992573 C262.174564,85.4642531 281.402546,12.3291445 283.357077,4.95576261 C284.672935,-0.00825785506 297.479129,-0.939615482 309.978794,1.76621531 C351.15114,10.6788864 356.416924,13.9758679 378.538666,21.1286418 C386.626552,23.743753 402.765238,32.9738156 408.859167,52.033353 C412.921786,64.7397112 424.124955,129.402754 442.468676,246.022481 C374.018238,271.891155 300.105861,285.267572 220.731543,286.151732 C141.357225,287.035892 67.8410833,273.424787 0.183118701,245.318418 Z" id="path-9"></path>
        <filter x="-62.3%" y="-1.8%" width="192.5%" height="104.0%" filterUnits="objectBoundingBox" id="filter-11">
            <feOffset dx="-3" dy="1" in="SourceAlpha" result="shadowOffsetOuter1"></feOffset>
            <feColorMatrix values="0 0 0 0 0   0 0 0 0 0   0 0 0 0 0  0 0 0 0.03 0" type="matrix" in="shadowOffsetOuter1" result="shadowMatrixOuter1"></feColorMatrix>
            <feMerge>
                <feMergeNode in="shadowMatrixOuter1"></feMergeNode>
                <feMergeNode in="SourceGraphic"></feMergeNode>
            </feMerge>
        </filter>
        <filter x="-66.2%" y="-1.8%" width="193.6%" height="104.8%" filterUnits="objectBoundingBox" id="filter-12">
            <feOffset dx="-3" dy="1" in="SourceAlpha" result="shadowOffsetOuter1"></feOffset>
            <feColorMatrix values="0 0 0 0 0   0 0 0 0 0   0 0 0 0 0  0 0 0 0.03 0" type="matrix" in="shadowOffsetOuter1" result="shadowMatrixOuter1"></feColorMatrix>
            <feMerge>
                <feMergeNode in="shadowMatrixOuter1"></feMergeNode>
                <feMergeNode in="SourceGraphic"></feMergeNode>
            </feMerge>
        </filter>
        <path d="M152.707688,407.220855 C173.020533,406.935046 189.100148,384.671986 213.277822,355.833965 C232.319777,333.121594 262.176423,281.345611 263.747251,258.907212 C279.098274,5.06417516 263.047429,33.7054363 152.707688,33.7054363 C42.3679473,33.7054363 24.1539485,0.948565431 41.3014874,266.676267 C43.9195337,290.5548 71.9347485,337.031283 87.4921189,357.79542 C113.165613,392.061362 131.917908,406.126276 152.707688,407.220855 Z" id="path-13"></path>
        <path d="M3.25610105,3.4608956 C13.115136,-1.89688136 19.67366,-0.722084328 22.9316732,6.98528669 C25.4225596,12.8778921 22.8514223,31.1857038 13.5886469,51.7334356 C11.5193178,56.3238544 11.9862848,61.5678183 7.44497506,64.1144181 C4.65239239,65.680396 2.20660994,65.680396 0.107627718,64.1144181 L3.25610105,3.4608956 Z" id="path-14"></path>
        <path d="M176.681865,80.456053 C152.045704,107.972158 132.064901,126.815672 116.739454,136.986595 C61.621759,173.566137 47.6882943,165.801799 36.015857,166.209466 C-7.80986222,167.740106 -41.4181792,19.4087719 122.367778,1.17176989 C230.68877,-7.27151686 270.87591,37.1906203 266.769457,69.4940154 C265.810049,77.0411934 261.838517,92.2602379 249.245544,96.4242675 C240.740717,99.2364987 231.973739,84.270936 211.287201,79.2474404 C204.474214,77.5929823 192.939102,77.9958532 176.681865,80.456053 Z" id="path-16"></path>
        <path d="M22.7149386,3.7178567 C12.1225873,-1.92800591 5.07623937,-0.690040487 1.57589481,7.43175299 C-1.10026406,13.6412016 2.46905857,29.7456318 12.4208004,51.3982074 C14.6440464,56.2354513 13.3354026,64.9491669 18.2144955,67.6326965 C21.2147909,69.2828764 23.842491,69.2828764 26.0975957,67.6326965 L22.7149386,3.7178567 Z" id="path-18"></path>
        <path d="M0.22486759,3.87607654 C0.185774121,4.97069011 16.4256729,19.1999325 19.1646524,21.0208622 C21.9036319,22.8417918 24.691533,24.2229968 27.107573,25.3300837 C27.6681101,25.5869351 28.804849,25.3384488 30.5177897,24.584625 C31.5124345,26.1462562 32.7443952,26.9541415 34.2136716,27.008281 C35.6532323,27.0613256 37.3301089,26.3606243 39.2443013,24.9061772 C40.3578272,26.2620363 41.5325859,26.9627375 42.7685773,27.008281 C43.8884903,27.0495473 45.0696359,26.4356558 46.3120143,25.1666065 C48.7742977,25.5192391 50.5565239,25.5192391 51.6586927,25.1666065 C54.2724931,24.3303359 56.2062362,23.1414327 57.459922,21.5998969 C57.5074333,22.9607073 58.1020754,23.3935424 59.2438483,22.8984021 C59.2438483,22.8984021 79.2158347,1.08130462 78.6933415,0.141152071 C78.54494,-0.125875549 73.8777049,1.35902651 70.1437362,3.68660645 C68.5772135,4.66310281 66.0867965,7.23224838 64.3725352,7.59987977 C62.5922743,7.98166509 60.736273,6.69663158 58.6469211,5.8013127 C56.5575691,4.90599381 49.9300877,9.80861046 48.9020028,9.42830742 C48.3009395,9.20596564 47.7589656,8.79553564 47.2760813,8.19701741 C46.1341841,4.887469 44.0802383,7.27857717 42.0821285,7.34823176 C39.1996524,7.44871556 35.9439033,5.93168164 35.2132333,7.58813214 C34.0229971,10.2864328 32.0669744,10.6808656 31.0441889,10.0520664 C29.601288,9.16498403 29.2272055,8.95746938 25.7807095,7.91756883 C24.7498548,7.60653221 23.6026897,7.02540907 21.5899597,6.7243834 C20.2481396,6.52369963 20.2077416,7.74438185 21.4687658,10.3864301 C19.7808544,8.81453326 17.9607296,7.78258091 16.0083915,7.29057304 C15.2675964,7.10388559 14.3945879,7.45714262 13.3893661,8.35034411 C4.73313328,4.29525537 0.34496711,2.80383284 0.22486759,3.87607654 Z" id="path-20"></path>
        <path d="M2.00111052,13.5991477 C2.17438714,14.1295615 3.02635163,14.1610744 4.55700398,13.6936863 C5.4195208,14.9049299 6.36862945,15.5297063 7.40432993,15.5680152 C8.60961221,15.6125968 9.90148632,15.0707111 11.2799523,13.942358 C12.1616383,14.9917896 13.0666782,15.5336754 13.9950722,15.5680152 C14.8816788,15.6008095 15.7916393,15.1260579 16.7249538,14.1437604 C19.1889988,14.9630596 20.5620348,14.9630596 20.8440617,14.1437604 C22.1757562,10.275135 22.4164416,5.58721033 21.5661179,0.0799864165 C20.1969298,1.53778807 19.2483218,2.16865341 18.720294,1.97258241 C18.0257006,1.71466115 15.0960762,2.91175648 13.5567224,2.9656237 C11.3360483,3.04333262 9.38127337,1.47637089 7.78411165,2.07249348 C6.94579765,2.38538471 5.7277159,2.62347934 5.18043143,2.16377595 C4.32126335,1.44209921 3.00781336,1.62791576 0.352615627,0.823711021 C-0.441560058,0.583171553 0.158831277,7.9597808 2.00111052,13.5991477 Z" id="path-22"></path>
        <path d="M0.182373914,7.63354033 C24.8679236,7.91793623 42.1564765,7.80388084 52.0480326,7.29137415 C87.0585208,5.47739166 106.515063,2.47797001 108.101907,0.10948861 C109.020553,-1.2616595 101.256769,10.8395375 90.9745801,21.9536968 C83.1859781,30.3725039 76.8736184,38.2534926 55.0508413,39.1201068 C35.7585047,39.8862335 24.5665756,34.1482012 14.5912147,24.1486944 C11.4700188,21.0199435 6.66707189,15.5148921 0.182373914,7.63354033 Z" id="path-24"></path>
        <rect id="path-26" x="37.946524" y="7.42949268" width="2.58017106" height="2.3350647" rx="0.562586547"></rect>
        <rect id="path-27" x="57.5438786" y="6.86645302" width="2.58017106" height="2.3350647" rx="0.562586547"></rect>
        <rect id="path-28" x="78.1006356" y="4.57658533" width="2.58017106" height="2.3350647" rx="0.562586547"></rect>
        <rect id="path-29" x="98.5763506" y="0.377374" width="2.58017106" height="2.3350647" rx="0.562586547"></rect>
        <rect id="path-30" x="18.8022364" y="6.54938331" width="2.58017106" height="2.3350647" rx="0.562586547"></rect>
        <rect id="path-31" x="0.385745543" y="4.47287649" width="2.58017106" height="2.3350647" rx="0.562586547"></rect>
        <rect id="path-32" x="39.875155" y="22.4550505" width="2.58017106" height="2.3350647" rx="0.562586547"></rect>
        <rect id="path-33" x="57.9253501" y="21.9364613" width="2.58017106" height="2.3350647" rx="0.562586547"></rect>
        <rect id="path-34" x="75.9035078" y="19.7206778" width="2.58017106" height="2.3350647" rx="0.562586547"></rect>
        <rect id="path-35" x="21.2281981" y="21.0791128" width="2.58017106" height="2.3350647" rx="0.562586547"></rect>
        <path d="M51.7192374,1.31976516 C51.7796365,2.70422597 51.809836,3.84199987 51.809836,4.73308685 C51.809836,5.62417384 51.7796365,7.07942021 51.7192374,9.09882597 C46.0504429,9.13799647 41.8253174,9.33211303 39.0438608,9.68117563 C36.2624042,10.0302382 23.4559514,11.9735222 0.62450261,15.5110276 C0.243377015,14.7421153 0.167828598,13.9265061 0.397857357,13.0642001 C0.627886117,12.2018941 1.10899799,11.4971725 1.84119298,10.9500353 C17.7330624,7.41268355 29.6706095,4.93930856 37.6538341,3.52991027 C45.6370588,2.12051199 50.3255265,1.38379695 51.7192374,1.31976516 Z M54.5796976,0.873854522 C61.6701447,0.428295091 66.9920797,0.1837874 70.5455027,0.140331451 C74.0989257,0.0968755011 87.3526724,0.248593055 110.306743,0.595484111 C111.18916,0.937627609 111.849053,1.56548343 112.286422,2.47905157 C112.723791,3.39261971 112.764231,4.2276063 112.407743,4.98401135 L83.8572141,6.94057761 C75.0892515,7.24390629 68.5026076,7.54651898 64.0972826,7.84841568 C59.6919576,8.15031238 56.7617586,8.49988844 55.3066857,8.89714387 C54.9707246,6.94638794 54.7613739,5.51443485 54.6786336,4.60128459 C54.5958933,3.68813434 54.5629147,2.44565765 54.5796976,0.873854522 Z" id="path-36"></path>
    </defs>
    <g id="Page-1" stroke="none" stroke-width="1" fill="none" fill-rule="evenodd">
        <g id="Desktop-HD" transform="translate(-188.000000, -122.000000)">
            <g id="Avatar" transform="translate(182.000000, 120.000000)">
                <mask id="mask-2" fill="white">
                    <use xlink:href="#path-1"></use>
                </mask>
                <g id="Rectangle-5" opacity="0.340000004"></g>
                <g id="Nelo" filter="url(#filter-3)" mask="url(#mask-2)">
                    <g transform="translate(12.755230, -3.924647)">
                        <g id="Body" transform="translate(0.000000, 333.933021)">
                            <g id="Skin" transform="translate(100.449299, 0.000000)">
                                <g id="Hood" transform="translate(121.049719, 61.458148) rotate(-2.000000) translate(-121.049719, -61.458148) ">
                                    <use fill="#414850" fill-rule="evenodd" xlink:href="#path-4"></use>
                                    <path stroke="#5B626C" stroke-width="8.83045526" d="M120.117565,80.842718 C144.700325,80.842718 168.736421,77.3497886 187.254075,71.5421062 C195.650079,68.9088716 202.476271,65.9151277 207.084353,62.8986312 C209.213367,61.5049569 210.790017,60.1553457 211.767933,58.9372012 C212.504103,58.0201891 212.789303,57.3384593 212.789303,56.9046044 C212.789303,55.9295806 211.360752,54.3700498 207.787103,52.5927447 C203.487276,50.4542845 196.962778,48.5331615 188.558329,46.94633 C171.792307,43.7807624 148.278595,42.0735788 121.721819,42.0735788 C95.1212212,42.0735788 71.2796163,43.7857098 54.1980646,46.949162 C45.6016423,48.5411936 38.9076236,50.4678174 34.4817567,52.6126819 C30.79258,54.4005314 29.3101345,55.9731154 29.3101345,56.9046044 C29.3101345,58.1630827 31.0284322,60.3904005 34.7846927,62.9392262 C39.2196018,65.9485516 45.8088997,68.9312119 53.9457479,71.5524497 C71.9795092,77.3619198 95.5709546,80.842718 120.117565,80.842718 Z"></path>
                                    <path stroke-opacity="0.03" stroke="#000000" stroke-width="1.875" d="M120.117565,84.3204457 C145.044818,84.3204457 169.431378,80.7765866 188.294808,74.8604587 C205.696438,69.4027945 216.26703,62.4831788 216.26703,56.9046044 C216.26703,45.9598281 177.264673,38.5958512 121.721819,38.5958512 C65.8710906,38.5958512 25.8324068,46.0108955 25.8324068,56.9046044 C25.8324068,62.5207928 36.0140465,69.4295855 52.8793848,74.862655 C71.2687264,80.7866732 95.2192097,84.3204457 120.117565,84.3204457 Z"></path>
                                </g>
                                <path d="M55.8674256,58.2854087 C83.8727257,51.4691496 103.747518,47.7080298 115.491802,47.0020492 C137.25452,45.6938336 160.872264,47.656157 186.345036,52.8890194 L183.476259,54.8158906 C155.833539,49.606663 134.162807,47.4808127 118.464062,48.4383396 C107.105852,50.0263396 86.6612646,53.9509864 57.1303007,60.21228 L55.8674256,58.2854087 Z" id="Path-41" fill="#E4E4E4"></path>
                                <mask id="mask-6" fill="white">
                                    <use xlink:href="#path-5"></use>
                                </mask>
                                <g id="Combined-Shape">
                                    <use fill="#E9D2C2" fill-rule="evenodd" xlink:href="#path-5"></use>
                                    <path stroke-opacity="0.03" stroke="#000000" stroke-width="0.625" d="M68.0932663,0.315265638 L69.7837488,57.696383 L69.5166252,57.7425529 C61.7361451,59.0873402 48.4834191,61.9725992 29.7624224,66.3977127 C11.2746534,70.7676978 1.5473666,102.134836 0.720305793,160.522869 L245.797718,157.888734 C243.063095,97.6672319 235.074633,65.9951534 222.026483,62.9772261 C208.740153,59.9042098 192.786361,56.5085155 174.165356,52.7902201 L173.910724,52.7393746 L174.5872,0.315265638 L68.0932663,0.315265638 Z"></path>
                                </g>
                                <path d="M122.9162,68.6735301 C165.585848,68.2263122 193.341801,39.6005763 206.184057,-17.2036774 L41.2741972,-14.6805029 C48.2153646,41.5386963 75.4293654,69.323374 122.9162,68.6735301 Z" id="Path-20" fill="#000000" opacity="0.0299999993" mask="url(#mask-6)"></path>
                                <path d="M108.508361,101.222263 C113.761573,106.010996 117.670773,108.405362 120.235962,108.405362 C122.801151,108.405362 126.710351,106.010996 131.963564,101.222263 C126.618441,103.61663 122.709241,104.813813 120.235962,104.813813 C117.762683,104.813813 113.853483,103.61663 108.508361,101.222263 Z" id="Path-39" fill="#000000" opacity="0.0700000003" mask="url(#mask-6)"></path>
                            </g>
                            <g id="Shirt" transform="translate(18.374868, 52.036122)">
                                <mask id="mask-8" fill="white">
                                    <use xlink:href="#path-7"></use>
                                </mask>
                                <use id="Combined-Shape" fill="#F2F3F5" xlink:href="#path-7"></use>
                                <polygon id="Path-22" fill-opacity="0.03" fill="#000000" mask="url(#mask-8)" points="338.53718 253.091263 344.638944 89.8752763 356.785025 253.091263"></polygon>
                                <polygon id="Path-22-Copy" fill-opacity="0.03" fill="#000000" mask="url(#mask-8)" transform="translate(56.612203, 171.550013) rotate(2.000000) translate(-56.612203, -171.550013) " points="45.8714934 253.241886 54.6456251 89.8581395 67.3529122 252.491455"></polygon>
                                <path d="M35.6946102,37.7019961 C48.3804598,52.0649941 55.2932698,62.9523915 56.4330401,70.3641885 C57.5728104,77.7759854 57.5728104,137.942782 56.4330401,250.864579" id="Path-19" stroke="#000000" stroke-width="1.92542275" opacity="0.100000001" mask="url(#mask-8)"></path>
                                <path d="M344.41355,37.7019961 C359.061743,52.0649941 366.955724,62.9523915 368.095495,70.3641885 C369.235265,77.7759854 369.235265,137.942782 368.095495,250.864579" id="Path-19-Copy" stroke="#000000" stroke-width="1.92542275" opacity="0.100000001" mask="url(#mask-8)" transform="translate(356.681936, 144.283288) scale(-1, 1) translate(-356.681936, -144.283288) "></path>
                                <path d="M127.938507,-0.94749638 C136.851026,13.0504413 143.065112,22.8620582 146.580766,28.4873545 C153.916162,40.2245086 159.372869,49.5799897 163.281762,54.9978836 C183.984842,83.6932393 197.353902,94.2041084 202.651271,94.2041084 C207.993241,94.2041084 222.603841,82.2754411 242.796901,52.0352352 C249.183293,42.4712661 259.819678,23.6586404 274.706056,-4.40264196" id="Path-42" stroke="#000000" stroke-width="0.981161695" opacity="0.049999997" stroke-dasharray="4.905808568000793,1.96232333779335" mask="url(#mask-8)"></path>
                            </g>
                            <g id="Hoodie" transform="translate(0.000000, 50.073799)">
                                <mask id="mask-10" fill="white">
                                    <use xlink:href="#path-9"></use>
                                </mask>
                                <g id="Combined-Shape-Copy-2">
                                    <use fill="#626A74" fill-rule="evenodd" xlink:href="#path-9"></use>
                                    <path stroke-opacity="0.03" stroke="#000000" stroke-width="1.875" d="M1.21960948,244.733254 C68.5712275,272.599863 141.735874,286.094116 220.7211,285.21429 C299.712233,284.334399 373.278271,271.067316 441.424008,245.414538 C423.166655,129.372159 411.997055,64.9258753 407.966199,52.3188625 C403.013917,36.8299693 390.429548,25.9586902 378.25024,22.0206713 C375.108772,21.0049188 372.193763,20.0319693 368.710652,18.8449373 C368.292396,18.7023971 362.204625,16.6169109 360.47758,16.0332948 C358.88516,15.4951719 357.452996,15.0187546 356.05212,14.5624912 C344.159056,10.6889381 331.66321,7.41950424 309.780446,2.6824926 C297.133195,-0.0552863292 285.328218,1.1785398 284.263279,5.19597803 C283.15097,9.39211505 281.763667,14.7886808 280.080677,21.6129681 C277.512491,32.0266016 274.953981,42.9739681 272.530604,54.1153243 C265.834269,84.9013975 261.233943,112.168836 259.762972,133.058425 C257.537622,164.661122 261.125005,211.737506 270.530781,274.263043 L270.664107,275.149339 L269.784699,275.322366 C247.614119,279.684531 231.272318,281.867027 220.731543,281.867027 C210.192931,281.867027 193.40272,279.685094 170.331246,275.323687 L169.4733,275.161502 L169.574161,274.294207 C176.798286,212.17444 179.41189,168.816299 177.420326,144.261857 C174.49859,108.239096 170.004386,75.4766204 164.659939,47.3666153 C161.081189,28.5435902 156.960952,11.8646553 156.043833,10.3966131 C153.445279,6.23708086 147.198235,4.84818982 137.229689,6.40819107 C96.4681677,15.6745676 71.8028415,21.7353148 63.2968546,24.5719028 C46.6295157,30.1301495 36.5083206,38.0715454 32.495576,52.2880214 C29.3284254,63.508701 18.8883222,127.735621 1.21960948,244.733254 Z"></path>
                                </g>
                                <path d="M116.759414,92.1111054 L124.665558,84.3799058 L132.633266,92.1111054 L124.665558,100.139816 L116.759414,92.1111054 Z M116.514121,110.262597 L124.420266,102.531397 L132.387973,110.262597 L124.420266,118.291307 L116.514121,110.262597 Z M98.5986379,92.2996246 L106.461425,84.3799058 L123.443645,101.309496 L104.367572,120.35831 L96.6453975,112.583753 L107.367859,101.309496 L98.5986379,92.2996246 Z" id="Combined-Shape" fill="#FFFFFF" opacity="0" mask="url(#mask-10)"></path>
                                <g id="Group-21" filter="url(#filter-11)" mask="url(#mask-10)">
                                    <g transform="translate(298.276151, -6.868132)">
                                        <path d="M2.88286515,0.957337068 C1.06236029,21.9380738 0.383623166,38.8164824 0.846653786,51.5925626 C1.20736574,61.5454354 4.81427466,80.9190372 7.78872289,110.481428 C8.351206,116.071824 8.351206,124.685095 7.78872289,136.321241" id="Path-40-Copy" stroke="#EFEFEF" stroke-width="2.94348509" transform="translate(4.458203, 68.639289) scale(-1, 1) translate(-4.458203, -68.639289) "></path>
                                        <path d="M0.8556379,135.426177 L1.11143786,140.307082" id="Path-55" stroke="#414850" stroke-width="1.96232339"></path>
                                    </g>
                                </g>
                                <path d="M292.161076,288.052531 C273.240307,236.063737 264.270508,189.622083 265.251679,148.72757 C266.031027,116.244949 275.000825,64.9096233 292.161076,-5.27840543" id="Path-23" stroke="#FFFFFF" stroke-width="5.88697017" opacity="0.900000036" mask="url(#mask-10)"></path>
                                <path d="M145.880279,3.93531612 C159.686273,57.3493811 167.699173,100.356969 169.918982,132.958079 C172.138791,165.559189 170.503505,216.216133 165.013124,284.928911" id="Path-18" stroke="#FFFFFF" stroke-width="5.88697017" opacity="0.900000036" mask="url(#mask-10)"></path>
                                <polygon id="Path-22" fill-opacity="0.03" fill="#000000" mask="url(#mask-10)" points="369.418714 255.053587 375.520478 91.8375997 387.666559 255.053587"></polygon>
                                <polygon id="Path-22-Copy" fill-opacity="0.03" fill="#000000" mask="url(#mask-10)" transform="translate(62.480404, 173.512336) rotate(2.000000) translate(-62.480404, -173.512336) " points="51.7396943 255.20421 60.513826 91.8204629 73.2211131 254.453779"></polygon>
                                <path d="M41.562811,39.6643195 C54.2486606,54.0273174 61.1614706,64.9147149 62.3012409,72.3265119 C63.4410113,79.7383088 63.4410113,139.905106 62.3012409,252.826902" id="Path-19" stroke="#000000" stroke-width="1.92542275" opacity="0.100000001" mask="url(#mask-10)"></path>
                                <path d="M375.295084,39.6643195 C389.943277,54.0273174 397.837259,64.9147149 398.977029,72.3265119 C400.116799,79.7383088 400.116799,139.905106 398.977029,252.826902" id="Path-19-Copy" stroke="#000000" stroke-width="1.92542275" opacity="0.100000001" mask="url(#mask-10)" transform="translate(387.563470, 146.245611) scale(-1, 1) translate(-387.563470, -146.245611) "></path>
                                <g id="Group-22" filter="url(#filter-12)" mask="url(#mask-10)">
                                    <g transform="translate(132.458159, 2.943485)">
                                        <path d="M3.36511179,0.957337068 C0.939738078,20.5595928 -0.0414334702,36.7487607 0.42159715,49.524841 C0.782309103,59.4777138 5.78710708,79.3438127 8.76155531,108.906203 C9.32403842,114.4966 9.16050983,123.634946 8.27096953,136.321241" id="Path-40" stroke="#EFEFEF" stroke-width="2.94348509"></path>
                                        <path d="M8.23167103,135.430401 L7.46707374,140.25783" id="Path-55" stroke="#414850" stroke-width="1.96232339"></path>
                                    </g>
                                </g>
                            </g>
                        </g>
                        <g id="Head" transform="translate(220.694555, 211.269974) rotate(2.000000) translate(-220.694555, -211.269974) translate(75.694555, 5.769974)">
                            <g id="Combined-Shape">
                                <use fill="#ECD6C6" fill-rule="evenodd" xlink:href="#path-13"></use>
                                <path stroke-opacity="0.03" stroke="#000000" stroke-width="0.625" d="M152.713699,406.908237 C159.337923,406.812562 165.721111,404.361888 172.447192,399.525901 C178.135518,395.436049 184.046329,389.699899 191.409836,381.362411 C194.360605,378.02134 197.450376,374.381326 201.729593,369.237899 C201.162145,369.919946 210.333855,358.858991 213.03835,355.633193 C234.696107,329.800814 262.010948,279.234524 263.435321,258.888348 C270.944461,134.717924 270.192306,85.04492 259.067914,58.859946 C253.426168,45.5802108 244.885929,38.5373414 231.494705,35.3672393 C220.767047,32.8276829 211.743897,32.6610551 180.84102,33.5323728 C168.756298,33.8731058 161.300944,34.0179363 152.707688,34.0179363 C143.469155,34.0179363 135.437347,33.8254351 122.609803,33.3770557 C91.9254921,32.3045031 83.207381,32.418131 72.5840599,34.9663689 C59.2730622,38.1593054 50.7583332,45.3966786 45.1398103,59.1008314 C33.9672726,86.3517953 33.3751016,138.991885 41.6121259,266.642209 C43.8458329,287.01528 66.9520214,329.859758 87.7422098,357.608042 C113.262512,391.669521 131.962129,405.811271 152.713707,406.908238 Z"></path>
                            </g>
                            <g id="Group-10" transform="translate(118.665351, 248.558451)">
                                <path d="M10.868113,11.9870536 C13.9483361,11.2498808 16.0285452,11.2498808 17.1087405,11.9870536 C18.1889357,12.7242264 19.837981,14.9749888 22.0558765,18.7393407 C18.3949067,17.5148009 15.9787231,16.5490372 14.8073255,15.8420493 C13.635928,15.1350615 12.3228571,13.8500629 10.868113,11.9870536 Z" id="Path-25" fill="#373737" opacity="0.5" transform="translate(16.461995, 15.086757) rotate(-15.000000) translate(-16.461995, -15.086757) "></path>
                                <path d="M36.4401437,11.9870536 C39.5203667,11.2498808 41.6005759,11.2498808 42.6807711,11.9870536 C43.7609664,12.7242264 45.4100117,14.9749888 47.6279071,18.7393407 C43.9669374,17.5148009 41.5507538,16.5490372 40.3793562,15.8420493 C39.2079587,15.1350615 37.8948878,13.8500629 36.4401437,11.9870536 Z" id="Path-25-Copy" fill="#373737" opacity="0.5" transform="translate(42.034025, 15.086757) scale(-1, 1) rotate(-15.000000) translate(-42.034025, -15.086757) "></path>
                                <path d="M54.1825555,0 C47.4158673,7.18762162 46.1569679,11.8430705 50.4058572,13.9663467 C54.6547465,16.0896229 57.4580176,17.151261 58.8156706,17.151261 C53.7253288,14.3171515 50.9220577,11.9446392 50.4058572,10.033724 C49.8896567,8.12280891 51.1485561,4.77823423 54.1825555,0 Z" id="Path-10-Copy" fill="#373737" opacity="0.349999994" transform="translate(53.381614, 8.575630) scale(-1, 1) translate(-53.381614, -8.575630) "></path>
                                <path d="M20.5261468,2.51929478 C22.529048,1.23150065 24.6990012,5.77675567 28.0142074,5.77675567 C31.3294137,5.77675567 33.3305928,1.00786668 37.6481107,2.51929478 C39.0620247,5.77675567 36.8085455,13.47314 28.0142074,13.3381157 C19.2198694,13.2030914 20.5261468,5.06684088 20.5261468,2.51929478 Z" id="Path-43" fill="#FFFFFF" opacity="0.349999994"></path>
                                <path d="M6.23499798,0 C-0.531690205,7.18762162 -1.79058964,11.8430705 2.45829968,13.9663467 C6.707189,16.0896229 9.51046012,17.151261 10.868113,17.151261 C5.77777131,14.3171515 2.97450019,11.9446392 2.45829968,10.033724 C1.94209917,8.12280891 3.20099861,4.77823423 6.23499798,0 Z" id="Path-10" fill="#373737" opacity="0.349999994"></path>
                            </g>
                            <path d="M259.165309,75.997721 C236.671961,87.596519 250.032937,101.916504 262.092664,159.855164 C263.348535,165.888758 262.06504,195.921629 263.748118,207.277555 C264.2274,210.511326 266.061389,210.447255 269.250085,207.085342 L271.727637,153.367858 C272.653594,94.3646455 268.466151,68.5745999 259.165309,75.997721 Z" id="Path-3" fill="#3C3C3C"></path>
                            <path d="M15.66623,106.088092 C28.5701809,94.2064174 35.6799711,92.9461756 36.9956007,102.307366 C50.364752,106.20426 48.3296994,128.664741 40.2545759,175.660017 C39.5569671,179.719932 40.8083655,204.402633 40.2473327,211.872491 C39.910289,216.360051 38.8332696,218.169962 37.0162747,217.302222 L29.122982,169.348936 L17.5964573,120.194682 L15.66623,106.088092 Z" id="Path-3-Copy" fill="#3C3C3C"></path>
                            <g id="Group-3" transform="translate(264.270217, 179.748179)">
                                <mask id="mask-15" fill="white">
                                    <use xlink:href="#path-14"></use>
                                </mask>
                                <g id="Path-4">
                                    <use fill="#EBD6C8" fill-rule="evenodd" xlink:href="#path-14"></use>
                                    <path stroke-opacity="0.03" stroke="#000000" stroke-width="0.625" d="M3.55908668,3.6522899 L0.428494655,63.9613392 C2.39107316,65.3501504 4.66114951,65.317205 7.29212815,63.8418487 C9.73208796,62.4736088 10.6365743,60.7210241 11.772622,56.3781702 C12.0941907,55.1488852 12.1545979,54.9224687 12.3111765,54.3820665 C12.6196161,53.3175441 12.9300182,52.434076 13.303756,51.6050087 C21.7690249,32.8263958 25.3976827,13.6216483 22.6438334,7.10696056 C19.4848787,-0.366071426 13.1857042,-1.5309283 3.55908668,3.6522899 Z"></path>
                                </g>
                                <path d="M12.9594784,19.567965 C8.17507702,12.5239704 3.86015232,10.7798119 0.0147042758,14.3354894 C-1.11522689,15.3802755 0.0598641952,32.1865209 7.32533489,47.2836593 C8.14150786,48.9796095 11.4463225,50.0045919 13.3370427,52.5711345 C13.7233802,53.0955651 14.6281611,54.4401785 16.0513856,56.6049747 L12.9594784,19.567965 Z" id="Path-4-Copy-2" fill="#000000" opacity="0.00999999978" mask="url(#mask-15)" transform="translate(7.847119, 34.575664) scale(-1, 1) rotate(1.000000) translate(-7.847119, -34.575664) "></path>
                                <path d="M1.90878341,15.6080054 C7.88132923,9.96576979 12.4917155,8.97567086 15.7399422,12.6377086 C18.9881688,16.2997464 19.9815466,17.8168763 18.7200755,17.1890984 L16.7429897,15.1244509 C17.7375954,18.7317067 17.252981,23.6068929 15.2891463,29.7500095 C12.3433944,38.9646845 9.27853536,47.441372 8.79980462,47.1287092 C8.32107388,46.8160464 12.0688034,40.2875241 14.704355,27.1889443 C15.7222979,22.1298114 15.9172284,17.7415989 15.2891463,14.0243069 C13.3989978,12.8423781 11.8289748,12.3801786 10.5790774,12.6377086 C7.74913589,13.2207923 4.8590379,15.8925267 1.90878341,20.652912 L1.90878341,15.6080054 Z M1.30403858,27.0980575 C5.38274055,24.6915756 8.31273434,24.273057 10.0940199,25.8425017 C11.4211789,27.0118272 8.94457158,26.0423982 5.0411774,27.0980575 C4.15073628,27.3388742 2.90502334,28.3874186 1.30403858,30.2436907 L1.30403858,27.0980575 Z M0.777112447,36.5896075 C0.779118645,36.5136308 1.2176216,36.3616775 2.09262132,36.1337475 C3.4051209,35.7918526 3.57876852,37.9298091 3.89262712,39.2404065 C4.10186618,40.1141382 3.14197455,41.1873085 1.01295221,42.4599176 L0.777112447,36.5896075 Z" id="Combined-Shape" fill="#000000" opacity="0.100000001" mask="url(#mask-15)"></path>
                            </g>
                            <g id="Group-5" transform="translate(0.000000, 0.000000)">
                                <mask id="mask-17" fill="white">
                                    <use xlink:href="#path-16"></use>
                                </mask>
                                <use id="Combined-Shape" fill="#333333" xlink:href="#path-16"></use>
                                <path d="M232.726723,89.4442816 C224.376598,83.648368 219.440625,79.8789736 217.918804,78.1360982 C212.074394,71.4427541 208.019847,68.1048281 203.124943,67.484831 C194.570895,66.4013605 185.691817,70.7859499 176.487709,80.6385993 L232.726723,89.4442816 Z" id="Path-50" fill="#000000" opacity="0.300000012" mask="url(#mask-17)"></path>
                                <g id="Group-6" opacity="0.300000012" mask="url(#mask-17)">
                                    <g transform="translate(-28.957951, -14.215305)">
                                        <path d="M163.098755,64.8360737 C125.673322,104.474214 97.0161408,127.438897 77.127211,133.73012 C57.2382813,140.021343 41.0827964,138.863984 28.6607565,130.258042" id="Path-48" stroke="#262626" stroke-width="12.8821071"></path>
                                        <path d="M149.47928,50.7127761 C99.2241146,101.486831 61.7595974,125.667186 37.0857281,123.253841 C12.4118588,120.840495 0.114510795,112.317237 0.193684127,97.6840667" id="Path-49" stroke="#262626" stroke-width="24.133837"></path>
                                        <path d="M176.459469,76.1369581 C124.710858,122.248227 89.2361142,148.041336 70.0352383,153.516284 C50.8343624,158.991232 34.6043387,150.968036 21.345167,129.446697" id="Path-51" stroke="#262626" stroke-width="6.97494787"></path>
                                        <path d="M191.765404,86.9060476 C147.29147,128.171133 108.375211,156.084674 75.0166281,170.646672 C56.2957727,178.193038 41.6523053,172.649729 31.0862259,154.016745" id="Path-52" stroke="#262626" stroke-width="24.133837"></path>
                                        <path d="M300.799723,88.8874824 C267.042316,52.5730143 256.699414,32.8538676 269.771016,29.7300424" id="Path-29" stroke="#262626" stroke-width="18.5079715"></path>
                                        <path d="M54.1578049,47.1941771 C39.6521767,65.8775049 30.6569652,85.7436762 27.1721705,106.792691 C23.0833728,131.490032 31.68631,156.391318 12.5199243,157.060735" id="Path-20" stroke="#2A2A2A" stroke-width="4.44328303"></path>
                                        <path d="M225.067432,17.0148924 C222.089223,28.0895542 225.212529,41.5049954 234.437351,57.2612162 C243.662174,73.017437 263.295879,92.3048397 293.338468,115.123424" id="Path-26" stroke="#262626" stroke-width="19.6905291"></path>
                                        <path d="M268.823595,84.4199158 C277.633879,89.4895871 283.611982,92.6696998 286.757904,93.9602539 C289.903827,95.250808 293.375604,96.1567788 297.173236,96.6781663" id="Path-58" stroke="#262626" stroke-width="2.94348509"></path>
                                        <path d="M296.080196,98.408471 C292.336152,108.400862 267.111907,108.07239 220.407464,97.4230528 C150.350798,81.4490478 166.147767,28.9313521 79.4760145,28.9313521" id="Path-24" stroke="#262626" stroke-width="4.44328303"></path>
                                        <path d="M290.060666,107.083251 C272.164068,104.290562 250.363512,95.6264581 224.658998,81.0909401 C186.102227,59.2876631 177.842944,-1.35405182 163.534652,0.0247991139" id="Path-16" stroke="#262626" stroke-width="9.22529459"></path>
                                        <path d="M202.563896,16.3171346 C205.382315,33.0217068 208.697141,45.1726429 212.508374,52.7699426 C216.319607,60.3672424 225.416919,72.6870866 239.800309,89.729475" id="Path-28" stroke="#262626" stroke-width="10.0691744"></path>
                                        <path d="M300.882729,96.0762373 C233.751292,52.7071168 223.55956,23.5640086 270.307534,8.64691254" id="Path-17" stroke="#262626" stroke-width="4.44330841"></path>
                                        <path d="M131.586105,38.0732421 C94.6602638,85.1222937 63.4130217,110.049828 37.8443788,112.855845 C12.2757358,115.661862 9.31126565,113.794962 28.9509682,107.255145" id="Path-53" stroke="#262626" stroke-width="4.44328323"></path>
                                        <path d="M109.086852,28.8988361 C89.0157781,67.2581048 65.9577875,91.2115896 39.9128803,100.759291 C13.8679731,110.306991 9.17539102,111.584386 25.8351341,104.591475" id="Path-54" stroke="#262626" stroke-width="21.3209043"></path>
                                        <path d="M80.2172988,38.2137748 C65.9368753,61.0407421 53.5407026,77.1299657 43.0287806,86.4814455 C32.5168587,95.8329253 27.7993229,99.2575203 28.8761731,96.7552304" id="Path-27" stroke="#262626" stroke-width="4.44328323"></path>
                                        <path d="M121.025135,9.15312177 C142.165274,22.0056673 155.133225,30.8983713 159.928988,35.8312338 C176.040869,52.4037167 184.012315,69.6086539 197.454908,79.2119354 C214.019504,91.0455511 221.934862,96.8163272 221.200981,96.5242636" id="Path-21" stroke="#262626" stroke-width="19.6905291"></path>
                                    </g>
                                </g>
                                <path d="M56.8918247,18.2198438 C31.2514866,49.8898122 22.9895715,68.6055051 32.1060796,74.3669223 C45.7808417,83.0090482 64.9713315,57.4375727 73.0962554,63.8154828 C81.2211792,70.1933929 68.879582,100.415645 77.5065353,103.762228 C86.1334885,107.10881 93.565256,100.926651 99.6365029,100.714597 C105.70775,100.502543 96.9015899,111.627898 108.153295,117.108283 C115.654431,120.761873 138.250693,109.914584 175.942082,84.5664162 L126.094614,136.724972 C99.7152238,148.995365 84.0492842,153.190439 79.0967955,149.310194 C71.6680624,143.489827 84.6203854,130.827891 81.4336957,127.899277 C78.2470059,124.970663 56.695792,151.888058 46.6878024,142.514627 C36.6798129,133.141196 50.6087974,115.536156 43.1552645,110.977746 C35.7017317,106.419335 37.8435263,114.785048 17.7823242,115.485737 C4.40818941,115.952863 -3.59637965,101.66459 -6.23138302,72.6209157 C10.6655675,51.8246388 24.3354057,36.9266064 34.7781318,27.9268184 C45.2208578,18.9270304 52.5920888,15.6913722 56.8918247,18.2198438 Z" id="Path-47" fill="#FFFFFF" opacity="0.0700000003" mask="url(#mask-17)" transform="translate(84.855349, 84.048277) rotate(-2.000000) translate(-84.855349, -84.048277) "></path>
                                <path d="M194.751877,79.1715208 C192.933647,75.8692282 193.824871,72.9771344 197.425551,70.4952392 C199.989584,68.7278888 202.387374,67.7775794 204.618921,67.6443111 C199.498595,67.0144576 195.040027,67.6384287 191.243219,69.5162243 C185.204022,71.9816996 180.224126,75.8043787 176.303529,80.9842616 L194.751877,79.1715208 Z" id="Path-56" fill="#000000" opacity="0.100000001" mask="url(#mask-17)"></path>
                            </g>
                            <g id="Group-2" transform="translate(28.008726, 216.807643) rotate(-1.000000) translate(-28.008726, -216.807643) translate(14.251393, 181.807643)">
                                <mask id="mask-19" fill="white">
                                    <use xlink:href="#path-18"></use>
                                </mask>
                                <g id="Path-4-Copy" transform="translate(13.407396, 34.557646) rotate(1.000000) translate(-13.407396, -34.557646) ">
                                    <use fill="#EBD6C8" fill-rule="evenodd" xlink:href="#path-18"></use>
                                    <path stroke-opacity="0.03" stroke="#000000" stroke-width="0.625" d="M22.4122224,3.91098483 C12.0521232,-1.56307144 5.26308876,-0.334021005 1.86287659,7.55543689 C-0.859361037,13.8718013 3.09888625,30.3676839 12.7047457,51.2677033 C13.3974783,52.7749214 13.7128064,54.2553616 14.2208371,57.6859065 C14.2601989,57.9518102 14.2601989,57.9518102 14.2997312,58.2176528 C15.1161703,63.6933251 15.989642,66.0523659 18.3650964,67.3588797 C21.2038669,68.92022 23.6573136,68.9531675 25.7764716,67.4780072 L22.4122224,3.91098483 Z"></path>
                                </g>
                                <path d="M23.615408,18.1263819 C18.288197,10.7450904 13.8463192,9.12993699 10.2897745,13.2809216 C8.20493646,15.7142189 11.8305268,31.5625295 18.2781284,45.5909463 C19.0800101,47.3356462 20.8201968,48.445226 23.826013,52.06494 C24.2218316,52.5415993 24.9131087,53.8173756 25.8998442,55.892269 L23.615408,18.1263819 Z" id="Path-4-Copy-2" fill="#000000" opacity="0.00999999978" mask="url(#mask-19)" transform="translate(17.799918, 33.466001) rotate(1.000000) translate(-17.799918, -33.466001) "></path>
                                <path d="M8.20684355,14.2543821 C14.1793894,8.61214646 18.7897756,7.62204753 22.0380023,11.2840853 C25.286229,14.946123 26.2796068,16.4632529 25.0181357,15.835475 L23.0410499,13.7708276 C24.0356556,17.3780834 23.5510411,22.2532696 21.5872065,28.3963862 C18.6414545,37.6110611 15.5765955,46.0877487 15.0978648,45.7750859 C14.619134,45.462423 18.3668636,38.9339007 21.0024152,25.835321 C22.0203581,20.776188 22.2152885,16.3879755 21.5872065,12.6706836 C19.697058,11.4887547 18.127035,11.0265553 16.8771375,11.2840853 C14.047196,11.8671689 11.157098,14.5389034 8.20684355,19.2992886 L8.20684355,14.2543821 Z M7.60209873,25.7444342 C11.6808007,23.3379523 14.6107945,22.9194337 16.3920801,24.4888784 C17.719239,25.6582039 15.2426317,24.6887749 11.3392375,25.7444342 C10.4487964,25.9852509 9.20308349,27.0337953 7.60209873,28.8900674 L7.60209873,25.7444342 Z M7.07517259,35.2359842 C7.07717879,35.1600075 7.51568175,35.0080542 8.39068147,34.7801242 C9.70318105,34.4382292 9.87682866,36.5761858 10.1906873,37.8867832 C10.3999263,38.7605148 9.44003469,39.8336852 7.31101236,41.1062943 L7.07517259,35.2359842 Z" id="Combined-Shape-Copy" fill="#000000" opacity="0.100000001" mask="url(#mask-19)" transform="translate(16.311302, 27.452783) scale(-1, 1) rotate(1.000000) translate(-16.311302, -27.452783) "></path>
                                <g id="Group" mask="url(#mask-19)">
                                    <g transform="translate(15.440335, 57.435703)">
                                        <ellipse id="Oval-3-Copy" fill="#565656" transform="translate(4.191634, 4.130100) rotate(-22.000000) translate(-4.191634, -4.130100) " cx="4.19163363" cy="4.13009953" rx="2.47693263" ry="3.40084649"></ellipse>
                                        <ellipse id="Oval-3" fill="#373737" transform="translate(3.572400, 4.439267) rotate(-22.000000) translate(-3.572400, -4.439267) " cx="3.57240047" cy="4.43926739" rx="2.47693263" ry="3.40084649"></ellipse>
                                    </g>
                                </g>
                            </g>
                            <g id="Group-7" transform="translate(54.359319, 153.411311)" fill="#373737">
                                <path d="M66.9882224,4.38326308 C67.3600397,7.34072828 67.4387162,9.58766142 67.2242521,11.1240625 C67.009788,12.6604636 66.338676,14.6576824 65.2109162,17.115719 C46.189432,18.2768481 30.363128,20.5215324 17.7320042,23.849772 C9.20611838,26.0963013 3.03766154,32.9887911 0.69760713,31.9267241 C-1.20775012,31.0619505 1.00498871,26.7968148 7.33582362,19.1313171 C17.1554324,14.5753485 24.3053289,11.7035345 28.7855132,10.515875 C33.2656975,9.32821563 45.9999339,7.28401164 66.9882224,4.38326308 Z" id="Path-7-Copy-2"></path>
                                <path d="M115.536681,0.245602166 C114.444891,3.01095086 114.027495,5.23366128 114.284492,6.91373341 C114.541489,8.59380555 115.677107,11.0663343 117.691345,14.3313197 C127.138082,14.2264171 137.267658,14.727031 148.080073,15.8331612 C176.671696,18.7581373 186.358236,28.4513987 188.165574,28.5019621 C189.968069,28.55239 188.425042,24.660108 183.536492,16.825116 C179.380279,13.3929759 174.392067,10.6391197 168.571855,8.56354738 C159.29699,5.6123159 141.618599,2.83966749 115.536681,0.245602166 Z" id="Path-7-Copy-3"></path>
                            </g>
                            <g id="Group-4" transform="translate(77.572217, 189.559953)" fill="#373737">
                                <path d="M36.5194959,9.80000961 C34.1866075,5.56113105 29.7189374,2.48617115 23.1164856,0.575129917 C16.5140338,-1.33591131 8.8370344,2.23671557 0.0854874373,11.2930106 C8.3371001,4.1477568 15.3351431,1.09768025 21.0796163,2.14278093 C26.8240896,3.1878816 31.9707161,5.74029116 36.5194959,9.80000961 Z" id="Path-9" opacity="0.200000003"></path>
                                <path d="M36.7600025,9.61123228 C37.4167379,15.0401722 28.7401425,9.71884725 17.696993,11.8863283 C12.9404165,12.8199197 3.94179925,22.7930941 1.77647515,17.6072658 C1.49534311,16.9339706 4.72710271,9.55059264 11.8067434,6.43348429 C24.4708639,0.857574803 36.0796658,3.98719068 36.7600025,9.61123228 Z" id="Path-8"></path>
                                <path d="M101.57639,11.6271977 C101.642513,17.0996909 109.532403,10.5567117 120.754128,11.0823251 C125.587622,11.3087207 135.814843,19.8641336 137.274711,14.4109745 C137.464251,13.7029707 133.289545,6.86576416 125.867432,4.81805146 C112.590695,1.15508584 101.507891,5.95803769 101.57639,11.6271977 Z" id="Path-8-Copy"></path>
                                <path d="M138.333086,11.7526911 C138.104071,7.1546367 133.615657,3.58200981 124.867844,1.03481049 C116.120031,-1.51238884 108.443031,2.06023805 101.836845,11.7526911 C108.635122,3.75894137 115.633165,0.708864817 122.830974,2.6024615 C130.028784,4.49605818 135.196154,7.54613473 138.333086,11.7526911 Z" id="Path-9-Copy" opacity="0.200000003" transform="translate(120.084966, 5.996177) scale(-1, 1) translate(-120.084966, -5.996177) "></path>
                            </g>
                            <g id="Beard" transform="translate(111.902056, 382.901878)">
                                <mask id="mask-21" fill="white">
                                    <use xlink:href="#path-20"></use>
                                </mask>
                                <use id="Path-5" fill="#4C4C4C" xlink:href="#path-20"></use>
                                <g id="Group-8" opacity="0.100000001" mask="url(#mask-21)" stroke="#2A2A2A">
                                    <g transform="translate(-6.176320, -34.882801)">
                                        <path d="M0.18917672,23.1977614 L23.8637828,59.6215727" id="Path-22" stroke-width="2.96218869"></path>
                                        <path d="M14.0084605,23.857097 L26.8582553,61.2710429" id="Path-30" stroke-width="5.77523223"></path>
                                        <path d="M27.4981313,24.4443177 L33.3202289,68.3944168" id="Path-31" stroke-width="5.77523223"></path>
                                        <path d="M35.408844,18.1561623 L39.0863682,67.5080286" id="Path-32" stroke-width="2.96218869"></path>
                                        <path d="M47.2259861,-3.33321126e-05 C46.6165108,18.1126534 46.1826061,31.6981425 45.9242722,40.7564342 C45.6659383,49.8147258 45.4243079,59.916382 45.199381,71.0614027" id="Path-33" stroke-width="10.8385106"></path>
                                        <path d="M56.0907741,21.3060349 L50.8169656,71.6962708" id="Path-34" stroke-width="2.96218869"></path>
                                        <path d="M63.6718738,24.2485775 L58.7276783,63.1004409" id="Path-35" stroke-width="8.58816497"></path>
                                        <path d="M74.5491038,22.8565037 L64.3310998,69.9745292" id="Path-36" stroke-width="2.96218869"></path>
                                        <path d="M81.4220505,27.4473852 L73.8409508,58.7413571" id="Path-37" stroke-width="8.57944483"></path>
                                        <path d="M93.9228821,27.7525854 L77.1370811,61.3297643" id="Path-38" stroke-width="2.96218869"></path>
                                    </g>
                                </g>
                            </g>
                            <g id="Goatie" transform="translate(139.567974, 339.288740)">
                                <mask id="mask-23" fill="white">
                                    <use xlink:href="#path-22"></use>
                                </mask>
                                <use id="Path-5" fill="#4C4C4C" xlink:href="#path-22"></use>
                                <g id="Group-8" opacity="0.100000001" mask="url(#mask-23)" stroke="#2A2A2A">
                                    <g transform="translate(2.545151, -32.295313)">
                                        <path d="M0.215466105,14.0691937 L3.04864919,52.2353478" id="Path-32" stroke-width="3.95413959"></path>
                                        <path d="M10.1256639,-2.57773139e-05 C9.65612098,14.0073795 9.32183866,24.5136868 9.1228169,31.5188962 C8.92379514,38.5241055 8.73764188,46.3361985 8.56435712,54.9551751" id="Path-33" stroke-width="5.92319223"></path>
                                        <path d="M16.9551409,16.4769739 L12.8921724,55.4461488" id="Path-34" stroke-width="3.67284631"></path>
                                    </g>
                                </g>
                            </g>
                            <path d="M130.777882,336.274453 C138.940634,341.234653 146.104435,343.606371 152.269286,343.389605 C158.434137,343.17284 164.590817,340.238464 170.739327,334.586478 C161.81831,337.339558 155.158069,338.809015 150.758605,338.994849 C146.35914,339.180683 139.6989,338.273884 130.777882,336.274453 Z" id="Lips" fill="#D3C0B1"></path>
                            <g id="Mouth" transform="translate(98.073863, 286.514044)">
                                <mask id="mask-25" fill="white">
                                    <use xlink:href="#path-24"></use>
                                </mask>
                                <use id="Path-6" fill="#FFFFFF" xlink:href="#path-24"></use>
                                <g id="Group-11" opacity="0.5" mask="url(#mask-25)">
                                    <g transform="translate(2.580171, 7.217473)">
                                        <path d="M1.62622808,4.07463955 C22.7056881,6.99402323 38.8986133,8.45371507 50.2050035,8.45371507 C69.6033209,8.45371507 86.7023295,6.68472666 101.50203,3.14674985" id="Path-57" stroke="#979797" stroke-width="0.625" transform="translate(51.564129, 5.800232) rotate(-3.000000) translate(-51.564129, -5.800232) "></path>
                                        <path d="M2.21153145,19.1380153 C23.2909915,22.057399 39.4839167,23.5170909 50.7903069,23.5170909 C70.1886242,23.5170909 87.2876329,20.898988 102.087333,15.6627823" id="Path-57-Copy" stroke="#979797" stroke-width="0.625" transform="translate(52.149432, 19.589937) rotate(-2.000000) translate(-52.149432, -19.589937) "></path>
                                        <g id="Rectangle" stroke="none">
                                            <use fill="#DEDEDE" fill-rule="evenodd" xlink:href="#path-26"></use>
                                            <rect stroke="#979797" stroke-width="0.625" x="38.259024" y="7.74199268" width="1.95517106" height="1.7100647" rx="0.562586547"></rect>
                                        </g>
                                        <g id="Rectangle-Copy" stroke="none" transform="translate(58.833964, 8.033985) rotate(-4.000000) translate(-58.833964, -8.033985) ">
                                            <use fill="#DEDEDE" fill-rule="evenodd" xlink:href="#path-27"></use>
                                            <rect stroke="#979797" stroke-width="0.625" x="57.8563786" y="7.17895302" width="1.95517106" height="1.7100647" rx="0.562586547"></rect>
                                        </g>
                                        <g id="Rectangle-Copy-2" stroke="none" transform="translate(79.390721, 5.744118) rotate(-8.000000) translate(-79.390721, -5.744118) ">
                                            <use fill="#DEDEDE" fill-rule="evenodd" xlink:href="#path-28"></use>
                                            <rect stroke="#979797" stroke-width="0.625" x="78.4131356" y="4.88908533" width="1.95517106" height="1.7100647" rx="0.562586547"></rect>
                                        </g>
                                        <g id="Rectangle-Copy-3" stroke="none" transform="translate(99.866436, 1.544906) rotate(-17.000000) translate(-99.866436, -1.544906) ">
                                            <use fill="#DEDEDE" fill-rule="evenodd" xlink:href="#path-29"></use>
                                            <rect stroke="#979797" stroke-width="0.625" x="98.8888506" y="0.689874" width="1.95517106" height="1.7100647" rx="0.562586547"></rect>
                                        </g>
                                        <g id="Rectangle-Copy-4" stroke="none" transform="translate(20.092322, 7.716916) rotate(4.000000) translate(-20.092322, -7.716916) ">
                                            <use fill="#DEDEDE" fill-rule="evenodd" xlink:href="#path-30"></use>
                                            <rect stroke="#979797" stroke-width="0.625" x="19.1147364" y="6.86188331" width="1.95517106" height="1.7100647" rx="0.562586547"></rect>
                                        </g>
                                        <g id="Rectangle-Copy-5" stroke="none" transform="translate(1.675831, 5.640409) rotate(9.000000) translate(-1.675831, -5.640409) ">
                                            <use fill="#DEDEDE" fill-rule="evenodd" xlink:href="#path-31"></use>
                                            <rect stroke="#979797" stroke-width="0.625" x="0.698245543" y="4.78537649" width="1.95517106" height="1.7100647" rx="0.562586547"></rect>
                                        </g>
                                        <g id="Rectangle-Copy-6" stroke="none">
                                            <use fill="#DEDEDE" fill-rule="evenodd" xlink:href="#path-32"></use>
                                            <rect stroke="#979797" stroke-width="0.625" x="40.187655" y="22.7675505" width="1.95517106" height="1.7100647" rx="0.562586547"></rect>
                                        </g>
                                        <g id="Rectangle-Copy-7" stroke="none" transform="translate(59.215436, 23.103994) rotate(-5.000000) translate(-59.215436, -23.103994) ">
                                            <use fill="#DEDEDE" fill-rule="evenodd" xlink:href="#path-33"></use>
                                            <rect stroke="#979797" stroke-width="0.625" x="58.2378501" y="22.2489613" width="1.95517106" height="1.7100647" rx="0.562586547"></rect>
                                        </g>
                                        <g id="Rectangle-Copy-8" stroke="none" transform="translate(77.193593, 20.888210) rotate(-8.000000) translate(-77.193593, -20.888210) ">
                                            <use fill="#DEDEDE" fill-rule="evenodd" xlink:href="#path-34"></use>
                                            <rect stroke="#979797" stroke-width="0.625" x="76.2160078" y="20.0331778" width="1.95517106" height="1.7100647" rx="0.562586547"></rect>
                                        </g>
                                        <g id="Rectangle-Copy-9" stroke="none" transform="translate(22.518284, 22.246645) rotate(3.000000) translate(-22.518284, -22.246645) ">
                                            <use fill="#DEDEDE" fill-rule="evenodd" xlink:href="#path-35"></use>
                                            <rect stroke="#979797" stroke-width="0.625" x="21.5406981" y="21.3916128" width="1.95517106" height="1.7100647" rx="0.562586547"></rect>
                                        </g>
                                    </g>
                                </g>
                                <path d="M5.43157961,18.9024869 L6.71058472,19.3391898 C26.4959732,22.7255384 41.0318205,24.3795873 50.3181265,24.3013366 C59.6044326,24.2230859 76.2637189,21.7287489 100.295985,16.8183256 L102.214493,15.9707384 C77.8916641,20.7057445 60.5004937,23.1306999 50.0409819,23.2456045 C39.5814701,23.3605091 24.7116693,21.9128033 5.43157961,18.9024869 Z" id="Path-14" fill="#000000" opacity="0.300000012" mask="url(#mask-25)"></path>
                            </g>
                            <g id="Stache" opacity="0.800000012" transform="translate(151.262551, 283.864796) rotate(2.000000) translate(-151.262551, -283.864796) translate(94.845187, 276.015502)">
                                <mask id="mask-37" fill="white">
                                    <use xlink:href="#path-36"></use>
                                </mask>
                                <use id="Combined-Shape" fill="#4C4C4C" xlink:href="#path-36"></use>
                                <g id="Group-9" opacity="0.200000003" mask="url(#mask-37)" stroke="#2A2A2A">
                                    <g transform="translate(0.613004, -38.166987)">
                                        <path d="M17.4652717,0.231860951 C17.0242147,17.238344 16.7102124,29.9941209 16.5232647,38.4991916 C16.3363171,47.0042624 16.1614572,56.4889759 15.9986852,66.9533322" id="Path-33" stroke-width="2.5380031"></path>
                                        <path d="M23.3399234,20.4086113 L19.5234443,67.7213431" id="Path-34" stroke-width="5.35104214"></path>
                                        <path d="M28.7483195,23.4290144 L25.1703703,59.9080616" id="Path-35" stroke-width="2.5380031"></path>
                                        <path d="M1.57140493,0.952083504 C1.13034795,17.9585665 0.816345635,30.7143434 0.629397992,39.2194142 C0.442450349,47.724485 0.267590505,57.2091985 0.104818459,67.6735547" id="Path-33-Copy" stroke-width="3.66328223"></path>
                                        <path d="M7.44605671,21.1288339 L3.62957755,68.4415657" id="Path-34-Copy" stroke-width="2.5380031"></path>
                                        <path d="M12.8544528,24.1492369 L9.27650357,60.6282842" id="Path-35-Copy" stroke-width="6.75750851"></path>
                                        <path d="M36.6524904,22.3063943 L29.258062,66.5467609" id="Path-36" stroke-width="5.63233541"></path>
                                        <path d="M41.5060908,26.9259317 L36.019902,56.3086738" id="Path-37" stroke-width="2.5380031"></path>
                                        <path d="M50.5433654,27.3203406 L38.3960415,58.8468464" id="Path-38" stroke-width="8.16397487" transform="translate(44.469703, 43.083593) rotate(-13.000000) translate(-44.469703, -43.083593) "></path>
                                        <path d="M53.5321108,27.6916542 L66.3308666,64.9477088" id="Path-22" stroke-width="7.32009505"></path>
                                        <path d="M61.7971509,30.271046 L71.0961185,65.3999944" id="Path-30" stroke-width="2.5380031"></path>
                                        <path d="M71.5384,31.264159 L75.7516577,72.5300753" id="Path-31" stroke-width="8.16397487"></path>
                                        <path d="M77.4184205,25.6228941 L80.079722,71.9606732" id="Path-32" stroke-width="2.5380031"></path>
                                        <path d="M86.4242578,8.90680567 C85.9832008,25.9132887 85.6691985,38.6690656 85.4822509,47.1741364 C85.2953032,55.6792071 85.1204434,65.1639207 84.9576713,75.6282769" id="Path-33" stroke-width="9.28914743"></path>
                                        <path d="M91.9733715,30.3381586 L96.1866292,71.6040749" id="Path-31-Copy" stroke-width="4.78845559"></path>
                                        <path d="M100.245235,24.5879525 L102.906536,70.9257315" id="Path-32-Copy" stroke-width="8.16397434"></path>
                                        <path d="M109.251072,7.87186402 C108.810015,24.878347 108.496013,37.6341239 108.309065,46.1391947 C108.122117,54.6442655 107.947257,64.128979 107.784485,74.5933352" id="Path-33-Copy-2" stroke-width="3.9445755"></path>
                                    </g>
                                </g>
                            </g>
                        </g>
                    </g>
                </g>
            </g>
        </g>
    </g>
</svg>