<?xml version="1.0" encoding="UTF-8"?>
<svg width="179px" height="367px" viewBox="0 0 179 367" version="1.1" xmlns="http://www.w3.org/2000/svg" xmlns:xlink="http://www.w3.org/1999/xlink">
    <!-- Generator: Sketch 46.2 (44496) - http://www.bohemiancoding.com/sketch -->
    <title>Group 25</title>
    <desc>Created with Sketch.</desc>
    <defs>
        <filter x="-6.6%" y="-1.4%" width="108.8%" height="105.5%" filterUnits="objectBoundingBox" id="filter-1">
            <feOffset dx="-10" dy="10" in="SourceAlpha" result="shadowOffsetOuter1"></feOffset>
            <feColorMatrix values="0 0 0 0 0   0 0 0 0 0   0 0 0 0 0  0 0 0 0.02 0" type="matrix" in="shadowOffsetOuter1" result="shadowMatrixOuter1"></feColorMatrix>
            <feMerge>
                <feMergeNode in="shadowMatrixOuter1"></feMergeNode>
                <feMergeNode in="SourceGraphic"></feMergeNode>
            </feMerge>
        </filter>
        <path d="M78.3051763,194.984754 C70.2866411,184.092086 65.1325916,176.575507 62.8430276,172.435018 C53.3002249,155.177639 59.3855465,156.16081 52.9001128,139.892509 C50.4216519,133.675446 46.352872,122.836613 40.693773,107.37601 C35.8940701,100.960512 34.4137389,96.8994893 36.2527794,95.1929408 C37.3449645,94.1794414 47.4421675,87.4059967 57.1250997,94.3375115 C61.5393406,97.4974403 68.2242917,109.398329 77.1799531,130.040177 L106.205706,22.8705237 C110.138074,13.1340646 114.766947,9.03084907 120.092324,10.5608773 C125.417701,12.0909055 127.434055,18.0420833 126.141386,28.4144107 L110.836236,99.2538259 L117.869009,100.880761 L142.149557,26.2985798 C146.309717,15.2118678 151.549289,10.6428375 157.868271,12.591489 C164.187254,14.5401404 165.606767,21.2848261 162.126809,32.825546 L135.570321,106.018722 L141.39641,108.17607 L171.923632,40.8241661 C176.947516,30.5723337 182.392371,26.8668242 188.258196,29.7076375 C194.124022,32.5484509 194.417252,39.6212503 189.137887,50.9260358 L156.697649,117.318726 L160.8691,120.400557 L190.210189,68.3419466 C195.565487,60.809449 200.339397,58.3284205 204.531919,60.8988613 C208.72444,63.4693021 208.634052,70.3252353 204.260754,81.466661 L174.954867,136.99133 C163.416976,160.908909 155.252012,176.583823 150.459976,184.016072 C145.66794,191.44832 134.442651,199.626973 116.78411,208.552028 L63.7019223,342.162407 C54.586632,354.556064 44.0246539,358.467959 32.0159882,353.898092 C20.0073224,349.328224 17.2886135,338.419723 23.8598614,321.172589 L78.3051763,194.984754 Z" id="path-2"></path>
    </defs>
    <g id="Page-1" stroke="none" stroke-width="1" fill="none" fill-rule="evenodd">
        <g id="Desktop-HD" transform="translate(-580.000000, -415.000000)">
            <g id="Group-25" transform="translate(565.000000, 407.000000)">
                <g id="Hand" filter="url(#filter-1)" transform="translate(0.224457, 0.556505)">
                    <mask id="mask-3" fill="white">
                        <use xlink:href="#path-2"></use>
                    </mask>
                    <g id="Path-23" transform="translate(113.991842, 182.996967) rotate(-7.000000) translate(-113.991842, -182.996967) ">
                        <use fill="#E9D2C2" fill-rule="evenodd" xlink:href="#path-2"></use>
                        <path stroke-opacity="0.06" stroke="#000000" stroke-width="0.625" d="M78.5568406,194.799493 L78.6631478,194.943905 L78.592108,195.108554 L24.1518837,321.283851 C17.6352957,338.387523 20.3071321,349.107953 32.1271334,353.606025 C43.995691,358.122575 54.4134502,354.264095 63.4115029,342.047026 L116.493691,208.436647 L116.643147,208.273128 C134.255946,199.371191 145.443135,191.220298 150.197335,183.846731 C154.980087,176.428882 163.141094,160.761565 174.678499,136.845463 L203.969861,81.3524781 C208.292524,70.3400497 208.381051,63.6253275 204.36858,61.1652757 C200.357516,58.7060867 195.737141,61.1073222 190.482427,68.495384 L160.967754,120.861975 L156.302603,117.415403 L156.416873,117.181536 L188.854741,50.793806 C194.071248,39.6236197 193.785518,32.731733 188.121986,29.9888901 C182.452988,27.2434002 177.162445,30.8438925 172.208261,40.9531738 L141.560869,108.570204 L135.170673,106.203973 L135.276559,105.912137 L161.827615,32.7353279 C165.264542,21.3373117 163.883067,14.7733568 157.776182,12.8901121 C151.658242,11.0034583 146.551707,15.456478 142.446707,26.3953181 L118.077525,101.249751 L110.465743,99.4888705 L110.530784,99.1878317 L125.831285,28.3757638 C127.107259,18.1373952 125.14193,12.3368163 120.006031,10.8612267 C114.87944,9.38831146 110.37543,13.3808437 106.507339,22.9522177 L77.2483596,130.982995 L76.893272,130.164556 C67.9641607,109.583903 61.2909792,97.7039676 56.9431999,94.5916153 C52.7443025,91.5858398 48.1715368,90.9488969 43.5421546,92.0892752 C40.5037498,92.8377403 37.5455764,94.4196018 36.4653447,95.4220091 C34.8055169,96.962256 36.2426539,100.904783 40.9872319,107.268594 C46.6453699,122.726572 50.7133336,133.563231 53.1903962,139.776786 C55.5879084,145.790794 56.2637467,148.852742 56.8877913,154.473941 C56.9338975,154.889251 56.9637657,155.153404 56.9959179,155.426737 C57.6227719,160.75576 58.9248783,164.703587 63.1165014,172.283795 C65.3974482,176.408701 70.5461649,183.917502 78.5568406,194.799493 Z"></path>
                    </g>
                    <path d="M69.5292181,142.446064 C83.4274428,141.564873 91.9515567,141.564873 95.10156,142.446064 C100.755813,144.027801 106.994336,148.157544 113.817129,154.835292 C106.157633,150.155775 99.91911,147.142179 95.10156,145.794504 C90.28401,144.446829 81.759896,143.330682 69.5292181,142.446064 Z" id="Path-55" fill="#000000" opacity="0.049999997" mask="url(#mask-3)" transform="translate(91.673173, 148.310231) rotate(18.000000) translate(-91.673173, -148.310231) "></path>
                    <path d="M77.9880704,197.060803 C79.779421,198.961935 81.6133355,200.365137 83.4898136,201.27041 C85.3662918,202.175682 86.8544543,203.048634 87.9543012,203.889265 C61.4539144,287.001112 46.9813383,333.18368 44.5365728,342.436971 C40.8694246,356.316907 50.3479975,363.239923 48.203721,365.736604 C45.507811,368.875578 41.7879008,360.83025 39.830127,357.345012 C38.5249444,355.021521 36.2632641,348.823562 33.045086,338.751136 L77.9880704,197.060803 Z" id="Path-42" fill="#000000" opacity="0.0299999993" mask="url(#mask-3)"></path>
                </g>
            </g>
        </g>
    </g>
</svg>