<svg width="826" height="1186" xmlns="http://www.w3.org/2000/svg" xmlns:xlink="http://www.w3.org/1999/xlink"><defs><path id="a" d="M0 0h815v1234H0z"/><path id="b" d="M0 0h826v1186H0z"/><filter x="-8.7%" y="-8%" width="117.4%" height="113.8%" filterUnits="objectBoundingBox" id="c"><feOffset dx="-20" dy="40" in="SourceAlpha" result="shadowOffsetOuter1"/><feColorMatrix values="0 0 0 0 0 0 0 0 0 0 0 0 0 0 0 0 0 0 0.02 0" in="shadowOffsetOuter1" result="shadowMatrixOuter1"/><feMerge><feMergeNode in="shadowMatrixOuter1"/><feMergeNode in="SourceGraphic"/></feMerge></filter></defs><g fill="none" fill-rule="evenodd"><mask id="d" fill="#fff"><use xlink:href="#b"/></mask><g filter="url(#c)" mask="url(#d)"><path d="M658.3 165.8c9.5 14.4 12 65.6 7.5 153.5l-4.6 56.7c16.8-6.6 27.9-3 33.2 11.1 4.6 12-1.8 48.4-21.8 88.8-4.4 9-3.8 19.5-13.1 24.3-5.5 2.8-10.2 2.8-14.2-.1l-2.8 29.6c-4.7 44.8-69.6 139-109.2 183-5.2 5.8-10.3 11.4-15.1 17l-1.2 31.6c7.3 1.2 14.7 2.6 22.2 4.1 3.2-1 6.9-.8 11 .3 7.6 2 108.5 21.1 155.1 42.2 14.6 7 43.4 27.3 55.6 65.5 8.1 25.4 22 151.4 41.4 378-103.5 52.3-234.6 79.3-393.3 81-158.8 1.8-287-25.7-384.7-82.4 14.5-228 25-353.3 31.4-376 9.6-33.9 37.2-54 62.8-62.5 25.7-8.6 59-21.3 152.5-34.5 4.6-.6 7.7-1.3 10.5-.7l25.4-6-2.7-31.8c-6.4-8.2-13-17.1-20-27-29.6-42.6-83.3-133.9-86.8-181.8l-1-34.3c-4.6 3-9.7 2.7-15.5-.7-9.6-5.7-6.4-23-10.5-32.9-18.3-44-24.4-76.4-18.6-88.6 6.2-13 16.7-16.8 31.6-11.2l-3.6-27.7-1.2-8.8C100.7 294 68.8 28.2 377.9 4.7 595-4.6 672.2 87.1 661.8 151.3c-.7 4-1.8 9-3.5 14.5zM287 779.5l.1.1 6-1.4-6.1 1.3z" fill="#000" opacity=".1"/></g></g></svg>