<svg width="808" height="1288" xmlns="http://www.w3.org/2000/svg" xmlns:xlink="http://www.w3.org/1999/xlink"><defs><path id="a" d="M0 0h811v1291H0z"/><path d="M134.2 0l3.4 113.8c-15.4 2.6-41.7 8.4-78.8 17.1-37 8.8-56.4 71.3-58 187.7l486.7-5.2C482.1 193.3 466.3 130.2 440 124c-26.3-6-57.9-12.8-94.8-20.1l1.4-104H134.2z" id="c"/><path d="M.4 482.6C7.8 255.8 14.6 131.3 21 108.9c9.4-33.6 36.8-53.5 62.2-62 25.4-8.5 58.3-21 151-34.1 10.3-1.5 13.4-3.1 21.9 10.4 3 5 86.7 143.2 115.5 142.9 19.2-.2 57.7-50.7 115.5-151.3C491.8 3 499.6-1.4 510.7 1.6c7.6 2 107.5 21 153.6 41.8 14.5 6.9 43 27 55 64.8 8.1 25.2 15.5 150 22.3 374.4-90 51.8-213.5 78.6-370.8 80.3-157.2 1.8-280.7-25-370.4-80.3z" id="d"/><path d="M.4 566.8C15.5 280 26.3 125.5 32.6 103.1 42 69.5 69.4 55.4 94.8 46.9c17-5.6 65.8-17.6 146.6-36 20.5-3.2 33.6-.3 39.3 8.7 2.4 4 29.5 104.4 42.6 266 4 48.8-1.2 134.8-15.6 258 45.6 8.6 78.8 12.9 99.5 12.9 20.8 0 53-4.3 96.8-13-18.6-124-25.7-217.3-21.3-280 6.6-94.2 44.7-239 48.6-253.7 2.6-9.8 28-11.7 52.7-6.3 81.6 17.7 92 24.2 135.8 38.4 16 5.1 48 23.4 60 61.2 8.1 25.1 18.3 179.7 30.6 463.7-111.5-1.7-246-1.7-403.2 0-157.2 1.8-292.8 1.8-406.8 0z" id="e"/></defs><g transform="translate(-2 -3)" fill="none" fill-rule="evenodd" opacity=".2"><mask id="b" fill="#fff"><use xlink:href="#a"/></mask><g mask="url(#b)"><g transform="translate(169.2 653.7)" fill="#000"><path d="M239.6 169c105.1-3.8 191-38.3 190.2-63-.9-24.6-85.2-35.1-190.3-31.4C134.3 78.2 48.3 94.7 49 119.4c.9 24.6 85.3 53.2 190.5 49.5z"/><path d="M110.7 115.5c55.4-13.5 94.8-21 118-22.4 43.2-2.6 90 1.3 140.4 11.7l-5.7 3.8C308.7 98.3 265.8 94 234.7 95.9c-22.5 3.2-63 11-121.5 23.4l-2.5-3.8z"/><use xlink:href="#c"/></g><use fill="#000" xlink:href="#d" transform="translate(36.7 756.8)"/><use fill="#000" xlink:href="#e" transform="translate(.3 752.9)"/><g><path d="M195.1 404.8C189.2 8 234.3 64.2 434.6 71.2 628.3 77.9 676.7 35 651.8 374.9c19.7-9.7 32.5-7 38.4 8.5 4.5 11.8-1.8 47.9-21.6 88-4.4 8.9-3.8 19.3-13 24-5.4 2.8-10 2.8-14-.1l-2.8 29.3C634.1 569 571.5 669.4 532.2 713c-49.9 55.4-83.2 98.4-123.5 97.6-41-3.6-77.2-32.8-125.7-102.4-29.3-42.2-81.6-136.1-85-183.6l-1-33.4c-4.3 2.4-9 2-14.5-1-9.5-5.5-6.6-22.7-10.9-32.4-19-43.2-25.4-75.2-20-87.4 7.3-16 21.3-18.2 42-6.6l1.5 41z" fill="#000"/><path d="M654.4 164.2c9.4 14.3 11.9 65 7.5 152l-8.6 106.2c-6.6 6.5-10.2 6.5-11 0-2.5-22.6 2.1-82 0-94-11-64-23.7-101.5-25.1-125.9-15.7-.3-32.5-26.7-69.8-37.1-13.4-3.8-36.3-3.8-68.6 0C428 218 387.3 254 356.2 273c-94 57.8-129 59.3-150.7 55l-3.4 16.3c-1.6 8-.9 57-2.5 71.7-1 8.8-3.2 12.4-6.8 10.5l-12.3-95.5-2.4-12.1C88.8 270.4 69.1 28 376.7 4.7 539.1-5 668.2 86.2 658 149.9c-.7 4-1.8 9-3.5 14.3z" fill="#000"/></g></g></g></svg>
