<?xml version="1.0" encoding="UTF-8"?>
<svg width="808px" height="1288px" viewBox="0 0 808 1288" version="1.1" xmlns="http://www.w3.org/2000/svg" xmlns:xlink="http://www.w3.org/1999/xlink">
    <!-- Generator: Sketch 46.2 (44496) - http://www.bohemiancoding.com/sketch -->
    <title>Avatar</title>
    <desc>Created with Sketch.</desc>
    <defs>
        <rect id="path-1" x="0" y="0" width="811" height="1291"></rect>
        <path d="M134.242331,0.00547817641 L137.593817,113.766493 C122.166413,116.43297 95.9055804,122.150202 58.8113199,130.918189 C21.7170594,139.686177 2.37963396,202.243275 0.799043684,318.589483 L487.525929,313.358083 C482.12086,193.302734 466.256156,130.230777 439.931818,124.14221 C413.607479,118.053644 382.000117,111.326191 345.109731,103.959852 L346.451154,0.00547817641 L134.242331,0.00547817641 Z" id="path-3"></path>
        <path d="M0.362723397,482.562161 C7.77186878,255.843743 14.6364932,131.289063 20.9565965,108.898121 C30.4367516,75.311707 57.7690192,55.380372 83.1677925,46.9103984 C108.566566,38.4404249 141.496309,25.8785956 234.228908,12.795183 C244.514039,11.3440794 247.590253,9.68753221 256.056511,23.2394898 C259.097435,28.107104 342.752123,166.372612 371.596495,166.067962 C390.826076,165.864862 429.329049,115.432047 487.105413,14.7695163 C491.765921,3.04059196 499.625872,-1.36423541 510.685264,1.5550342 C518.254342,3.55299015 618.199645,22.5139958 664.335487,43.387175 C678.770037,50.2974843 707.302819,70.4752844 719.373736,108.228416 C727.421013,133.39717 734.816279,258.178701 741.559533,482.573007 C651.632088,534.387913 528.055634,561.171037 370.830173,562.92238 C213.604712,564.673724 90.1155617,537.886984 0.362723397,482.562161 Z" id="path-5"></path>
        <path d="M0.362723397,566.809351 C15.5210636,280.03917 26.2602854,125.458608 32.5803888,103.067666 C42.0605439,69.4812518 69.3928115,55.380372 94.7915847,46.9103984 C111.7241,41.2637494 160.598345,29.2544653 241.414318,10.8825461 C261.939373,7.6660219 275.023987,10.575079 280.668159,19.6097174 C283.128387,23.5478107 310.178373,123.986204 323.28693,285.603762 C327.244494,334.397225 322.061788,420.374796 307.738812,543.536477 C353.333647,552.155631 386.496476,556.465208 407.227299,556.465208 C427.958121,556.465208 460.226952,552.155631 504.033792,543.536477 C485.3842,419.562682 478.26918,326.194419 482.688731,263.431689 C489.318059,169.287593 527.405044,24.4215695 531.276598,9.81637458 C533.883064,-0.0163571593 559.249704,-1.86119035 584.009168,3.49851929 C665.563773,21.1527383 675.994291,27.6833991 719.813264,41.8516136 C735.83383,47.0316259 767.801506,65.314534 779.872422,103.067666 C787.919699,128.23642 798.111052,282.816982 810.446481,566.809351 C698.859154,565.058007 564.45276,565.058007 407.227299,566.809351 C250.001837,568.560694 114.380312,568.560694 0.362723397,566.809351 Z" id="path-7"></path>
    </defs>
    <g id="Page-1" stroke="none" stroke-width="1" fill="none" fill-rule="evenodd" opacity="0.150000006">
        <g id="Artboard-Copy-2" transform="translate(-133.000000, -91.000000)">
            <g id="Avatar" transform="translate(131.000000, 88.000000)">
                <mask id="mask-2" fill="white">
                    <use xlink:href="#path-1"></use>
                </mask>
                <g id="Rectangle-5" opacity="0.340000004"></g>
                <g id="Nelo" mask="url(#mask-2)">
                    <g transform="translate(0.265690, -6.773940)">
                        <g id="Body" transform="translate(0.000000, 660.454528)">
                            <g id="Skin" transform="translate(168.971000, 0.000000)">
                                <path d="M237.930103,168.878939 C343.120706,168.878939 430.240957,137.403855 430.240957,112.71664 C430.240957,88.0294255 346.298428,74.593662 241.107825,74.593662 C135.917222,74.593662 49.3120862,88.0294255 49.3120862,112.71664 C49.3120862,137.403855 132.7395,168.878939 237.930103,168.878939 Z" id="Hood" fill="#000000" transform="translate(239.776521, 121.736300) rotate(-2.000000) translate(-239.776521, -121.736300) "></path>
                                <path d="M110.662768,115.451738 C166.135953,101.950092 205.504145,94.5000654 228.767344,93.1016591 C271.875157,90.5103456 318.657427,94.3973158 369.114155,104.76257 L363.431652,108.579316 C308.67667,98.2608781 265.751061,94.0499938 234.654827,95.9466631 C212.156368,99.0921735 171.65952,106.866114 113.164284,119.268484 L110.662768,115.451738 Z" id="Path-41" fill="#000000"></path>
                                <mask id="mask-4" fill="white">
                                    <use xlink:href="#path-3"></use>
                                </mask>
                                <use id="Combined-Shape" fill="#000000" xlink:href="#path-3"></use>
                            </g>
                            <g id="Shirt" transform="translate(36.397126, 103.073151)">
                                <mask id="mask-6" fill="white">
                                    <use xlink:href="#path-5"></use>
                                </mask>
                                <use id="Combined-Shape" fill="#000000" xlink:href="#path-5"></use>
                            </g>
                            <g id="Hoodie" transform="translate(0.000000, 99.186181)">
                                <mask id="mask-8" fill="white">
                                    <use xlink:href="#path-7"></use>
                                </mask>
                                <use id="Combined-Shape-Copy-2" fill="#000000" xlink:href="#path-7"></use>
                            </g>
                        </g>
                        <g id="Head" transform="translate(402.563472, 413.766678) rotate(2.000000) translate(-402.563472, -413.766678) translate(113.063472, 10.266678)">
                            <path d="M81.8438831,408.594819 C62.1236818,12.2412663 109.13417,66.7637282 309.484952,66.7637282 C503.315517,66.7637282 550.254035,22.143928 537.185791,362.755983 C556.566167,352.309357 569.468385,354.68455 575.892444,369.88165 C580.826417,381.553722 575.733482,417.817836 557.385682,458.518783 C553.286734,467.611484 554.211707,477.998728 545.216234,483.043033 C539.903424,486.022247 535.224298,486.14007 531.178857,483.396504 C530.622435,492.992446 530.040237,502.806446 529.433254,512.843406 C526.321742,557.289385 467.181392,659.847254 429.462893,704.835918 C381.571508,761.95827 349.720843,806.056939 309.484952,806.623069 C268.304342,804.454927 231.159604,776.595147 180.305285,708.721169 C149.489086,667.591566 93.9962618,575.530947 88.810409,528.23235 C88.0749016,516.834581 87.3722383,505.714046 86.703561,494.864084 C82.5500049,497.406639 77.7330051,497.232493 72.2525614,494.341648 C62.4967073,489.195592 64.7872567,471.892853 60.2168768,462.389557 C39.7588434,419.850698 32.1330437,388.079292 37.2185402,375.688975 C43.8702344,359.482771 57.7827905,356.78739 78.9562087,367.602835 L81.8438831,408.594819 Z" id="Combined-Shape" fill="#000000"></path>
                            <path d="M532.439118,152.070617 C542.341709,166.040935 546.608966,216.614416 545.240891,303.79106 L540.333358,410.194653 C534.017158,416.853928 530.384375,416.980839 529.435007,410.575385 C526.101143,388.081566 528.643486,328.592455 526.15584,316.641111 C512.923066,253.067173 498.899359,216.005883 496.595279,191.686823 C480.89603,191.898221 463.179558,166.118524 425.51985,156.97333 C412.024615,153.696179 389.175747,154.494186 356.973246,159.36735 C308.173687,213.87125 268.595507,251.196482 238.238705,271.343047 C146.300288,332.358803 111.332408,335.037196 89.5151521,331.517596 C88.6359105,336.816599 87.7083564,342.292304 86.7366483,347.947361 C85.3548119,355.989243 87.8335598,404.880741 86.7222498,419.677037 C86.0546238,428.565998 83.9212506,432.15107 80.32213,430.432254 L64.6870843,335.446386 L61.8538563,323.36426 C-29.0632556,277.949495 -57.1705056,36.455026 249.387347,2.3210418 C411.357894,-12.9992365 543.553774,73.6671806 535.41967,137.653746 C534.915415,141.620445 533.991088,146.657061 532.439118,152.070617 Z" id="Combined-Shape" fill="#000000"></path>
                            <g id="Group-3" transform="translate(530.469151, 356.045194)"></g>
                            <g id="Group-2" transform="translate(61.714968, 428.637807) rotate(-1.000000) translate(-61.714968, -428.637807) translate(35.214968, 360.137807)"></g>
                        </g>
                    </g>
                </g>
            </g>
        </g>
    </g>
</svg>