<?xml version="1.0" encoding="UTF-8" standalone="no"?>
<svg width="445px" height="627px" viewBox="0 0 445 627" version="1.1" xmlns="http://www.w3.org/2000/svg" xmlns:xlink="http://www.w3.org/1999/xlink">
    <!-- Generator: Sketch 46.2 (44496) - http://www.bohemiancoding.com/sketch -->
    <title>Avatar</title>
    <desc>Created with Sketch.</desc>
    <defs>
        <rect id="path-1" x="0" y="0" width="478" height="637"></rect>
        <filter x="-4.5%" y="-1.4%" width="107.0%" height="105.7%" filterUnits="objectBoundingBox" id="filter-3">
            <feOffset dx="-10" dy="20" in="SourceAlpha" result="shadowOffsetOuter1"></feOffset>
            <feColorMatrix values="0 0 0 0 0   0 0 0 0 0   0 0 0 0 0  0 0 0 0.02 0" type="matrix" in="shadowOffsetOuter1" result="shadowMatrixOuter1"></feColorMatrix>
            <feMerge>
                <feMergeNode in="shadowMatrixOuter1"></feMergeNode>
                <feMergeNode in="SourceGraphic"></feMergeNode>
            </feMerge>
        </filter>
        <path d="M99.8612753,0.0028187386 L111.585721,58.5373634 C92.8498633,62.0714394 79.3378312,65.0131817 71.0496249,67.36259 C62.7614187,69.7119984 39.1462753,77.2944752 0.204194927,90.1100203 L166.477001,256.458332 L329.876905,84.7951365 C301.602492,73.9819077 280.692931,67.0088892 267.148223,63.8760808 C253.603515,60.7432724 237.340524,57.2817316 218.359249,53.4914584 L229.049453,0.0028187386 L99.8612753,0.0028187386 Z" id="path-4"></path>
        <path d="M0.186632706,234.028531 C13.6100485,130.218799 21.9477034,72.5534195 25.1995973,61.0323934 C30.0774381,43.7508541 44.1407577,33.4953933 57.209233,29.1372567 C65.9215499,26.2318323 91.0689007,19.0525803 132.651285,7.59950072 C137.254746,5.85624608 141.00853,7.30895828 143.912635,11.9576373 C146.671325,16.3735446 169.084171,38.1257362 211.151175,77.2142122 C212.465132,78.4351351 211.113253,93.3350745 214.790453,111.986715 C215.250362,114.319483 216.808252,115.703983 219.361626,115.448539 C221.434141,115.241202 222.730206,113.073253 222.932532,111.172168 C223.067416,109.904778 223.449311,98.4465849 224.078217,76.7975894 L286.794633,7.59950072 C291.398094,1.32333002 295.442288,-0.943128002 298.927214,0.800126644 C303.446789,3.06093986 357.993444,16.5843419 381.7318,27.3244188 C389.158834,30.8800465 403.839857,41.2623233 410.050727,60.6878037 C414.191306,73.638124 424.160913,126.324227 439.959546,218.746113 C372.862227,265.111465 298.864822,288.74471 217.967329,289.645845 C137.069837,290.546981 64.4762711,272.007876 0.186632706,234.028531 Z" id="path-6"></path>
        <path d="M3.47095854,3.68930373 C13.980553,-2.02206951 20.9718486,-0.769739604 24.4448454,7.44629346 C27.1000958,13.7277921 24.3592991,33.2438614 14.485309,55.1476783 C12.279433,60.0410502 12.7772132,65.6310991 7.93624011,68.3457664 C4.95938573,70.0150939 2.35221558,70.0150939 0.114729654,68.3457664 L3.47095854,3.68930373 Z" id="path-8"></path>
        <path d="M188.340417,85.7658975 C162.078611,115.097978 140.779352,135.185104 124.442638,146.027276 C65.6879401,185.020952 50.8350601,176.744192 38.3924039,177.178764 C-8.32520477,178.810421 -44.1512044,20.6896893 130.442354,1.24910299 C245.911028,-7.75141392 288.749961,39.6450833 284.372539,74.0804001 C283.349824,82.125668 279.116226,98.3491211 265.692292,102.787963 C256.626264,105.785793 247.280787,89.8325506 225.229224,84.4775202 C217.966675,82.7138731 205.670405,83.1433322 188.340417,85.7658975 Z" id="path-10"></path>
        <path d="M24.2138093,3.96322346 C12.9225098,-2.05524819 5.41120074,-0.735580971 1.679882,7.92222512 C-1.17286622,14.5414776 2.63198218,31.7087492 13.2404009,54.7903261 C15.6103503,59.9468128 14.2153542,69.235606 19.4163995,72.09624 C22.6146727,73.8553266 25.4157645,73.8553266 27.819675,72.09624 L24.2138093,3.96322346 Z" id="path-12"></path>
        <path d="M0.239705731,4.1318853 C0.198032635,5.2987399 17.5095394,20.4670672 20.4292536,22.4081724 C23.3489677,24.3492777 26.3208316,25.8216377 28.8962967,27.0017889 C29.4938214,27.2755917 30.7055693,27.0107061 32.5315404,26.2071323 C33.591818,27.8718262 34.9050709,28.7330294 36.4712992,28.790742 C38.005851,28.8472873 39.7933781,28.100342 41.8338806,26.5499059 C43.0208839,27.9952474 44.2731603,28.7421927 45.59071,28.790742 C46.7845217,28.8347317 48.0436065,28.1803252 49.3679646,26.8275227 C51.9927247,27.203428 53.892553,27.203428 55.0674496,26.8275227 C57.8537246,25.9360609 59.915068,24.6686939 61.2514796,23.0254216 C61.302126,24.4760412 61.9360062,24.937442 63.1531203,24.4096241 C63.1531203,24.4096241 84.4429807,1.15266729 83.8860102,0.15046766 C83.7278162,-0.134182936 78.7526084,1.44871795 74.7722496,3.92991079 C73.1023581,4.97085281 70.4476081,7.70955384 68.6202293,8.10144774 C66.7224959,8.50842968 64.7440243,7.13858803 62.5168041,6.18418094 C60.2895839,5.22977385 53.2247807,10.4559476 52.1288565,10.0505458 C51.4881313,9.81353019 50.9103947,9.37601311 50.3956467,8.73799457 C49.1784001,5.21002646 46.9889224,7.75894019 44.8589651,7.83319175 C41.7862855,7.94030717 38.3157022,6.32315382 37.5368181,8.0889248 C36.2680428,10.9653048 34.1829498,11.3857689 33.0926747,10.7154709 C31.5545623,9.76984392 31.1557955,9.54863396 27.4818787,8.44010327 C26.3830018,8.10853921 25.1601398,7.48906379 23.0145974,7.16817139 C21.5842359,6.95424312 21.5411722,8.2554865 22.8854065,11.0719015 C21.0861163,9.39626451 19.1458886,8.29620658 17.0647232,7.77172774 C16.2750459,7.57271952 15.344431,7.94929039 14.2728785,8.90144035 C5.0454544,4.57872861 0.367730152,2.98887692 0.239705731,4.1318853 Z" id="path-14"></path>
        <path d="M2.13315605,14.4966483 C2.31786653,15.0620678 3.22604885,15.0956604 4.85770302,14.5974262 C5.77713398,15.8886081 6.78887063,16.5546176 7.89291297,16.5954549 C9.17772716,16.6429787 10.554847,16.0653302 12.0242726,14.8625094 C12.9641377,15.9812002 13.9288977,16.5588487 14.9185528,16.5954549 C15.8636631,16.6304135 16.8336684,16.1243297 17.8285687,15.0772037 C20.4552065,15.9505741 21.9188438,15.9505741 22.2194805,15.0772037 C23.6390484,10.9532613 23.8956157,5.9559485 22.9891825,0.0852652664 C21.5296469,1.63927721 20.5184439,2.31177765 19.9555736,2.10276659 C19.2151468,1.82782335 16.0922078,3.10392318 14.451278,3.16134546 C12.0840702,3.24418292 10.0003072,1.57380669 8.29775501,2.20927147 C7.40412392,2.54281254 6.10566568,2.79662065 5.52226803,2.30657831 C4.60640677,1.53727319 3.20628731,1.73535304 0.375883366,0.878073337 C-0.470696895,0.621659026 0.169311937,8.4851011 2.13315605,14.4966483 Z" id="path-16"></path>
        <path d="M0.194408061,8.13732979 C26.5088615,8.44049492 44.938219,8.31891224 55.4824806,7.77258172 C92.8031752,5.83888215 113.543579,2.64150817 115.235133,0.116714511 C116.214397,-1.34492502 107.938311,11.5549126 96.9776402,23.4025712 C88.6750984,32.3769929 81.9462106,40.7781018 58.683433,41.7019098 C38.1180698,42.5185985 26.1876287,36.4018743 15.5540324,25.7424316 C12.2268809,22.4071931 7.10700613,16.5388258 0.194408061,8.13732979 Z" id="path-18"></path>
        <rect id="path-20" x="40.4504681" y="7.91981564" width="2.75042655" height="2.48917156" rx="0.573388208"></rect>
        <rect id="path-21" x="61.3409762" y="7.31961715" width="2.75042655" height="2.48917156" rx="0.573388208"></rect>
        <rect id="path-22" x="83.2541939" y="4.87862546" width="2.75042655" height="2.48917156" rx="0.573388208"></rect>
        <rect id="path-23" x="105.081022" y="0.402279487" width="2.75042655" height="2.48917156" rx="0.573388208"></rect>
        <rect id="path-24" x="20.0429231" y="6.98162184" width="2.75042655" height="2.48917156" rx="0.573388208"></rect>
        <rect id="path-25" x="0.411199397" y="4.76807216" width="2.75042655" height="2.48917156" rx="0.573388208"></rect>
        <rect id="path-26" x="42.506362" y="23.9370126" width="2.75042655" height="2.48917156" rx="0.573388208"></rect>
        <rect id="path-27" x="61.7476194" y="23.3841982" width="2.75042655" height="2.48917156" rx="0.573388208"></rect>
        <rect id="path-28" x="80.9120861" y="21.02218" width="2.75042655" height="2.48917156" rx="0.573388208"></rect>
        <rect id="path-29" x="22.6289646" y="22.4702675" width="2.75042655" height="2.48917156" rx="0.573388208"></rect>
        <path d="M55.1319894,1.40686548 C55.1963741,2.88269631 55.2285664,4.09555968 55.2285664,5.04545558 C55.2285664,5.99535148 55.1963741,7.54663949 55.1319894,9.69931963 C49.0891332,9.74107527 44.585208,9.9480029 41.6202139,10.3201025 C38.6552197,10.6922021 25.0037188,12.7637367 0.665711117,16.5347063 C0.259436521,15.7150482 0.178902956,14.8456114 0.424110423,13.9263959 C0.669317889,13.0071804 1.18217647,12.2559494 1.96268617,11.6727029 C18.9031985,7.90189717 31.628458,5.26528726 40.1384647,3.76287316 C48.6484714,2.26045905 53.646313,1.47512316 55.1319894,1.40686548 Z M58.1812004,0.93152615 C65.7395186,0.456561209 71.4126275,0.195916786 75.2005271,0.149592881 C78.9884267,0.103268977 93.1167368,0.264999408 117.585457,0.634784175 C118.526102,0.999508058 119.229539,1.66880037 119.695768,2.64266111 C120.161997,3.61652185 120.205106,4.50661491 119.825094,5.31294029 L89.3906267,7.39863373 C80.0441002,7.72198114 73.0228293,8.0445653 68.3268139,8.36638623 C63.6307985,8.68820716 60.5072471,9.06085413 58.9561595,9.48432716 C58.5980297,7.40482752 58.3748648,5.87837006 58.2866648,4.90495479 C58.1984647,3.93153951 58.16331,2.6070633 58.1812004,0.93152615 Z" id="path-30"></path>
    </defs>
    <g id="Page-1" stroke="none" stroke-width="1" fill="none" fill-rule="evenodd">
        <g id="Desktop-HD" transform="translate(-177.000000, -118.000000)">
            <g id="Group-7-Copy">
                <g id="Avatar" transform="translate(162.000000, 109.000000)">
                    <mask id="mask-2" fill="white">
                        <use xlink:href="#path-1"></use>
                    </mask>
                    <g id="Rectangle-5"></g>
                    <g id="Nelo" filter="url(#filter-3)" mask="url(#mask-2)">
                        <g transform="translate(20.000000, 4.000000)">
                            <g id="Body" transform="translate(0.000000, 362.344535)">
                                <g id="Skin" transform="translate(54.587565, 0.000000)">
                                    <polygon id="Path-18" fill="#CBCDD1" points="83.4124354 60.5185645 113.412435 57 113.412435 60.5185645 86.4470452 66"></polygon>
                                    <polygon id="Path-18-Copy" fill="#CBCDD1" points="210.412435 54.5185645 240.412435 51 240.412435 54.5185645 213.447045 60"></polygon>
                                    <mask id="mask-5" fill="white">
                                        <use xlink:href="#path-4"></use>
                                    </mask>
                                    <use id="Combined-Shape" fill="#E9D2C2" xlink:href="#path-4"></use>
                                    <path d="M166.064266,64.9920618 C209.552735,64.5362573 237.811733,39.0085706 250.841259,-11.5909985 L231.29697,-52.9807186 L51.8555727,-49.9623686 C75.1871722,27.6850744 113.256737,66.0032179 166.064266,64.9920618 Z" id="Path-20" fill="#000000" opacity="0.0500000007" mask="url(#mask-5)"></path>
                                    <path d="M151.379944,103.165731 C156.733964,108.046407 160.718181,110.486745 163.332595,110.486745 C165.94701,110.486745 169.931227,108.046407 175.285247,103.165731 C169.837553,105.606069 165.853336,106.826238 163.332595,106.826238 C160.811855,106.826238 156.827638,105.606069 151.379944,103.165731 Z" id="Path-39" fill="#000000" opacity="0.0700000003" mask="url(#mask-5)"></path>
                                </g>
                                <g id="Shirt" transform="translate(0.000000, 53.035216)">
                                    <mask id="mask-7" fill="white">
                                        <use xlink:href="#path-6"></use>
                                    </mask>
                                    <use id="Combined-Shape" fill="#F2F3F5" xlink:href="#path-6"></use>
                                    <polygon id="Path-22" fill-opacity="0.05" fill="#000000" mask="url(#mask-7)" points="369.507773 257.950616 375.726628 91.6008816 388.105789 257.950616"></polygon>
                                    <polygon id="Path-22-Copy" fill-opacity="0.05" fill="#000000" mask="url(#mask-7)" transform="translate(56.679388, 174.843773) rotate(2.000000) translate(-56.679388, -174.843773) " points="45.7325669 258.10413 54.6750721 91.5834158 67.6262091 257.339291"></polygon>
                                    <path d="M122.657645,7.07005522 L201.162294,83.9043561 C203.242153,103.740097 204.576014,115.07494 205.163876,117.908885 C206.045669,122.159802 217.555774,125.621627 220.582938,125.621627 C223.610102,125.621627 230.51938,122.362848 231.829184,117.908885 C232.702387,114.939576 233.177341,103.604733 233.254048,83.9043561 L315.555835,-8.10805555" id="Path-17" stroke="#000000" stroke-width="1.22153193" opacity="0.0500000007" mask="url(#mask-7)"></path>
                                    <path d="M31.3603916,34.4258745 C46.9563464,51.7313086 55.3351449,64.1610774 56.4967871,71.7151809 C57.6584294,79.2692843 57.6584294,140.591284 56.4967871,255.681179" id="Path-19" stroke="#000000" stroke-width="1.96239087" opacity="0.100000001" mask="url(#mask-7)"></path>
                                    <path d="M375.496909,34.4258745 C391.092864,51.7313086 399.471662,64.1610774 400.633304,71.7151809 C401.794947,79.2692843 401.794947,140.591284 400.633304,255.681179" id="Path-19-Copy" stroke="#000000" stroke-width="1.96239087" opacity="0.100000001" mask="url(#mask-7)" transform="translate(388.500723, 145.053527) scale(-1, 1) translate(-388.500723, -145.053527) "></path>
                                </g>
                            </g>
                            <g id="Head" transform="translate(217.105355, 224.364887) rotate(2.000000) translate(-217.105355, -224.364887) translate(63.105355, 5.364887)">
                                <path d="M162.784277,434.09614 C184.437488,433.791469 201.578134,410.059117 227.351199,379.317879 C247.649659,355.106563 279.476429,299.913529 281.15091,275.994267 C297.514888,5.39839466 280.40491,35.9298882 162.784277,35.9298882 C45.163644,35.9298882 25.7477739,1.01116774 44.0268126,284.276055 C46.8176135,309.730495 76.6814439,359.274279 93.2653848,381.408784 C120.632973,417.936169 140.622659,432.929322 162.784277,434.09614 Z" id="Combined-Shape" fill="#ECD6C6"></path>
                                <g id="Group-10" transform="translate(126.542146, 266.294205)">
                                    <path d="M11.5852577,12.7781611 C14.8687327,11.9923372 17.0862068,11.9923372 18.2376799,12.7781611 C19.3891531,13.563985 21.1470125,15.9632906 23.5112583,19.9760777 C19.6087154,18.6707223 17.0330971,17.6412212 15.7844036,16.8875744 C14.53571,16.1339276 13.1359947,14.7641232 11.5852577,12.7781611 Z" id="Path-25" fill="#373737" opacity="0.400000006" transform="translate(17.548258, 16.082435) rotate(-15.000000) translate(-17.548258, -16.082435) "></path>
                                    <path d="M38.8446876,12.7781611 C42.1281626,11.9923372 44.3456367,11.9923372 45.4971098,12.7781611 C46.648583,13.563985 48.4064424,15.9632906 50.7706882,19.9760777 C46.8681453,18.6707223 44.292527,17.6412212 43.0438335,16.8875744 C41.7951399,16.1339276 40.3954246,14.7641232 38.8446876,12.7781611 Z" id="Path-25-Copy" fill="#373737" opacity="0.400000006" transform="translate(44.807688, 16.082435) scale(-1, 1) rotate(-15.000000) translate(-44.807688, -16.082435) "></path>
                                    <path d="M57.7578524,0 C50.5446567,7.66198186 49.2026873,12.6246756 53.7319444,14.8880813 C58.2612015,17.151487 61.2494496,18.2831898 62.6966888,18.2831898 C57.2704551,15.2620381 54.282207,12.7329475 53.7319444,10.695918 C53.1816818,8.65888855 54.5236512,5.09358255 57.7578524,0 Z" id="Path-10-Copy" fill="#373737" opacity="0.200000003" transform="translate(56.904060, 9.141595) scale(-1, 1) translate(-56.904060, -9.141595) "></path>
                                    <path d="M21.8805877,2.68556024 C24.0156526,1.31277579 26.3287926,6.15800323 29.8627564,6.15800323 C33.3967203,6.15800323 35.5299494,1.07438268 40.1323637,2.68556024 C41.6395763,6.15800323 39.2373988,14.3623245 29.8627564,14.218389 C20.4881141,14.0744536 21.8805877,5.40123631 21.8805877,2.68556024 Z" id="Path-43" fill="#FFFFFF" opacity="0.200000003"></path>
                                    <path d="M6.64642134,0 C-0.566774381,7.66198186 -1.90874371,12.6246756 2.62051335,14.8880813 C7.14977042,17.151487 10.1380185,18.2831898 11.5852577,18.2831898 C6.15902405,15.2620381 3.17077593,12.7329475 2.62051335,10.695918 C2.07025077,8.65888855 3.4122201,5.09358255 6.64642134,0 Z" id="Path-10" fill="#373737" opacity="0.200000003"></path>
                                </g>
                                <path d="M276.26666,81.0133313 C252.289056,93.3776254 266.531664,108.642676 279.387133,170.405095 C280.725871,176.836887 279.357667,208.851832 281.151798,220.957211 C281.662704,224.4044 283.617711,224.3361 287.016818,220.75231 L289.657885,163.489643 C290.644975,100.592406 286.181234,73.1003027 276.26666,81.0133313 Z" id="Path-3" fill="#3C3C3C"></path>
                                <path d="M16.699905,113.089548 C30.4553228,100.423742 38.0342601,99.0803393 39.4367171,109.059339 C53.6880554,113.213434 51.5187502,137.156228 42.9108483,187.253021 C42.1672128,191.580877 43.5012229,217.892554 42.9031806,225.855396 C42.5439032,230.63912 41.395818,232.568477 39.458925,231.643467 L31.0447121,180.525414 L18.7575218,128.127129 L16.699905,113.089548 Z" id="Path-3-Copy" fill="#3C3C3C"></path>
                                <g id="Group-3" transform="translate(281.708385, 191.610989)">
                                    <mask id="mask-9" fill="white">
                                        <use xlink:href="#path-8"></use>
                                    </mask>
                                    <use id="Path-4" fill="#E9D2C2" xlink:href="#path-8"></use>
                                    <path d="M2.03473663,16.6380843 C8.40138761,10.623479 13.3159954,9.56803668 16.77856,13.4717573 C20.2411245,17.3754779 21.3000515,18.9927336 19.9553408,18.3235244 L17.8477947,16.1226167 C18.9080306,19.96794 18.3914383,25.164873 16.2980179,31.7134158 C13.1578872,41.5362301 9.89078995,50.5723522 9.38046963,50.2390546 C8.8701493,49.905757 12.865177,42.9463729 15.6746384,28.9833285 C16.7597514,23.5903087 16.9675446,18.9124882 16.2980179,14.9498667 C14.2831458,13.6899343 12.609523,13.1972312 11.2771497,13.4717573 C8.26047134,14.0933226 5.17966698,16.9413831 2.03473663,22.0159387 L2.03473663,16.6380843 Z M1.39008704,28.8864434 C5.73792675,26.3211413 8.86125947,25.8750018 10.7600852,27.5480249 C12.1748182,28.7945222 9.5347892,27.761114 5.37382517,28.8864434 C4.42462729,29.1431532 3.09671458,30.2608982 1.39008704,32.2396784 L1.39008704,28.8864434 Z M0.828391086,39.0044056 C0.830529665,38.9234147 1.29796774,38.761433 2.2307053,38.5184603 C3.62981164,38.1540013 3.81491759,40.4330563 4.1494865,41.830149 C4.37253243,42.7615441 3.34930127,43.9055403 1.07979301,45.2621375 L0.828391086,39.0044056 Z" id="Combined-Shape" fill="#000000" opacity="0.100000001" mask="url(#mask-9)"></path>
                                </g>
                                <g id="Group-5" transform="translate(0.000000, 0.000000)">
                                    <mask id="mask-11" fill="white">
                                        <use xlink:href="#path-10"></use>
                                    </mask>
                                    <use id="Combined-Shape" fill="#333333" xlink:href="#path-10"></use>
                                    <path d="M248.083457,95.3473206 C239.182341,89.1688951 233.920662,85.1507326 232.298421,83.292833 C226.068362,76.1577493 221.74627,72.5995308 216.52837,71.9386159 C207.409874,70.7836397 197.9449,75.4575982 188.133449,85.9604912 L248.083457,95.3473206 Z" id="Path-50" fill="#000000" opacity="0.100000001" mask="url(#mask-11)"></path>
                                    <g id="Group-6" opacity="0.300000012" mask="url(#mask-11)" stroke="#2A2A2A">
                                        <g transform="translate(-30.868774, -15.153470)">
                                            <path d="M173.86101,69.115049 C133.966018,111.369181 103.41786,135.84946 82.2165368,142.555884 C61.0152137,149.262308 43.793691,148.028567 30.5519687,138.85466" id="Path-48" stroke-width="13.1294436"></path>
                                            <path d="M159.342838,54.0596585 C105.771529,108.18464 65.8348739,133.960822 39.5328716,131.388203 C13.2308692,128.815585 0.122066919,119.729819 0.206464592,104.130905" id="Path-49" stroke-width="24.5972067"></path>
                                            <path d="M188.103346,81.1617559 C132.940044,130.316223 95.1244595,157.811595 74.6565923,163.647872 C54.188725,169.484149 36.8877449,160.931448 22.7536519,137.989768" id="Path-51" stroke-width="7.10886687"></path>
                                            <path d="M204.41926,92.6415712 C157.010663,136.630021 115.526471,166.385768 79.9666847,181.908811 C60.0105126,189.953213 44.4007795,184.044063 33.1374855,164.181362" id="Path-52" stroke-width="24.5972067"></path>
                                            <path d="M320.648331,94.7537744 C284.663404,56.0426666 273.638014,35.0221187 287.57216,31.692131" id="Path-29" stroke-width="18.8633246"></path>
                                            <path d="M57.7314686,50.3088432 C42.2686702,70.2252114 32.6798995,91.402487 28.9651567,113.84067 C24.6065551,140.167957 33.7771668,166.71265 13.3460655,167.426245" id="Path-20" stroke-width="4.52859406"></path>
                                            <path d="M239.91876,18.1378214 C236.74403,29.9433757 240.073431,44.2441935 249.906964,61.0402749 C259.740496,77.8363563 280.669754,98.3966665 312.694737,122.721205" id="Path-26" stroke-width="20.0685873"></path>
                                            <path d="M315.617381,104.903118 C311.626282,115.554976 284.737587,115.204825 234.951298,103.852665 C160.271864,86.8244267 177.111214,30.8407296 84.7203287,30.8407296" id="Path-24" stroke-width="4.52859406"></path>
                                            <path d="M324.456168,100.446499 C295.208295,106.605439 266.88403,101.937501 239.483375,86.4426851 C198.382391,63.2004609 189.578111,-1.44341494 174.32567,0.0264357768" id="Path-16" stroke-width="9.40242025"></path>
                                            <path d="M215.930303,17.3940138 C218.934699,35.2010348 222.468257,48.1538941 226.530979,56.2525916 C230.5937,64.351289 240.291308,77.4842038 255.623802,95.6513359" id="Path-28" stroke-width="10.2625026"></path>
                                            <path d="M320.736815,102.416964 C249.175634,56.1856194 238.311389,25.1191584 288.144081,9.21758135" id="Path-17" stroke-width="4.52861993"></path>
                                            <path d="M140.268962,40.5859554 C100.906528,90.7400952 67.5974013,117.312768 40.3415827,120.303973 C13.0857641,123.295178 9.92567999,121.305068 30.8613304,114.333645" id="Path-53" stroke-width="4.52859427"></path>
                                            <path d="M118.830859,29.6471556 C78.5438718,77.7001166 53.1157776,103.620759 42.5465766,107.409084 C31.9773756,111.197409 26.9751482,112.559108 27.5398945,111.49418" id="Path-54" stroke-width="21.7302656"></path>
                                            <path d="M85.5105275,40.7357628 C70.2877942,65.0692376 57.073646,82.2202989 45.8680831,92.1889467 C34.6625202,102.157595 29.6336925,105.808202 30.7815999,103.140769" id="Path-27" stroke-width="4.52859427"></path>
                                            <path d="M129.011115,9.75719879 C151.54621,23.4579716 165.369866,32.9375659 170.482082,38.1959817 C187.657124,55.8621959 196.154574,74.2026044 210.484192,84.4396719 C228.141822,97.0542688 236.579484,103.205898 235.797177,102.894559" id="Path-21" stroke-width="20.0685873"></path>
                                        </g>
                                    </g>
                                    <path d="M60.6458957,19.4222957 C33.3136511,53.1823817 24.5065643,73.1332509 34.2246354,79.2749034 C48.801742,88.4873822 69.2585379,61.2282704 77.919594,68.0271024 C86.5806501,74.8259343 73.4246788,107.04276 82.6208912,110.610206 C91.8171036,114.177652 99.7392646,107.587489 106.21113,107.361441 C112.682995,107.135392 103.29575,118.994985 115.289911,124.837059 C123.286019,128.731774 147.373321,117.168599 187.551818,90.1475315 L134.415109,145.748387 C106.295045,158.828587 89.5953708,163.300522 84.3160865,159.164194 C76.3971602,152.959701 90.2041568,139.462117 86.8071897,136.340223 C83.4102226,133.21833 60.4369276,161.912188 49.7685496,151.920141 C39.1001716,141.928093 53.9482758,123.161176 46.0029132,118.301925 C38.0575506,113.442674 40.340674,122.360498 18.9557108,123.10743 C4.69906875,123.605385 -3.83369081,108.37413 -6.64256784,77.4136659 C11.369347,55.2449007 25.9412049,39.3636454 37.0730059,29.7698999 C48.204807,20.1761544 56.0624369,16.726953 60.6458957,19.4222957 Z" id="Path-47" fill="#FFFFFF" opacity="0.049999997" mask="url(#mask-11)" transform="translate(90.454625, 89.595196) rotate(-2.000000) translate(-90.454625, -89.595196) "></path>
                                    <path d="M207.602799,84.3965902 C205.664591,80.8763568 206.614624,77.7933939 210.452898,75.1477015 C213.186122,73.2637115 215.742133,72.2506847 218.12093,72.1086211 C212.662734,71.4371994 207.909963,72.1023506 203.862618,74.1040747 C197.424918,76.7322636 192.116418,80.8072274 187.937116,86.3289661 L207.602799,84.3965902 Z" id="Path-56" fill="#000000" opacity="0.100000001" mask="url(#mask-11)"></path>
                                </g>
                                <g id="Group-2" transform="translate(29.686402, 230.809300) rotate(-1.000000) translate(-29.686402, -230.809300) translate(15.186402, 193.809300)">
                                    <mask id="mask-13" fill="white">
                                        <use xlink:href="#path-12"></use>
                                    </mask>
                                    <use id="Path-4-Copy" fill="#E9D2C2" transform="translate(14.292098, 36.838341) rotate(1.000000) translate(-14.292098, -36.838341) " xlink:href="#path-12"></use>
                                    <path d="M7.71983912,15.2130794 C14.0864901,9.19847409 19.0010979,8.14303177 22.4636624,12.0467524 C25.926227,15.950473 26.985154,17.5677287 25.6404433,16.8985195 L23.5328972,14.6976118 C24.5931331,18.542935 24.0765408,23.7398681 21.9831204,30.2884109 C18.8429897,40.1112252 15.5758924,49.1473472 15.0655721,48.8140497 C14.5552518,48.4807521 18.5502795,41.521368 21.3597409,27.5583235 C22.4448539,22.1653038 22.6526471,17.4874832 21.9831204,13.5248618 C19.9682483,12.2649294 18.2946255,11.7722262 16.9622522,12.0467524 C13.9455738,12.6683177 10.8647695,15.5163782 7.71983912,20.5909338 L7.71983912,15.2130794 Z M7.07518953,27.4614385 C11.4230292,24.8961364 14.546362,24.4499969 16.4451877,26.12302 C17.8599207,27.3695173 15.2198917,26.3361091 11.0589277,27.4614385 C10.1097298,27.7181483 8.78181707,28.8358933 7.07518953,30.8146735 L7.07518953,27.4614385 Z M6.51349358,37.5794007 C6.51563216,37.4984098 6.98307023,37.336428 7.91580779,37.0934554 C9.31491413,36.7289964 9.50002008,39.0080514 9.83458899,40.4051441 C10.0576349,41.3365392 9.03440376,42.4805354 6.7648955,43.8371326 L6.51349358,37.5794007 Z" id="Combined-Shape-Copy" fill="#000000" opacity="0.100000001" mask="url(#mask-13)" transform="translate(16.359079, 29.282532) scale(-1, 1) rotate(1.000000) translate(-16.359079, -29.282532) "></path>
                                    <g id="Group" mask="url(#mask-13)">
                                        <g transform="translate(15.432956, 60.097428)">
                                            <ellipse id="Oval-3-Copy" fill="#565656" transform="translate(5.234610, 5.157816) rotate(-22.000000) translate(-5.234610, -5.157816) " cx="5.23460953" cy="5.15781612" rx="3.09325106" ry="4.24709882"></ellipse>
                                            <ellipse id="Oval-3" fill="#373737" transform="translate(4.461297, 5.543916) rotate(-22.000000) translate(-4.461297, -5.543916) " cx="4.46129677" cy="5.54391601" rx="3.09325106" ry="4.24709882"></ellipse>
                                        </g>
                                    </g>
                                </g>
                                <g id="Group-7" transform="translate(57.946280, 163.535971)" fill="#373737">
                                    <path d="M71.4085156,4.67254455 C71.8048677,7.82519308 71.8887358,10.2204167 71.66012,11.8582153 C71.4315042,13.496014 70.7161082,15.625043 69.5139319,18.2453022 C49.2372936,19.4830621 32.3666731,21.8758885 18.9020704,25.4237813 C9.81359445,27.8185745 3.23810505,35.1659468 0.743639521,34.0337866 C-1.28744487,33.1119407 1.07130402,28.5653197 7.81988619,20.3939234 C18.2874529,15.5372753 25.9091434,12.4759306 30.6849577,11.2098895 C35.460772,9.94384829 49.0352913,7.76473331 71.4085156,4.67254455 Z" id="Path-7-Copy-2"></path>
                                    <path d="M123.160499,0.26181113 C121.996666,3.20966407 121.551727,5.57906633 121.825683,7.3700179 C122.099638,9.16096947 123.310191,11.7966773 125.45734,15.2771413 C135.527431,15.1653156 146.325418,15.6989683 157.851303,16.8780996 C188.329576,19.9961149 198.655294,30.3291008 200.581891,30.3830012 C202.503326,30.4367572 200.85848,26.2875969 195.647354,17.9355204 C191.216889,14.2768698 185.899524,11.3412678 179.695258,9.12871436 C169.808381,5.98271095 150.963461,3.02707654 123.160499,0.26181113 Z" id="Path-7-Copy-3"></path>
                                </g>
                                <g id="Group-4" transform="translate(82.690907, 202.070309)" fill="#373737">
                                    <path d="M38.9292759,10.4467792 C36.4424492,5.92814806 31.6799749,2.65025056 24.6418529,0.613086668 C17.6037309,-1.42407723 9.42015605,2.38433171 0.091128422,12.0383135 C8.88723303,4.4214956 16.3470497,1.17012367 22.4705785,2.28419767 C28.5941073,3.39827168 34.0803398,6.11913218 38.9292759,10.4467792 Z" id="Path-9" opacity="0.200000003"></path>
                                    <path d="M39.1856526,10.2455431 C39.8857234,16.0327759 30.6365931,10.3602603 18.864749,12.6707883 C13.7943044,13.6659937 4.20190331,24.297366 1.89369786,18.7692895 C1.59401501,18.0515589 5.0390259,10.1809015 12.5858247,6.85807386 C26.0856014,0.914172021 38.4604232,4.25033262 39.1856526,10.2455431 Z" id="Path-8"></path>
                                    <path d="M108.279022,12.3945559 C108.349508,18.2282163 116.760022,11.2534212 128.722225,11.8137234 C133.874662,12.0550604 144.776738,21.1751034 146.332937,15.3620532 C146.534984,14.6073234 142.084806,7.31888283 134.172937,5.13602758 C120.020119,1.23131785 108.206003,6.35124929 108.279022,12.3945559 Z" id="Path-8-Copy"></path>
                                    <path d="M147.461151,12.5283315 C147.217023,7.62682004 142.432436,3.8184111 133.107389,1.1031047 C123.782341,-1.6122017 115.598767,2.19620723 108.556664,12.5283315 C115.803533,4.00701958 123.26335,0.755647648 130.936114,2.77421571 C138.608879,4.79278377 144.117225,8.0441557 147.461151,12.5283315 Z" id="Path-9-Copy" opacity="0.200000003" transform="translate(128.008908, 6.391905) scale(-1, 1) translate(-128.008908, -6.391905) "></path>
                                </g>
                                <g id="Beard" transform="translate(119.286039, 408.172188)">
                                    <mask id="mask-15" fill="white">
                                        <use xlink:href="#path-14"></use>
                                    </mask>
                                    <use id="Path-5" fill="#4C4C4C" xlink:href="#path-14"></use>
                                    <g id="Group-8" opacity="0.100000001" mask="url(#mask-15)" stroke="#2A2A2A">
                                        <g transform="translate(-6.583872, -37.184955)">
                                            <path d="M0.201659759,24.7287401 L25.4384613,63.5564075" id="Path-22" stroke-width="3.01906271"></path>
                                            <path d="M14.9328245,25.4315897 L28.6305275,65.3147375" id="Path-30" stroke-width="5.88611669"></path>
                                            <path d="M29.3126264,26.0575652 L35.5189017,72.9082315" id="Path-31" stroke-width="5.88611669"></path>
                                            <path d="M37.7453364,19.3544114 L41.6655262,71.9633444" id="Path-32" stroke-width="3.01906271"></path>
                                            <path d="M50.342246,-3.55319264e-05 C49.6925537,19.3080311 49.2300173,33.7901195 48.954637,43.4462296 C48.6792566,53.1023398 48.4216819,63.8706732 48.181913,75.75123" id="Path-33" stroke-width="11.04661"></path>
                                            <path d="M59.7919869,22.7121657 L54.1701802,76.4279973" id="Path-34" stroke-width="3.01906271"></path>
                                            <path d="M67.873334,25.8489067 L62.6028902,67.2648699" id="Path-35" stroke-width="8.75305773"></path>
                                            <path d="M79.4683102,24.3649605 L68.5760598,74.5926263" id="Path-36" stroke-width="3.01906271"></path>
                                            <path d="M86.7947761,29.2588256 L78.713429,62.6181004" id="Path-37" stroke-width="8.74417018"></path>
                                            <path d="M100.120489,29.5841681 L82.2270581,65.3773343" id="Path-38" stroke-width="3.01906271"></path>
                                        </g>
                                    </g>
                                </g>
                                <g id="Goatie" transform="translate(148.777524, 361.680721)">
                                    <mask id="mask-17" fill="white">
                                        <use xlink:href="#path-16"></use>
                                    </mask>
                                    <use id="Path-5" fill="#4C4C4C" xlink:href="#path-16"></use>
                                    <g id="Group-8" opacity="0.100000001" mask="url(#mask-17)" stroke="#2A2A2A">
                                        <g transform="translate(2.713095, -34.426701)">
                                            <path d="M0.229683879,14.9977158 L3.24981773,55.6827152" id="Path-32" stroke-width="4.03005907"></path>
                                            <path d="M10.7938172,-2.74785349e-05 C10.293291,14.9318222 9.93695067,26.1315125 9.72479624,33.5990434 C9.51264181,41.0665744 9.31420501,49.3942407 9.12948586,58.5820424" id="Path-33" stroke-width="6.03691752"></path>
                                            <path d="M18.073945,17.564402 L13.7428769,59.1054189" id="Path-34" stroke-width="3.74336496"></path>
                                        </g>
                                    </g>
                                </g>
                                <path d="M139.407408,358.467501 C148.108788,363.755059 155.7453,366.283302 162.316946,366.052231 C168.888592,365.82116 175.451528,362.693124 182.005754,356.668125 C172.496073,359.602899 165.396349,361.169336 160.706581,361.367434 C156.016813,361.565532 148.917089,360.598888 139.407408,358.467501 Z" id="Lips" fill="#D3C0B1"></path>
                                <g id="Mouth" transform="translate(104.545377, 305.423062)">
                                    <mask id="mask-19" fill="white">
                                        <use xlink:href="#path-18"></use>
                                    </mask>
                                    <use id="Path-6" fill="#FFFFFF" xlink:href="#path-18"></use>
                                    <g id="Group-11" opacity="0.5" mask="url(#mask-19)">
                                        <g transform="translate(2.750427, 7.693803)">
                                            <path d="M1.73353657,4.34355284 C24.2039485,7.45560659 41.4653821,9.01163346 53.5178372,9.01163346 C74.1961743,9.01163346 92.4234803,7.12589743 108.199755,3.35442536" id="Path-57" stroke="#979797" stroke-width="0.550000012" transform="translate(54.966646, 6.183029) rotate(-3.000000) translate(-54.966646, -6.183029) "></path>
                                            <path d="M2.35746184,20.4010637 C24.8278738,23.5131174 42.0893073,25.0691443 54.1417624,25.0691443 C74.8200996,25.0691443 93.0474056,22.278255 108.82368,16.6964763" id="Path-57-Copy" stroke="#979797" stroke-width="0.550000012" transform="translate(55.590571, 20.882810) rotate(-2.000000) translate(-55.590571, -20.882810) "></path>
                                            <g id="Rectangle" stroke="none">
                                                <use fill="#DEDEDE" fill-rule="evenodd" xlink:href="#path-20"></use>
                                                <rect stroke="#979797" stroke-width="0.550000012" x="40.7254681" y="8.19481565" width="2.20042654" height="1.93917155" rx="0.573388208"></rect>
                                            </g>
                                            <g id="Rectangle-Copy" stroke="none" transform="translate(62.716189, 8.564203) rotate(-4.000000) translate(-62.716189, -8.564203) ">
                                                <use fill="#DEDEDE" fill-rule="evenodd" xlink:href="#path-21"></use>
                                                <rect stroke="#979797" stroke-width="0.550000012" x="61.6159762" y="7.59461715" width="2.20042654" height="1.93917155" rx="0.573388208"></rect>
                                            </g>
                                            <g id="Rectangle-Copy-2" stroke="none" transform="translate(84.629407, 6.123211) rotate(-8.000000) translate(-84.629407, -6.123211) ">
                                                <use fill="#DEDEDE" fill-rule="evenodd" xlink:href="#path-22"></use>
                                                <rect stroke="#979797" stroke-width="0.550000012" x="83.5291939" y="5.15362546" width="2.20042654" height="1.93917155" rx="0.573388208"></rect>
                                            </g>
                                            <g id="Rectangle-Copy-3" stroke="none" transform="translate(106.456235, 1.646865) rotate(-17.000000) translate(-106.456235, -1.646865) ">
                                                <use fill="#DEDEDE" fill-rule="evenodd" xlink:href="#path-23"></use>
                                                <rect stroke="#979797" stroke-width="0.550000012" x="105.356022" y="0.677279493" width="2.20042654" height="1.93917155" rx="0.573388208"></rect>
                                            </g>
                                            <g id="Rectangle-Copy-4" stroke="none" transform="translate(21.418136, 8.226208) rotate(4.000000) translate(-21.418136, -8.226208) ">
                                                <use fill="#DEDEDE" fill-rule="evenodd" xlink:href="#path-24"></use>
                                                <rect stroke="#979797" stroke-width="0.550000012" x="20.3179231" y="7.25662185" width="2.20042654" height="1.93917155" rx="0.573388208"></rect>
                                            </g>
                                            <g id="Rectangle-Copy-5" stroke="none" transform="translate(1.786413, 6.012658) rotate(9.000000) translate(-1.786413, -6.012658) ">
                                                <use fill="#DEDEDE" fill-rule="evenodd" xlink:href="#path-25"></use>
                                                <rect stroke="#979797" stroke-width="0.550000012" x="0.686199403" y="5.04307217" width="2.20042654" height="1.93917155" rx="0.573388208"></rect>
                                            </g>
                                            <g id="Rectangle-Copy-6" stroke="none">
                                                <use fill="#DEDEDE" fill-rule="evenodd" xlink:href="#path-26"></use>
                                                <rect stroke="#979797" stroke-width="0.550000012" x="42.781362" y="24.2120126" width="2.20042654" height="1.93917155" rx="0.573388208"></rect>
                                            </g>
                                            <g id="Rectangle-Copy-7" stroke="none" transform="translate(63.122833, 24.628784) rotate(-5.000000) translate(-63.122833, -24.628784) ">
                                                <use fill="#DEDEDE" fill-rule="evenodd" xlink:href="#path-27"></use>
                                                <rect stroke="#979797" stroke-width="0.550000012" x="62.0226195" y="23.6591982" width="2.20042654" height="1.93917155" rx="0.573388208"></rect>
                                            </g>
                                            <g id="Rectangle-Copy-8" stroke="none" transform="translate(82.287299, 22.266766) rotate(-8.000000) translate(-82.287299, -22.266766) ">
                                                <use fill="#DEDEDE" fill-rule="evenodd" xlink:href="#path-28"></use>
                                                <rect stroke="#979797" stroke-width="0.550000012" x="81.1870861" y="21.29718" width="2.20042654" height="1.93917155" rx="0.573388208"></rect>
                                            </g>
                                            <g id="Rectangle-Copy-9" stroke="none" transform="translate(24.004178, 23.714853) rotate(3.000000) translate(-24.004178, -23.714853) ">
                                                <use fill="#DEDEDE" fill-rule="evenodd" xlink:href="#path-29"></use>
                                                <rect stroke="#979797" stroke-width="0.550000012" x="22.9039646" y="22.7452675" width="2.20042654" height="1.93917155" rx="0.573388208"></rect>
                                            </g>
                                        </g>
                                    </g>
                                    <path d="M5.78998851,20.1499911 L7.1533902,20.615515 C28.2443398,24.2253518 43.7393513,25.9885628 53.6384247,25.9051478 C63.5374982,25.8217328 81.2960662,23.1627774 106.914129,17.9282818 L108.959231,17.0247565 C83.0314332,22.072258 64.4926869,24.6572527 53.3429924,24.7797407 C42.193298,24.9022287 26.3422967,23.3589788 5.78998851,20.1499911 Z" id="Path-14" fill="#000000" opacity="0.300000012" mask="url(#mask-19)"></path>
                                </g>
                                <g id="Stache" opacity="0.800000012" transform="translate(161.598803, 302.744129) rotate(2.000000) translate(-161.598803, -302.744129) translate(101.098803, 294.244129)">
                                    <mask id="mask-31" fill="white">
                                        <use xlink:href="#path-30"></use>
                                    </mask>
                                    <use id="Combined-Shape" fill="#4C4C4C" xlink:href="#path-30"></use>
                                    <g id="Group-9" opacity="0.200000003" mask="url(#mask-31)" stroke="#2A2A2A">
                                        <g transform="translate(0.653454, -40.685888)">
                                            <path d="M18.6177373,0.247163039 C18.1475766,18.37602 17.8128545,31.9736377 17.6135709,41.0400162 C17.4142874,50.1063947 17.2278892,60.2170692 17.0543764,71.3720398" id="Path-33" stroke-width="2.58673276"></path>
                                            <path d="M24.8800346,21.7555149 L20.8117207,72.1907371" id="Path-34" stroke-width="5.45378215"></path>
                                            <path d="M30.6453097,24.975255 L26.8312655,63.8618038" id="Path-35" stroke-width="2.58673276"></path>
                                            <path d="M1.67509586,1.014918 C1.20493523,19.143775 0.870213121,32.7413927 0.670929527,41.8077712 C0.471645933,50.8741497 0.285247766,60.9848242 0.111735023,72.1397948" id="Path-33-Copy" stroke-width="3.73361725"></path>
                                            <path d="M7.93739314,22.5232699 L3.8690793,72.958492" id="Path-34-Copy" stroke-width="2.58673276"></path>
                                            <path d="M13.7026683,25.74301 L9.8886241,64.6295587" id="Path-35-Copy" stroke-width="6.88725267"></path>
                                            <path d="M39.0710462,23.7785456 L31.1886881,70.9386362" id="Path-36" stroke-width="5.74047625"></path>
                                            <path d="M44.2449169,28.7029579 L38.3967158,60.0248677" id="Path-37" stroke-width="2.58673276"></path>
                                            <path d="M53.8785262,29.1233965 L40.9296475,62.7305516" id="Path-38" stroke-width="8.32072319" transform="translate(47.404087, 45.926974) rotate(-13.000000) translate(-47.404087, -45.926974) "></path>
                                            <path d="M57.0644874,29.5192156 L70.7077835,69.2340517" id="Path-22" stroke-width="7.46064088"></path>
                                            <path d="M65.8749054,32.2688391 L75.7874758,69.7161867" id="Path-30" stroke-width="2.58673276"></path>
                                            <path d="M76.2589418,33.3274944 L80.7502161,77.3168303" id="Path-31" stroke-width="8.32072319"></path>
                                            <path d="M82.5269621,27.3139239 L85.3638726,76.7098495" id="Path-32" stroke-width="2.58673276"></path>
                                            <path d="M92.1270597,9.4946266 C91.6568991,27.6234836 91.322177,41.2211013 91.1228934,50.2874798 C90.9236098,59.3538583 90.7372116,69.4645328 90.5636989,80.6195034" id="Path-33" stroke-width="9.46749906"></path>
                                            <path d="M98.0423379,32.3403809 L102.533612,76.3297168" id="Path-31-Copy" stroke-width="4.88039394"></path>
                                            <path d="M106.860029,26.2106794 L109.69694,75.606605" id="Path-32-Copy" stroke-width="8.32072264"></path>
                                            <path d="M116.460127,8.39138208 C115.989966,26.520239 115.655244,40.1178568 115.45596,49.1842353 C115.256677,58.2506138 115.070279,68.3612883 114.896766,79.5162588" id="Path-33-Copy-2" stroke-width="4.02031135"></path>
                                        </g>
                                    </g>
                                </g>
                            </g>
                        </g>
                    </g>
                </g>
            </g>
        </g>
    </g>
</svg>