<svg width="201" height="57" xmlns="http://www.w3.org/2000/svg"><g fill="#A7B6C2" fill-rule="evenodd"><path d="M28 0A28 28 0 1 1 0 28 28 28 0 0 1 28 0zm-.4 13c-4.3-.2-6.8 3.6-6.8 7v23.8h2.5v-5.1a11 11 0 0 0 5.4 1.2c4 0 7.5-2.4 7.8-7.1.3-4.3-2.7-7.6-4.7-8 1.4-1.1 2.3-2.4 2.3-5.8 0-1.2-.6-5.8-6.5-6zm.7 11.1h-2.8v2.6h3.7c1.5 0 5 1 5 6 0 .7-.7 4.7-5.3 5a9 9 0 0 1-5.3-1.3V18.8c0-1.8 1.8-3.3 4-3.4 1 0 3.8.6 4 3.2.2 1.5-.4 5.5-3.3 5.5zM66.9 40.8V13h9.5c1.9 0 3.4.2 4.7.5 1.3.4 2.3.9 3.2 1.5.8.7 1.4 1.4 1.8 2.3a7.8 7.8 0 0 1 .3 5c-.2.6-.5 1.1-1 1.7-.3.5-.8 1-1.5 1.4-.6.4-1.3.8-2.2 1 3.8 1 5.7 3 5.7 6.2 0 1.2-.2 2.3-.6 3.3-.5 1-1.1 1.9-2 2.6-.8.7-1.9 1.3-3.2 1.7-1.2.4-2.6.6-4.3.6H67zM72 28.6v8.2h5.3c1 0 1.7-.1 2.4-.4.6-.2 1.1-.5 1.5-.9.4-.4.7-.8.9-1.3a5 5 0 0 0 0-3.3 3 3 0 0 0-1-1.2c-.4-.4-.9-.6-1.5-.8-.7-.2-1.4-.3-2.4-.3H72zm0-3.5h4.1a7 7 0 0 0 4-1c1-.6 1.4-1.7 1.4-3 0-1.5-.4-2.5-1.2-3.2-.8-.6-2.1-.9-3.9-.9H72v8zM95 21v12.5c0 1.2.3 2.2.8 2.8.6.7 1.4 1 2.5 1a5 5 0 0 0 2.3-.5 8 8 0 0 0 2-1.5V21h4.8v19.7h-2.9c-.6 0-1-.3-1.2-.9l-.3-1.5c-.4.4-.8.8-1.3 1a7.6 7.6 0 0 1-4.8 1.7c-1 0-2-.2-2.9-.5a6.8 6.8 0 0 1-3.4-4c-.2-.9-.4-1.9-.4-3V21.1H95zm23.2-.3a8.1 8.1 0 0 1 4.4 1h5.7v1.7c0 .3 0 .6-.2.7-.1.2-.4.3-.8.4l-1.8.3a6.1 6.1 0 0 1 .5 2.2 5.9 5.9 0 0 1-2.2 4.7c-.7.5-1.5 1-2.5 1.3a10 10 0 0 1-5.2.2c-.6.4-1 .8-1 1.2 0 .4.2.7.6 1l1.4.3 2 .2a42.3 42.3 0 0 1 4.7.4c.8.2 1.5.4 2 .8.6.3 1.1.8 1.5 1.4.4.6.5 1.4.5 2.3 0 .9-.2 1.7-.6 2.5-.4.8-1 1.6-1.9 2.2-.8.7-1.8 1.2-3 1.6-1.1.3-2.5.5-4 .5s-2.8-.1-3.9-.4c-1.1-.3-2-.7-2.7-1.1a5 5 0 0 1-1.7-1.7c-.3-.6-.5-1.3-.5-2 0-.9.3-1.7.9-2.3.5-.6 1.3-1.1 2.3-1.5-.5-.3-.9-.6-1.2-1-.3-.5-.4-1-.4-1.8l.1-1 .5-.9.8-.8 1.1-.8a5.7 5.7 0 0 1-3.2-5.3 5.9 5.9 0 0 1 2.2-4.6c.7-.6 1.6-1 2.5-1.3 1-.3 2-.4 3.1-.4zm5.3 20.9c0-.4-.2-.7-.4-1-.2-.2-.5-.4-1-.5a25.7 25.7 0 0 0-5-.5l-1.7-.2c-.5.3-1 .6-1.3 1-.3.4-.5.9-.5 1.4 0 .4.1.7.3 1 .1.3.4.6.8.8l1.5.5 2.2.2 2.3-.2 1.6-.6c.4-.2.7-.5.9-.8.2-.4.3-.7.3-1.1zM118 30.5c.6 0 1.1-.1 1.6-.3a2.7 2.7 0 0 0 1.7-1.7c.2-.3.2-.8.2-1.3a3 3 0 0 0-.8-2.3c-.6-.5-1.5-.8-2.7-.8-1.1 0-2 .3-2.6.8a3 3 0 0 0-.8 2.3c0 .5 0 1 .2 1.3a2.8 2.8 0 0 0 1.7 1.7l1.5.3zm9.6-9.4h3.8c.4 0 .7 0 1 .2l.4.7 2.8 10.5a19.7 19.7 0 0 1 .7 3.4 52.8 52.8 0 0 1 1-3.4l3.2-10.6c0-.2.2-.4.4-.6.3-.2.5-.2.8-.2h2.1c.4 0 .7 0 1 .2l.4.6 3.2 10.8a41.8 41.8 0 0 1 .8 3.2 49.7 49.7 0 0 1 .8-3.4L153 22c0-.3.2-.5.4-.7l.9-.2h3.6l-6.3 19.7h-3.8c-.4 0-.7-.3-.9-.8l-3.5-11.4a22.5 22.5 0 0 1-.6-2.3 32.9 32.9 0 0 1-.5 2.3L138.7 40c-.2.5-.6.8-1 .8H134l-6.3-19.7zm40.2-.3c1.5 0 2.8.2 4 .7a8.6 8.6 0 0 1 5 5.2c.5 1.3.7 2.7.7 4.2 0 1.6-.2 3-.7 4.2a8.5 8.5 0 0 1-5 5.2c-1.2.6-2.5.8-4 .8s-2.8-.2-4-.7a8.6 8.6 0 0 1-5-5.3 12 12 0 0 1-.8-4.2c0-1.5.2-3 .7-4.2a8.7 8.7 0 0 1 5-5.2c1.3-.5 2.6-.7 4-.7zm0 16.6c1.6 0 2.8-.5 3.6-1.6a8.3 8.3 0 0 0 1.2-4.8c0-2.2-.4-3.8-1.2-5-.8-1-2-1.6-3.6-1.6-1.7 0-3 .6-3.7 1.7A8.3 8.3 0 0 0 163 31c0 2 .4 3.7 1.2 4.8.8 1 2 1.6 3.7 1.6zm17.4-25.1v28.5h-4.7V12.3h4.7zm5.1 28.5V24.7l-1.7-.3c-.3 0-.6-.2-.9-.4a1 1 0 0 1-.3-.8v-2h3v-1.4c0-1.1.1-2.1.5-3a6.3 6.3 0 0 1 3.7-3.8 8.9 8.9 0 0 1 5.6 0v2.3c0 .4-.3.6-.6.7l-1 .1c-.7 0-1.2 0-1.6.2a2.5 2.5 0 0 0-1.8 1.8 6 6 0 0 0-.3 1.9v1.3h5.2v3.4h-5v16.1h-4.8z"/></g></svg>