<?xml version="1.0" encoding="UTF-8"?>
<svg width="201px" height="57px" viewBox="0 0 201 57" version="1.1" xmlns="http://www.w3.org/2000/svg" xmlns:xlink="http://www.w3.org/1999/xlink">
    <!-- Generator: Sketch 46.2 (44496) - http://www.bohemiancoding.com/sketch -->
    <title>Group 2</title>
    <desc>Created with Sketch.</desc>
    <defs></defs>
    <g id="Page-1" stroke="none" stroke-width="1" fill="none" fill-rule="evenodd">
        <g id="Group-2" fill="#A7B6C2">
            <g id="Group">
                <path d="M28.0898876,0 L28.0898876,0 C43.6035042,-2.84980513e-15 56.1797753,12.5762711 56.1797753,28.0898876 L56.1797753,28.0898876 C56.1797753,43.6035042 43.6035042,56.1797753 28.0898876,56.1797753 C12.5762711,56.1797753 1.89987009e-15,43.6035042 0,28.0898876 L0,28.0898876 L0,28.0898876 C-1.89987009e-15,12.5762711 12.5762711,2.84980513e-15 28.0898876,0 L28.0898876,0 Z M27.5629279,12.9693535 C23.2773779,12.8368592 20.7865169,16.5925614 20.7865169,20.0174247 L20.7865169,43.8202247 L23.2773779,43.8202247 L23.2773779,38.6829298 C24.1593646,39.1966593 26.0998675,39.9327187 28.7456954,39.8816319 C32.6777713,39.8057097 36.2055117,37.4930045 36.501666,32.7750406 C36.7703963,28.4939614 33.7600208,25.1876551 31.8268851,24.7344628 C33.2368658,23.6884985 34.1471749,22.4496128 34.1471749,19.0247495 C34.1471749,17.8260474 33.503531,13.1530163 27.5629279,12.9693535 Z M28.2654494,24.1323346 L25.491573,24.1323346 L25.491573,26.710362 L29.1549625,26.710362 C30.7116105,26.710362 34.1467697,27.7683291 34.1467697,32.7932979 C34.1467697,33.4487286 33.5194106,37.4473315 28.9325843,37.6404494 C26.0422166,37.7621419 24.2626404,36.803995 23.5955056,36.3670412 L23.5955056,18.7578027 C23.5955056,17.035255 25.4427449,15.4807101 27.6515318,15.4217324 C28.5409733,15.397983 31.3523196,15.9966972 31.6455993,18.6267166 C31.8114717,20.1141974 31.2409476,24.1323346 28.2654494,24.1323346 Z" id="Combined-Shape"></path>
            </g>
            <text id="Bugwolf" font-family="Lato-Bold, Lato" font-size="38.4269658" font-weight="bold" letter-spacing="-1.06741572">
                <tspan x="64.0449438" y="40.8089888">Bugwolf</tspan>
            </text>
        </g>
    </g>
</svg>