<?xml version="1.0" encoding="UTF-8"?>
<svg width="201px" height="57px" viewBox="0 0 201 57" version="1.1" xmlns="http://www.w3.org/2000/svg" xmlns:xlink="http://www.w3.org/1999/xlink">
    <!-- Generator: Sketch 46.2 (44496) - http://www.bohemiancoding.com/sketch -->
    <title>Group 2</title>
    <desc>Created with Sketch.</desc>
    <defs></defs>
    <g id="Page-1" stroke="none" stroke-width="1" fill="none" fill-rule="evenodd">
        <g id="Group-2" fill="#A7B6C2">
            <g id="Group">
                <path d="M28.0898876,0 L28.0898876,0 C43.6035042,-2.84980513e-15 56.1797753,12.5762711 56.1797753,28.0898876 L56.1797753,28.0898876 C56.1797753,43.6035042 43.6035042,56.1797753 28.0898876,56.1797753 C12.5762711,56.1797753 1.89987009e-15,43.6035042 0,28.0898876 L0,28.0898876 L0,28.0898876 C-1.89987009e-15,12.5762711 12.5762711,2.84980513e-15 28.0898876,0 L28.0898876,0 Z M27.5629279,12.9693535 C23.2773779,12.8368592 20.7865169,16.5925614 20.7865169,20.0174247 L20.7865169,43.8202247 L23.2773779,43.8202247 L23.2773779,38.6829298 C24.1593646,39.1966593 26.0998675,39.9327187 28.7456954,39.8816319 C32.6777713,39.8057097 36.2055117,37.4930045 36.501666,32.7750406 C36.7703963,28.4939614 33.7600208,25.1876551 31.8268851,24.7344628 C33.2368658,23.6884985 34.1471749,22.4496128 34.1471749,19.0247495 C34.1471749,17.8260474 33.503531,13.1530163 27.5629279,12.9693535 Z M28.2654494,24.1323346 L25.491573,24.1323346 L25.491573,26.710362 L29.1549625,26.710362 C30.7116105,26.710362 34.1467697,27.7683291 34.1467697,32.7932979 C34.1467697,33.4487286 33.5194106,37.4473315 28.9325843,37.6404494 C26.0422166,37.7621419 24.2626404,36.803995 23.5955056,36.3670412 L23.5955056,18.7578027 C23.5955056,17.035255 25.4427449,15.4807101 27.6515318,15.4217324 C28.5409733,15.397983 31.3523196,15.9966972 31.6455993,18.6267166 C31.8114717,20.1141974 31.2409476,24.1323346 28.2654494,24.1323346 Z" id="Combined-Shape"></path>
            </g>
            <path d="M66.8501123,40.8089888 L66.8501123,13.0262925 L76.4376403,13.0262925 C78.2565258,13.0262925 79.8096001,13.1992121 81.0969099,13.5450565 C82.3842197,13.8909009 83.4409507,14.3840421 84.2671346,15.0244947 C85.0933185,15.6649473 85.6985371,16.4398834 86.0828087,17.3493261 C86.4670803,18.2587689 86.6592132,19.2834777 86.6592132,20.4234834 C86.6592132,21.0767451 86.5631467,21.701177 86.371011,22.296798 C86.1788752,22.8924189 85.8810692,23.4496044 85.477584,23.968371 C85.0740988,24.4871376 84.5617444,24.9578633 83.9405054,25.380562 C83.3192663,25.8032607 82.5795546,26.1619088 81.7213481,26.456517 C85.5384458,27.3147236 87.446966,29.3769501 87.446966,32.6432585 C87.446966,33.8216914 87.2228109,34.9104445 86.7744941,35.9095506 C86.3261773,36.9086567 85.6729254,37.7700526 84.8147188,38.4937641 C83.9565123,39.2174755 82.8997813,39.7842676 81.6444942,40.1941573 C80.389207,40.604047 78.9546146,40.8089888 77.340674,40.8089888 L66.8501123,40.8089888 Z M72.0185392,28.6276406 L72.0185392,36.7741574 L77.2638201,36.7741574 C78.224499,36.7741574 79.028255,36.6588776 79.6751122,36.4283147 C80.3219693,36.1977517 80.8407282,35.8903391 81.2314043,35.5060675 C81.6220804,35.1217959 81.9038753,34.6734858 82.0767975,34.1611237 C82.2497197,33.6487616 82.3361795,33.104385 82.3361795,32.5279776 C82.3361795,31.9259522 82.2401131,31.3847778 82.0479773,30.9044383 C81.8558415,30.4240989 81.5548333,30.0142153 81.1449436,29.6747754 C80.7350539,29.3353355 80.2098906,29.0759561 79.569438,28.8966294 C78.9289854,28.7173026 78.1540493,28.6276406 77.2446066,28.6276406 L72.0185392,28.6276406 Z M72.0185392,25.0539328 L76.1494381,25.0539328 C77.9042783,25.0539328 79.2363998,24.7337113 80.1458425,24.0932586 C81.0552852,23.452806 81.5099998,22.4345016 81.5099998,21.0383149 C81.5099998,19.5908919 81.1001162,18.5597786 80.2803369,17.9449441 C79.4605575,17.3301096 78.1796715,17.0226969 76.4376403,17.0226969 L72.0185392,17.0226969 L72.0185392,25.0539328 Z M94.8911232,21.0959553 L94.8911232,33.6231462 C94.8911232,34.8271971 95.1697159,35.7590417 95.7269097,36.4187079 C96.2841035,37.0783741 97.1198817,37.4082023 98.2342692,37.4082023 C99.0540486,37.4082023 99.8225802,37.225676 100.539887,36.860618 C101.257194,36.49556 101.936064,35.9928123 102.576516,35.3523596 L102.576516,21.0959553 L107.322247,21.0959553 L107.322247,40.8089888 L104.421011,40.8089888 C103.806176,40.8089888 103.402697,40.5207894 103.210561,39.944382 L102.883932,38.3688764 C102.474042,38.7787661 102.05135,39.1534253 101.615842,39.4928652 C101.180334,39.8323051 100.716013,40.1205044 100.222865,40.3574719 C99.7297162,40.5944394 99.1981485,40.7801679 98.6281456,40.9146629 C98.0581428,41.049158 97.4465197,41.1164045 96.793258,41.1164045 C95.7172976,41.1164045 94.7662397,40.9338782 93.9400558,40.5688202 C93.1138719,40.2037622 92.4189912,39.6882056 91.8553929,39.0221349 C91.2917946,38.3560641 90.8659,37.565117 90.5776963,36.6492697 C90.2894926,35.7334225 90.1453929,34.7247247 90.1453929,33.6231462 L90.1453929,21.0959553 L94.8911232,21.0959553 Z M118.147977,20.7501126 C118.993374,20.7501126 119.787524,20.8365724 120.530449,21.0094946 C121.273374,21.1824168 121.952243,21.4353918 122.567078,21.7684272 L128.235055,21.7684272 L128.235055,23.5360676 C128.235055,23.8306758 128.158202,24.0612353 128.004494,24.227753 C127.850785,24.3942707 127.588203,24.5095504 127.216741,24.5735957 L125.4491,24.9002249 C125.577191,25.2332603 125.67646,25.585504 125.746909,25.9569665 C125.817359,26.328429 125.852583,26.7190993 125.852583,27.1289889 C125.852583,28.1024769 125.657248,28.9830861 125.266572,29.7708428 C124.875896,30.5585996 124.337924,31.2278625 123.65264,31.7786518 C122.967355,32.3294411 122.153993,32.7553357 121.212527,33.0563484 C120.271062,33.3573611 119.249555,33.5078653 118.147977,33.5078653 C117.405052,33.5078653 116.681351,33.4374165 115.976853,33.2965169 C115.362019,33.6679795 115.054606,34.0842674 115.054606,34.5453933 C115.054606,34.942474 115.237132,35.2338755 115.60219,35.4196068 C115.967248,35.6053381 116.447581,35.7366289 117.043202,35.8134832 C117.638823,35.8903375 118.31449,35.9383708 119.070224,35.9575843 C119.825958,35.9767979 120.600894,36.0184267 121.395055,36.082472 C122.189217,36.1465172 122.964153,36.2585948 123.719887,36.4187079 C124.475621,36.5788211 125.151288,36.8317961 125.746909,37.1776405 C126.34253,37.5234849 126.822863,37.9942105 127.187921,38.5898315 C127.552979,39.1854524 127.735505,39.9507819 127.735505,40.8858427 C127.735505,41.7568583 127.520956,42.6022431 127.091853,43.4220224 C126.66275,44.2418018 126.04152,44.9719069 125.228145,45.6123595 C124.41477,46.2528121 123.418882,46.7683688 122.240449,47.1590449 C121.062016,47.549721 119.717086,47.7450561 118.205617,47.7450561 C116.706958,47.7450561 115.406859,47.6009564 114.30528,47.3127527 C113.203702,47.024549 112.29107,46.6402832 111.567359,46.1599438 C110.843647,45.6796043 110.302473,45.1256211 109.94382,44.4979775 C109.585166,43.8703339 109.405842,43.217082 109.405842,42.5382022 C109.405842,41.6159504 109.687637,40.8410144 110.251235,40.2133708 C110.814834,39.5857272 111.596174,39.0861817 112.59528,38.7147191 C112.108536,38.445729 111.717866,38.0870809 111.423258,37.6387641 C111.12865,37.1904472 110.981348,36.6076441 110.981348,35.8903371 C110.981348,35.5957289 111.032583,35.2915185 111.135056,34.9776967 C111.237528,34.6638749 111.394437,34.35326 111.605786,34.0458428 C111.817135,33.7384255 112.082919,33.4470239 112.403145,33.1716293 C112.723372,32.8962347 113.101233,32.6496641 113.536741,32.4319102 C112.537635,31.89393 111.753092,31.1766338 111.183089,30.2800001 C110.613086,29.3833664 110.328089,28.3330399 110.328089,27.1289889 C110.328089,26.1555009 110.523424,25.2748918 110.914101,24.487135 C111.304777,23.6993783 111.849153,23.0269131 112.547247,22.4697193 C113.24534,21.9125255 114.071511,21.4866309 115.025786,21.1920227 C115.98006,20.8974145 117.02078,20.7501126 118.147977,20.7501126 Z M123.354831,41.692809 C123.354831,41.3085374 123.239551,40.9947203 123.008988,40.7513483 C122.778425,40.5079763 122.464608,40.3190456 122.067527,40.1845506 C121.670447,40.0500555 121.206126,39.9507868 120.67455,39.8867416 C120.142974,39.8226963 119.579384,39.7746631 118.983763,39.7426405 C118.388142,39.7106178 117.773317,39.6785957 117.139269,39.646573 C116.505221,39.6145504 115.893598,39.5601128 115.304381,39.4832584 C114.766401,39.7778667 114.334102,40.1269081 114.007471,40.5303933 C113.68084,40.9338784 113.517527,41.3981996 113.517527,41.9233708 C113.517527,42.2692152 113.603987,42.5926389 113.776909,42.8936517 C113.949832,43.1946644 114.225222,43.4540438 114.603089,43.6717977 C114.980956,43.8895516 115.470895,44.059269 116.072921,44.180955 C116.674946,44.302641 117.411456,44.3634831 118.282471,44.3634831 C119.166296,44.3634831 119.928423,44.2962366 120.568876,44.1617415 C121.209328,44.0272465 121.737694,43.841518 122.153988,43.6045505 C122.570282,43.3675831 122.874493,43.0857881 123.066628,42.7591573 C123.258764,42.4325264 123.354831,42.0770806 123.354831,41.692809 Z M118.147977,30.472135 C118.737193,30.472135 119.249548,30.3920796 119.685055,30.2319664 C120.120563,30.0718533 120.482414,29.8509004 120.770617,29.5691013 C121.058821,29.2873021 121.276572,28.9478673 121.423876,28.5507867 C121.57118,28.153706 121.644831,27.7182048 121.644831,27.2442698 C121.644831,26.2707818 121.353429,25.499048 120.770617,24.9290451 C120.187805,24.3590423 119.313601,24.0740452 118.147977,24.0740452 C116.982353,24.0740452 116.108148,24.3590423 115.525336,24.9290451 C114.942525,25.499048 114.651123,26.2707818 114.651123,27.2442698 C114.651123,27.7053957 114.724774,28.1344926 114.872078,28.5315732 C115.019382,28.9286538 115.237133,29.2712908 115.525336,29.5594945 C115.81354,29.8476982 116.178593,30.0718533 116.620505,30.2319664 C117.062417,30.3920796 117.571569,30.472135 118.147977,30.472135 Z M127.744044,21.0959553 L131.509887,21.0959553 C131.86854,21.0959553 132.169548,21.1792129 132.41292,21.3457306 C132.656292,21.5122483 132.809999,21.7235945 132.874044,21.9797755 L135.698426,32.5087641 C135.852135,33.0851715 135.977021,33.6487614 136.073089,34.1995506 C136.169157,34.7503399 136.262021,35.3011209 136.351684,35.8519102 C136.492584,35.3011209 136.643088,34.7503399 136.803201,34.1995506 C136.963314,33.6487614 137.133032,33.0851715 137.312359,32.5087641 L140.578651,21.9413486 C140.655505,21.6851675 140.809211,21.4738213 141.039774,21.3073036 C141.270337,21.1407859 141.539323,21.0575283 141.846741,21.0575283 L143.94101,21.0575283 C144.286855,21.0575283 144.575054,21.1407859 144.805617,21.3073036 C145.03618,21.4738213 145.189886,21.6851675 145.266741,21.9413486 L148.494606,32.700899 C148.661123,33.2516882 148.811627,33.7864582 148.946123,34.3052248 C149.080618,34.8239914 149.211908,35.3459525 149.339999,35.8711237 C149.429662,35.3203344 149.528931,34.7695534 149.637808,34.2187641 C149.746685,33.6679749 149.88438,33.0979806 150.050898,32.5087641 L152.971347,21.9797755 C153.035392,21.7235945 153.189099,21.5122483 153.432471,21.3457306 C153.675843,21.1792129 153.957638,21.0959553 154.277864,21.0959553 L157.870785,21.0959553 L151.626403,40.8089888 L147.80292,40.8089888 C147.393031,40.8089888 147.098427,40.5271938 146.9191,39.9635955 L143.364606,28.5700002 C143.249324,28.1985376 143.143651,27.8238785 143.047583,27.4460114 C142.951515,27.0681444 142.87146,26.6934852 142.807415,26.3220227 C142.73056,26.7062942 142.647303,27.0873578 142.557639,27.4652249 C142.467976,27.8430919 142.365505,28.2241555 142.250224,28.6084271 L138.657302,39.9635955 C138.477976,40.5271938 138.132136,40.8089888 137.619774,40.8089888 L133.988426,40.8089888 L127.744044,21.0959553 Z M167.889549,20.7885396 C169.36259,20.7885396 170.697914,21.0255035 171.89556,21.4994384 C173.093207,21.9733734 174.114713,22.6458386 174.960111,23.5168541 C175.805508,24.3878697 176.45876,25.4510052 176.919886,26.7062923 C177.381012,27.9615795 177.611572,29.3641497 177.611572,30.9140451 C177.611572,32.4767495 177.381012,33.8857241 176.919886,35.1410113 C176.45876,36.3962985 175.805508,37.4658383 174.960111,38.349663 C174.114713,39.2334876 173.093207,39.9123572 171.89556,40.3862921 C170.697914,40.8602271 169.36259,41.097191 167.889549,41.097191 C166.416508,41.097191 165.077982,40.8602271 163.873931,40.3862921 C162.66988,39.9123572 161.641969,39.2334876 160.790167,38.349663 C159.938365,37.4658383 159.278709,36.3962985 158.811179,35.1410113 C158.343648,33.8857241 158.109886,32.4767495 158.109886,30.9140451 C158.109886,29.3641497 158.343648,27.9615795 158.811179,26.7062923 C159.278709,25.4510052 159.938365,24.3878697 160.790167,23.5168541 C161.641969,22.6458386 162.66988,21.9733734 163.873931,21.4994384 C165.077982,21.0255035 166.416508,20.7885396 167.889549,20.7885396 Z M167.889549,37.4466293 C169.529108,37.4466293 170.742748,36.8958483 171.530504,35.7942697 C172.318261,34.6926912 172.712133,33.0787748 172.712133,30.952472 C172.712133,28.8261693 172.318261,27.2058484 171.530504,26.0914609 C170.742748,24.9770733 169.529108,24.4198878 167.889549,24.4198878 C166.224372,24.4198878 164.994722,24.9802755 164.200561,26.1010676 C163.406399,27.2218597 163.009325,28.8389783 163.009325,30.952472 C163.009325,33.0659657 163.406399,34.6766799 164.200561,35.784663 C164.994722,36.892646 166.224372,37.4466293 167.889549,37.4466293 Z M185.305504,12.2577532 L185.305504,40.8089888 L180.559774,40.8089888 L180.559774,12.2577532 L185.305504,12.2577532 Z M190.444043,40.8089888 L190.444043,24.6696631 L188.734043,24.4006744 C188.362581,24.3366291 188.064775,24.2085405 187.840616,24.0164047 C187.616458,23.8242689 187.50438,23.5552828 187.50438,23.2094384 L187.50438,21.2688766 L190.444043,21.2688766 L190.444043,19.8086519 C190.444043,18.6814553 190.613761,17.6695553 190.953201,16.7729216 C191.292641,15.876288 191.779377,15.1141608 192.413425,14.4865172 C193.047473,13.8588736 193.819207,13.3785413 194.72865,13.045506 C195.638093,12.7124706 196.662802,12.5459554 197.802807,12.5459554 C198.71225,12.5459554 199.557635,12.6676396 200.338987,12.9110116 L200.24292,15.2934835 C200.217302,15.664946 200.044382,15.8955055 199.724156,15.9851689 C199.403929,16.0748322 199.032472,16.1196632 198.609774,16.1196632 C198.046175,16.1196632 197.543428,16.1805053 197.101515,16.3021913 C196.659603,16.4238773 196.284944,16.6352235 195.977526,16.9362363 C195.670109,17.237249 195.436347,17.6343237 195.276234,18.1274722 C195.116121,18.6206207 195.036066,19.2322438 195.036066,19.9623598 L195.036066,21.2688766 L200.166066,21.2688766 L200.166066,24.6504496 L195.189774,24.6504496 L195.189774,40.8089888 L190.444043,40.8089888 Z" id="Bugwolf"></path>
        </g>
    </g>
</svg>