<?xml version="1.0" encoding="UTF-8"?>
<svg width="93px" height="100px" viewBox="0 0 93 100" version="1.1" xmlns="http://www.w3.org/2000/svg" xmlns:xlink="http://www.w3.org/1999/xlink">
    <!-- Generator: Sketch 46.2 (44496) - http://www.bohemiancoding.com/sketch -->
    <title>Group 3</title>
    <desc>Created with Sketch.</desc>
    <defs>
        <rect id="path-1" x="0" y="0" width="92.9133858" height="100"></rect>
    </defs>
    <g id="Page-1" stroke="none" stroke-width="1" fill="none" fill-rule="evenodd">
        <g id="Group-3">
            <mask id="mask-2" fill="white">
                <use xlink:href="#path-1"></use>
            </mask>
            <g id="Rectangle-2"></g>
            <g id="Group-4" mask="url(#mask-2)">
                <g transform="translate(0.000000, 0.787402)">
                    <g id="car" stroke-width="1" fill="none" transform="translate(10.236220, 0.000000)">
                        <path d="M67.9133858,53.4717251 L2.95275591,53.4717251 C1.18110236,53.4717251 0,52.2834646 0,50.5010737 L0,29.706514 C0,24.6564066 3.83858268,20.7945598 8.85826772,20.7945598 L62.007874,20.7945598 C67.0275591,20.7945598 70.8661417,24.6564066 70.8661417,29.706514 L70.8661417,50.5010737 C70.8661417,52.2834646 69.6850394,53.4717251 67.9133858,53.4717251 Z M5.90551181,47.5304223 L64.9606299,47.5304223 L64.9606299,29.706514 C64.9606299,27.9241231 63.7795276,26.7358626 62.007874,26.7358626 L8.85826772,26.7358626 C7.08661417,26.7358626 5.90551181,27.9241231 5.90551181,29.706514 L5.90551181,47.5304223 Z" id="Shape" fill="#A7B6C2"></path>
                        <path d="M62.007874,26.7358626 L8.85826772,26.7358626 C7.97244094,26.7358626 7.08661417,26.4387974 6.49606299,25.547602 C5.90551181,24.9534717 5.90551181,23.7652112 5.90551181,22.8740157 L11.8110236,2.07945598 C12.4015748,0.891195419 13.5826772,0 14.7637795,0 L56.1023622,0 C57.2834646,0 58.4645669,0.891195419 59.0551181,2.07945598 L64.9606299,22.8740157 C64.9606299,23.7652112 64.9606299,24.9534717 64.3700787,25.547602 C63.7795276,26.4387974 62.8937008,26.7358626 62.007874,26.7358626 Z M12.6968504,20.7945598 L57.8740157,20.7945598 L53.7401575,5.94130279 L17.1259843,5.94130279 L12.6968504,20.7945598 Z" id="Shape" fill="#A7B6C2"></path>
                        <path d="M17.7165354,65.3543307 L2.95275591,65.3543307 C1.18110236,65.3543307 0,64.1660702 0,62.3836793 L0,50.5010737 C0,48.7186829 1.18110236,47.5304223 2.95275591,47.5304223 L17.7165354,47.5304223 C19.488189,47.5304223 20.6692913,48.7186829 20.6692913,50.5010737 L20.6692913,62.3836793 C20.6692913,64.1660702 19.488189,65.3543307 17.7165354,65.3543307 Z M5.90551181,59.4130279 L14.7637795,59.4130279 L14.7637795,53.4717251 L5.90551181,53.4717251 L5.90551181,59.4130279 Z M67.9133858,65.3543307 L53.1496063,65.3543307 C51.3779528,65.3543307 50.1968504,64.1660702 50.1968504,62.3836793 L50.1968504,50.5010737 C50.1968504,48.7186829 51.3779528,47.5304223 53.1496063,47.5304223 L67.9133858,47.5304223 C69.6850394,47.5304223 70.8661417,48.7186829 70.8661417,50.5010737 L70.8661417,62.3836793 C70.8661417,64.1660702 69.6850394,65.3543307 67.9133858,65.3543307 Z M56.1023622,59.4130279 L64.9606299,59.4130279 L64.9606299,53.4717251 L56.1023622,53.4717251 L56.1023622,59.4130279 Z" id="Shape" fill="#A7B6C2"></path>
                        <path d="M16.7322835,30.9818659 C13.4707594,30.9818659 10.8267717,33.6258536 10.8267717,36.8873777 L10.8267717,36.9828203 C10.8267717,40.2443444 13.4707594,42.8883321 16.7322835,42.8883321 C19.9938076,42.8883321 22.6377953,40.2443444 22.6377953,36.9828203 L22.6377953,36.8873777 C22.6377953,33.6258536 19.9938076,30.9818659 16.7322835,30.9818659 Z M54.1338583,30.9818659 C50.8723342,30.9818659 48.2283465,33.6258536 48.2283465,36.8873777 L48.2283465,36.9828203 C48.2283465,40.2443444 50.8723342,42.8883321 54.1338583,42.8883321 C57.3953824,42.8883321 60.0393701,40.2443444 60.0393701,36.9828203 L60.0393701,36.8873777 C60.0393701,33.6258536 57.3953824,30.9818659 54.1338583,30.9818659 Z" id="Rectangle-7" stroke="#A7B6C2" stroke-width="3.93700787"></path>
                        <path d="M7.38188976,23.7652112 C3.2480315,23.7652112 0,20.4974946 0,16.3385827 C0,12.1796707 3.2480315,8.91195419 7.38188976,8.91195419 C10.3346457,8.91195419 12.992126,10.694345 14.1732283,13.3679313 C14.7637795,14.853257 14.1732283,16.6356478 12.6968504,17.2297781 C12.4015748,17.5268432 12.1062992,17.5268432 11.8110236,17.5268432 C11.8110236,17.8239084 12.1062992,17.8239084 12.4015748,18.1209735 C13.2874016,19.6062992 12.992126,21.3886901 11.8110236,22.2798855 C10.6299213,23.1710809 8.85826772,23.7652112 7.38188976,23.7652112 Z M7.38188976,14.853257 C6.49606299,14.853257 5.90551181,15.4473873 5.90551181,16.3385827 C5.90551181,17.2297781 6.49606299,17.8239084 7.38188976,17.8239084 C7.67716535,17.8239084 7.97244094,17.8239084 8.26771654,17.5268432 C8.85826772,17.2297781 9.15354331,16.932713 9.74409449,16.932713 C9.15354331,16.6356478 8.85826772,16.3385827 8.85826772,15.7444524 C8.56299213,15.1503221 7.97244094,14.853257 7.38188976,14.853257 Z M63.484252,23.7652112 C62.007874,23.7652112 60.2362205,23.1710809 59.0551181,22.2798855 C57.8740157,21.3886901 57.5787402,19.3092341 58.4645669,18.1209735 C58.7598425,17.8239084 59.0551181,17.8239084 59.0551181,17.5268432 C58.7598425,17.5268432 58.4645669,17.5268432 58.1692913,17.2297781 C56.6929134,16.6356478 55.8070866,14.853257 56.6929134,13.3679313 C57.8740157,10.694345 60.5314961,8.91195419 63.484252,8.91195419 C67.6181102,8.91195419 70.8661417,12.1796707 70.8661417,16.3385827 C70.8661417,20.4974946 67.6181102,23.7652112 63.484252,23.7652112 Z M61.1220472,16.932713 C61.7125984,16.932713 62.3031496,17.2297781 62.5984252,17.5268432 C62.8937008,17.8239084 63.1889764,17.8239084 63.484252,17.8239084 C64.3700787,17.8239084 64.9606299,17.2297781 64.9606299,16.3385827 C64.9606299,15.4473873 64.3700787,14.853257 63.484252,14.853257 C62.8937008,14.853257 62.3031496,15.1503221 62.007874,15.7444524 C62.007874,16.3385827 61.7125984,16.6356478 61.1220472,16.932713 Z" id="Shape" fill="#A7B6C2"></path>
                    </g>
                    <path d="M10.8850394,98.9653543 C14.815748,98.9653543 17.2724409,97.1889764 18.3685039,95.6015748 L14.5889764,92.0488189 C13.8708661,93.0692913 12.6992126,93.8251969 11.1496063,93.8251969 C8.73070866,93.8251969 6.87874016,92.1244094 6.87874016,89.3653543 C6.87874016,86.6062992 8.73070866,84.9433071 11.1496063,84.9433071 C12.6992126,84.9433071 13.8708661,85.623622 14.5889764,86.6818898 L18.3685039,83.1669291 C17.2724409,81.5417323 14.815748,79.8031496 10.8850394,79.8031496 C5.17795276,79.8031496 0.907086614,83.6582677 0.907086614,89.3653543 C0.907086614,95.1102362 5.17795276,98.9653543 10.8850394,98.9653543 Z M36.8188976,98.511811 L30.9984252,98.511811 L30.9984252,96.6976378 C29.8645669,98.0582677 27.6724409,98.9653543 25.3291339,98.9653543 C22.5322835,98.9653543 19.0551181,97.0755906 19.0551181,92.9559055 C19.0551181,88.5338583 22.5322835,87.0976378 25.3291339,87.0976378 C27.7480315,87.0976378 29.9023622,87.8535433 30.9984252,89.2141732 L30.9984252,87.0220472 C30.9984252,85.4346457 29.6377953,84.376378 27.2944882,84.376378 C25.480315,84.376378 23.5905512,85.0566929 22.1165354,86.303937 L20.0377953,82.6377953 C22.3811024,80.6346457 25.5181102,79.8031496 28.3149606,79.8031496 C32.6992126,79.8031496 36.8188976,81.4283465 36.8188976,87.0976378 L36.8188976,98.511811 Z M27.7480315,95.1480315 C29.0330709,95.1480315 30.3937008,94.6944882 30.9984252,93.8251969 L30.9984252,92.2 C30.3937008,91.3685039 29.0330709,90.9149606 27.7480315,90.9149606 C26.1984252,90.9149606 24.8377953,91.5952756 24.8377953,93.0314961 C24.8377953,94.4677165 26.1984252,95.1480315 27.7480315,95.1480315 Z M44.5889763,98.511811 L44.5889763,86.8708661 C45.3448818,85.8503937 47.3480314,85.207874 48.8598424,85.207874 C49.4645669,85.207874 49.9559054,85.2834646 50.2960629,85.3590551 L50.2960629,79.7653543 C48.1039369,79.7653543 45.7984251,81.0125984 44.5889763,82.4866142 L44.5889763,80.2566929 L38.7685039,80.2566929 L38.7685039,98.511811 L44.5889763,98.511811 Z M61.2692913,98.511811 L55.4488188,98.511811 L55.4488188,85.3212598 L52.4251968,85.3212598 L52.4251968,80.2566929 L55.4488188,80.2566929 L55.4488188,79.3496063 C55.4488188,75.4944882 58.1700787,72.9244094 61.9874015,72.9244094 C63.9527558,72.9244094 65.9937007,73.4535433 67.2409448,74.7385827 L65.0866141,78.0645669 C64.6330708,77.5732283 64.103937,77.3464567 63.2724409,77.3464567 C62.1763779,77.3464567 61.2692913,78.0645669 61.2692913,79.3496063 L61.2692913,80.2566929 L64.9732283,80.2566929 L64.9732283,85.3212598 L61.2692913,85.3212598 L61.2692913,98.511811 Z M84.9826771,98.511811 L79.1622047,98.511811 L79.1622047,96.319685 C78.0283464,97.6047244 75.911811,98.9653543 72.8503937,98.9653543 C68.6929133,98.9653543 66.8409448,96.6220472 66.8409448,93.2582677 L66.8409448,80.2566929 L72.6614173,80.2566929 L72.6614173,90.8771654 C72.6614173,93.0692913 73.7952755,93.8251969 75.6850393,93.8251969 C77.3480314,93.8251969 78.4818897,92.9181102 79.1622047,92.0488189 L79.1622047,80.2566929 L84.9826771,80.2566929 L84.9826771,98.511811 Z M92.6740157,98.511811 L92.6740157,73.3023622 L86.8535433,73.3023622 L86.8535433,98.511811 L92.6740157,98.511811 Z" id="carful" fill="#A7B6C2"></path>
                </g>
            </g>
        </g>
    </g>
</svg>