<svg width="93" height="100" xmlns="http://www.w3.org/2000/svg" xmlns:xlink="http://www.w3.org/1999/xlink"><defs><path id="a" d="M0 0h92.9v100H0z"/></defs><g fill="none" fill-rule="evenodd"><mask id="b" fill="#fff"><use xlink:href="#a"/></mask><g mask="url(#b)"><path d="M78.1 54.3h-65c-1.7 0-2.9-1.2-2.9-3V30.5c0-5 3.9-9 8.9-9h53.1c5 0 8.9 4 8.9 9v20.8c0 1.8-1.2 3-3 3zm-62-6h59.1V30.5c0-1.8-1.2-3-3-3H19.1c-1.8 0-3 1.2-3 3v17.8z" fill="#A7B6C2"/><path d="M72.2 27.5H19.1c-.9 0-1.8-.3-2.4-1.2-.6-.6-.6-1.7-.6-2.6l6-20.8C22.5 1.7 23.7.8 25 .8h41.3c1.2 0 2.4.9 3 2l5.9 20.9c0 .9 0 2-.6 2.6-.6 1-1.5 1.2-2.4 1.2zm-49.3-6h45.2L64 6.8H27.4l-4.5 14.9zM28 66.1H13.2c-1.8 0-3-1.1-3-3V51.4c0-1.8 1.2-3 3-3H28c1.7 0 3 1.2 3 3v11.9c0 1.8-1.3 3-3 3zM16 60.2H25v-6h-8.9v6zm62 6H63.4c-1.8 0-3-1.2-3-3v-12c0-1.7 1.2-2.9 3-2.9H78c1.8 0 3 1.2 3 3v11.9c0 1.8-1.2 3-3 3zm-11.8-6h8.9v-6h-8.9v6z" fill="#A7B6C2"/><path d="M27 31.8a6 6 0 1 0 6 6l-.1-.1a6 6 0 0 0-6-6zm37.4 0a6 6 0 1 0 6 6l-.1-.1a6 6 0 0 0-6-6z" stroke="#A7B6C2" stroke-width="3.9"/><path d="M17.6 24.6a7.3 7.3 0 0 1-7.4-7.5c0-4.1 3.3-7.4 7.4-7.4 3 0 5.6 1.8 6.8 4.5.6 1.4 0 3.2-1.5 3.8-.3.3-.6.3-.9.3 0 .3.3.3.6.6 1 1.5.6 3.3-.6 4.2a8 8 0 0 1-4.4 1.5zm0-9c-.9 0-1.5.6-1.5 1.5 0 1 .6 1.5 1.5 1.5.3 0 .6 0 .9-.3.6-.3.9-.6 1.5-.6-.6-.3-1-.6-1-1.2-.2-.6-.8-.9-1.4-.9zm56.1 9a8 8 0 0 1-4.4-1.5c-1.2-1-1.5-3-.6-4.2.3-.3.6-.3.6-.6-.3 0-.6 0-.9-.3-1.5-.6-2.4-2.4-1.5-3.8a7.5 7.5 0 0 1 6.8-4.5c4.2 0 7.4 3.3 7.4 7.4 0 4.2-3.2 7.5-7.4 7.5zm-2.3-6.9c.5 0 1.1.3 1.4.6.3.3.6.3 1 .3.8 0 1.4-.6 1.4-1.5s-.6-1.5-1.5-1.5c-.6 0-1.2.3-1.5 1 0 .5-.3.8-.8 1.1zM10.9 99.8c4 0 6.4-1.8 7.5-3.4l-3.8-3.6c-.7 1-1.9 1.8-3.5 1.8C8.7 94.6 7 93 7 90.2c0-2.8 1.8-4.5 4.2-4.5a4 4 0 0 1 3.5 1.8l3.8-3.5c-1.1-1.7-3.6-3.4-7.5-3.4-5.7 0-10 3.8-10 9.6 0 5.7 4.3 9.6 10 9.6zm26-.5H31v-1.8a7.5 7.5 0 0 1-5.7 2.3c-2.8 0-6.2-2-6.2-6 0-4.5 3.4-6 6.2-6 2.4 0 4.6.8 5.7 2.2v-2.2c0-1.6-1.4-2.6-3.7-2.6-1.8 0-3.7.6-5.2 1.9l-2-3.7c2.3-2 5.4-2.8 8.2-2.8 4.4 0 8.5 1.6 8.5 7.3v11.4zm-9.2-3.4c1.3 0 2.7-.4 3.3-1.3V93c-.6-.8-2-1.3-3.3-1.3-1.5 0-2.9.7-2.9 2.1 0 1.5 1.4 2.1 3 2.1zm16.9 3.4V87.7c.7-1 2.7-1.7 4.3-1.7l1.4.1v-5.5a8 8 0 0 0-5.7 2.7V81h-5.8v18.3h5.8zm16.7 0h-5.9V86.1h-3v-5h3v-1c0-3.8 2.8-6.4 6.6-6.4 2 0 4 .5 5.2 1.8L65.1 79c-.5-.5-1-.8-1.8-.8-1.1 0-2 .8-2 2v1H65v5h-3.7v13.2zm23.7 0h-5.8v-2.2a8.3 8.3 0 0 1-6.3 2.7c-4.2 0-6-2.4-6-5.8V81h5.8v10.7c0 2.2 1.1 3 3 3 1.6 0 2.8-1 3.5-1.9V81H85v18.3zm7.7 0V74.1h-5.8v25.2h5.8z" fill="#A7B6C2"/></g></g></svg>