<?xml version="1.0" encoding="UTF-8"?>
<svg width="100px" height="99px" viewBox="0 0 100 99" version="1.1" xmlns="http://www.w3.org/2000/svg" xmlns:xlink="http://www.w3.org/1999/xlink">
    <!-- Generator: Sketch 46.2 (44496) - http://www.bohemiancoding.com/sketch -->
    <title>logo</title>
    <desc>Created with Sketch.</desc>
    <defs></defs>
    <g id="Page-1" stroke="none" stroke-width="1" fill="none" fill-rule="evenodd">
        <g id="logo" fill="#A7B6C2">
            <polyline id="Path-1" points="0.0451144366 0.297729492 0.0451144366 48.8089148 6.99717406 48.8089148 6.99717406 16.4734531 23.7973151 47.0028076 41.0871479 15.7906494 41.0871479 48.9840966 47.7483104 48.9840966 47.7483104 0.0285741322 40.8833586 0.0285741322 23.9898768 32.4942627 7.16549296 0.235107422"></polyline>
            <path d="M48.9975792,48.862793 L70.2991113,0.176879883 L77.8917254,0.176879883 L99.2106044,49.1715088 L91.190581,49.1715088 L86.1291441,38.8081055 L61.2004842,38.8081055 L56.9728428,48.862793 L48.9975792,48.862793 Z M64.9691901,30.635376 L83.0057457,30.635376 L74.0382923,8.59570313 L64.9691901,30.635376 Z" id="Path-2"></path>
            <path d="M49.5774648,98.1859131 L70.8789968,49.5 L78.4716109,49.5 L99.7904899,98.4946289 L91.7704665,98.4946289 L86.7090296,88.1312256 L61.7803697,88.1312256 L57.5527284,98.1859131 L49.5774648,98.1859131 Z M65.5490757,79.9584961 L83.5856312,79.9584961 L74.6181778,57.9188232 L65.5490757,79.9584961 Z" id="Path-2-Copy"></path>
            <path d="M7.76408451,49.3637695 L40.6569102,49.5911793 L40.6569102,86.9798584 L7.76408451,49.3637695 Z M40.0935299,99 L7.20070423,98.7725902 L7.20070423,61.3839111 L40.0935299,99 Z" id="Path-4"></path>
        </g>
    </g>
</svg>