<svg width="200" height="58" xmlns="http://www.w3.org/2000/svg" xmlns:xlink="http://www.w3.org/1999/xlink"><defs><path id="a" d="M0 0h200v57.5H0z"/></defs><g fill="none" fill-rule="evenodd"><mask id="b" fill="#fff"><use xlink:href="#a"/></mask><path d="M70 11.3h10.6c2 0 3.6.2 5.2.6 1.5.4 2.8 1 4 1.8a8 8 0 0 1 2.4 3c.6 1.2 1 2.7 1 4.4 0 1.7-.4 3.2-1 4.4a8.3 8.3 0 0 1-2.7 3.1 12 12 0 0 1-4 1.8c-1.6.3-3.3.5-5.1.5h-5.5v15.4h-5v-35zm4.9 15.5H80c1.1 0 2.2-.1 3.2-.3 1-.3 1.9-.6 2.6-1 .7-.5 1.3-1 1.7-1.8.4-.7.6-1.6.6-2.6s-.2-2-.6-2.7a5 5 0 0 0-1.7-1.7c-.7-.4-1.6-.8-2.5-1l-3.2-.2h-5.3v11.3zm25.6-.4a7.2 7.2 0 0 1 2.9-3 8.5 8.5 0 0 1 4.5-1.2c1.5 0 2.8.3 3.9.8a7.9 7.9 0 0 1 4.3 5c.4 1.2.5 2.4.5 3.8v14.5H112v-13c0-1 0-1.8-.2-2.7l-.8-2.2c-.4-.7-1-1.2-1.6-1.6-.7-.4-1.6-.6-2.7-.6-1.8 0-3.3.7-4.5 2a8.4 8.4 0 0 0-1.8 5.7v12.4h-4.6V9h4.6v17.4h.1zm35 4.7c0-1.7-.4-3-1.5-3.9-1-.8-2.4-1.2-4.2-1.2-1.3 0-2.5.2-3.7.8a9.4 9.4 0 0 0-3 1.9l-2.4-3c1.1-1 2.6-1.9 4.2-2.5a15 15 0 0 1 9.7-.2c1.3.4 2.3 1 3 2a8 8 0 0 1 1.8 2.8c.4 1.1.6 2.3.6 3.6v10.2a44.1 44.1 0 0 0 .4 4.7h-4.2c-.3-1.2-.4-2.3-.4-3.4h-.2a9 9 0 0 1-7.8 4c-1 0-1.9-.2-2.9-.4-1-.3-1.9-.7-2.7-1.2a6.8 6.8 0 0 1-2-2.2c-.6-1-.9-2.1-.9-3.4a6 6 0 0 1 1.4-4.3 9 9 0 0 1 3.8-2.3c1.5-.6 3.3-1 5.2-1 2-.3 4-.3 5.9-.3V31zm-1 4a44.9 44.9 0 0 0-7 .8c-1 .3-1.8.7-2.5 1.3a3 3 0 0 0-1 2.4 3.5 3.5 0 0 0 1.5 2.9l1.6.5 1.7.2c2.2 0 3.9-.6 5-2a7 7 0 0 0 1.8-4.9v-1.2h-1.1zM150 34l-8.6-11.1h5.8l5.7 8 5.7-8h5.5l-8.5 11 9.5 12.4h-5.8l-6.5-9.2-6.6 9.2h-5.6l9.4-12.3zm20.7 12.3h-4.6V22.9h4.6v23.4zm.8-31.8c0 .8-.3 1.5-1 2-.5.6-1.3 1-2.1 1a3 3 0 0 1-3-3c0-.9.2-1.6.8-2.2a3 3 0 0 1 2.2-.9 3 3 0 0 1 2.2 1c.6.5.9 1.2.9 2zm27.5 20c0 1.8-.3 3.5-1 5a11.8 11.8 0 0 1-6.6 6.5c-1.5.6-3.2.9-5 .9-1.8 0-3.4-.3-5-1a11.7 11.7 0 0 1-6.6-6.4c-.6-1.5-1-3.2-1-5a12.5 12.5 0 0 1 3.6-8.8 13.5 13.5 0 0 1 9-3.5c1.8 0 3.5.3 5 1a11.6 11.6 0 0 1 7.6 11.4zm-4.8 0a10 10 0 0 0-.5-3.2c-.4-1-.9-1.9-1.5-2.7a7.2 7.2 0 0 0-5.8-2.5 7.2 7.2 0 0 0-5.8 2.5c-.6.8-1.1 1.7-1.5 2.7a10 10 0 0 0 1.5 9.1 7 7 0 0 0 2.5 2c1 .4 2 .6 3.3.6 1.3 0 2.4-.2 3.3-.7a7 7 0 0 0 2.5-1.9c.6-.7 1.1-1.7 1.5-2.7.3-1 .5-2 .5-3.2z" fill="#A7B6C2" mask="url(#b)"/><g mask="url(#b)"><path d="M43.6 45c0 2.8 0 2.8-2.9 2.8h-25V43L5.2 50.4l10.7 7.1v-4.7h25c8 0 8 0 8-7.7V10.6l-5.2-3.4V45zM8.2 36v2.7h32.7v-2.6H8.2zM18.9 42v2.6h22v-2.6H19zM8.2 30.3v2.6h32.7v-2.6H8.2zm4.6 11.6H8v2.6h.6l4-2.6zM5 12.5C5 9.7 5 9.7 8 9.7h25v4.8l10.7-7.3L32.9 0v4.7H8C0 4.7 0 4.7 0 12.5v34.4l5 3.4V12.5zm3.1 12v2.6h32.7v-2.6H8.2zm0-11.6v2.6h22V13h-22zm0 5.8v2.6h32.7v-2.6H8.2zm28-3.2H41V13h-.6l-4 2.6z" fill="#A7B6C2"/></g></g></svg>