<?xml version="1.0" encoding="UTF-8"?>
<svg width="199px" height="58px" viewBox="0 0 199 58" version="1.1" xmlns="http://www.w3.org/2000/svg" xmlns:xlink="http://www.w3.org/1999/xlink">
    <!-- Generator: Sketch 46.2 (44496) - http://www.bohemiancoding.com/sketch -->
    <title>Group 18</title>
    <desc>Created with Sketch.</desc>
    <defs>
        <rect id="path-1" x="0" y="0" width="200" height="57.5342466"></rect>
    </defs>
    <g id="Page-1" stroke="none" stroke-width="1" fill="none" fill-rule="evenodd">
        <g id="Group-18">
            <mask id="mask-2" fill="white">
                <use xlink:href="#path-1"></use>
            </mask>
            <g id="Rectangle"></g>
            <text id="Phaxio" mask="url(#mask-2)" font-family="AvenirNext-Medium, Avenir Next" font-size="49.3150685" font-weight="400" letter-spacing="-3.42465753" fill="#A7B6C2">
                <tspan x="65.7534247" y="46.260274">Phaxio</tspan>
            </text>
            <g id="Icon----Flat" mask="url(#mask-2)">
                <g transform="translate(-4.109589, 0.000000)" id="Group">
                    <g transform="translate(28.767123, 28.767123) scale(1, -1) translate(-28.767123, -28.767123) translate(4.109589, 0.000000)">
                        <path d="M43.6361642,12.4650676 C43.6361642,9.71696995 43.6361642,9.71696995 40.7285194,9.71697046 L15.7941715,9.71697046 L15.7935534,14.5029148 L5.0621128,7.18032248 L15.7941715,0 L15.7941715,4.71595214 L40.7285194,4.67187404 C48.713664,4.7159519 48.713664,4.7159519 48.713664,12.4650676 L48.7136652,46.9375968 L43.6361654,50.3424658 L43.6361642,12.4650676 Z M8.19770514,21.4668709 L8.19770514,18.8322582 L40.9068608,18.8322582 L40.9068608,21.4668709 L8.19770514,21.4668709 Z M18.9368276,15.6815941 L18.9368276,13.0469813 L40.9068608,13.0469813 L40.9068608,15.6815941 L18.9368276,15.6815941 Z M8.19770514,27.2524477 L8.19770514,24.6178349 L40.9068608,24.6178349 L40.9068608,27.2524477 L8.19770514,27.2524477 Z M12.7874263,15.6652652 L8.14339885,15.6652652 L8.14339885,13.0306524 L8.73618363,13.0306524 L12.7874263,15.6652652 Z M5.07750097,45.069179 C5.07750097,47.8172766 5.07750097,47.8172766 7.9851458,47.8172761 L32.9194937,47.8172761 L32.9201118,43.0313318 L43.6515524,50.3539241 L32.9194937,57.5342466 L32.9194937,52.8182944 L7.9851458,52.8623725 C1.19065716e-06,52.8182947 1.19065716e-06,52.8182947 1.19065716e-06,45.069179 L0,10.5966498 L5.07749981,7.19178082 L5.07750097,45.069179 Z M8.19770514,33.0371247 L8.19770514,30.4025119 L40.9068608,30.4025119 L40.9068608,33.0371247 L8.19770514,33.0371247 Z M8.21676281,44.6460057 L8.21676281,42.0113929 L30.186796,42.0113929 L30.186796,44.6460057 L8.21676281,44.6460057 Z M8.19770514,38.8224015 L8.19770514,36.1877887 L40.9065516,36.1877887 L40.9065516,38.8224015 L8.19770514,38.8224015 Z M36.2417931,42.0113929 L40.8858205,42.0113929 L40.8858205,44.6460057 L40.2930357,44.6460057 L36.2417931,42.0113929 Z" id="Combined-Shape" fill="#A7B6C2"></path>
                    </g>
                </g>
            </g>
        </g>
    </g>
</svg>