<?xml version="1.0" encoding="UTF-8"?>
<svg width="200px" height="58px" viewBox="0 0 200 58" version="1.1" xmlns="http://www.w3.org/2000/svg" xmlns:xlink="http://www.w3.org/1999/xlink">
    <!-- Generator: Sketch 46.2 (44496) - http://www.bohemiancoding.com/sketch -->
    <title>Group 18</title>
    <desc>Created with Sketch.</desc>
    <defs>
        <rect id="path-1" x="0" y="0" width="200" height="57.5342466"></rect>
    </defs>
    <g id="Page-1" stroke="none" stroke-width="1" fill="none" fill-rule="evenodd">
        <g id="Group-18">
            <mask id="mask-2" fill="white">
                <use xlink:href="#path-1"></use>
            </mask>
            <g id="Rectangle"></g>
            <path d="M69.9945205,11.3452055 L80.6465753,11.3452055 C82.5205573,11.3452055 84.2301293,11.5342447 85.7753425,11.9123288 C87.3205557,12.2904128 88.635611,12.8739687 89.7205479,13.6630137 C90.8054849,14.4520587 91.6438327,15.4547884 92.2356164,16.6712329 C92.8274002,17.8876773 93.1232877,19.3506764 93.1232877,21.060274 C93.1232877,22.8027484 92.8027429,24.2986239 92.1616438,25.5479452 C91.5205447,26.7972665 90.6328824,27.8164344 89.4986301,28.6054795 C88.3643779,29.3945245 87.0164462,29.9780803 85.4547945,30.3561644 C83.8931429,30.7342485 82.2082282,30.9232877 80.4,30.9232877 L74.8767123,30.9232877 L74.8767123,46.260274 L69.9945205,46.260274 L69.9945205,11.3452055 Z M74.8767123,26.7808219 L80.0547945,26.7808219 C81.2383621,26.7808219 82.3315018,26.6739737 83.3342466,26.460274 C84.3369913,26.2465743 85.1999964,25.9178104 85.9232877,25.4739726 C86.646579,25.0301348 87.2054775,24.446579 87.6,23.7232877 C87.9945225,22.9999964 88.1917808,22.112334 88.1917808,21.060274 C88.1917808,20.0082139 87.9863034,19.1287707 87.5753425,18.4219178 C87.1643815,17.715065 86.605483,17.1397282 85.8986301,16.6958904 C85.1917773,16.2520526 84.3452104,15.9397269 83.3589041,15.7589041 C82.3725978,15.5780813 81.3041153,15.4876712 80.1534247,15.4876712 L74.8767123,15.4876712 L74.8767123,26.7808219 Z M100.49863,26.4356164 C101.057537,25.2849258 102.010952,24.2986342 103.358904,23.4767123 C104.706856,22.6547904 106.21917,22.2438356 107.89589,22.2438356 C109.408227,22.2438356 110.706844,22.4986276 111.791781,23.0082192 C112.876718,23.5178108 113.780818,24.1999957 114.50411,25.0547945 C115.227401,25.9095933 115.761642,26.912323 116.106849,28.0630137 C116.452057,29.2137044 116.624658,30.4465688 116.624658,31.7616438 L116.624658,46.260274 L111.989041,46.260274 L111.989041,33.339726 C111.989041,32.3862966 111.915069,31.4821961 111.767123,30.6273973 C111.619177,29.7725985 111.347947,29.0164416 110.953425,28.3589041 C110.558902,27.7013666 110.024661,27.1753444 109.350685,26.7808219 C108.676709,26.3862994 107.797266,26.1890411 106.712329,26.1890411 C104.871224,26.1890411 103.35891,26.8876642 102.175342,28.2849315 C100.991775,29.6821988 100.4,31.5479335 100.4,33.8821918 L100.4,46.260274 L95.7643836,46.260274 L95.7643836,8.97808219 L100.4,8.97808219 L100.4,26.4356164 L100.49863,26.4356164 Z M135.589041,31.1205479 C135.589041,29.3780735 135.063019,28.0876754 134.010959,27.2493151 C132.958899,26.4109547 131.561653,25.9917808 129.819178,25.9917808 C128.504103,25.9917808 127.26302,26.2465728 126.09589,26.7561644 C124.928761,27.265756 123.950689,27.9150645 123.161644,28.7041096 L120.69589,25.7452055 C121.846581,24.6602685 123.252046,23.8054826 124.912329,23.1808219 C126.572611,22.5561613 128.356155,22.2438356 130.263014,22.2438356 C131.939734,22.2438356 133.394514,22.4821894 134.627397,22.9589041 C135.86028,23.4356188 136.871229,24.0849274 137.660274,24.9068493 C138.449319,25.7287712 139.041094,26.6986245 139.435616,27.8164384 C139.830139,28.9342522 140.027397,30.1342402 140.027397,31.4164384 L140.027397,41.6246575 C140.027397,42.4137026 140.052055,43.2438313 140.10137,44.1150685 C140.150685,44.9863057 140.241095,45.7013671 140.372603,46.260274 L136.180822,46.260274 C135.917807,45.1424602 135.786301,44.0246631 135.786301,42.9068493 L135.638356,42.9068493 C134.783557,44.1561706 133.706856,45.1260239 132.408219,45.8164384 C131.109583,46.5068528 129.572612,46.8520548 127.79726,46.8520548 C126.876708,46.8520548 125.915074,46.7287684 124.912329,46.4821918 C123.909584,46.2356152 122.997264,45.8328795 122.175342,45.2739726 C121.353421,44.7150657 120.671236,43.9753471 120.128767,43.0547945 C119.586299,42.134242 119.315068,41.0000067 119.315068,39.6520548 C119.315068,37.8767035 119.791776,36.4712381 120.745205,35.4356164 C121.698635,34.3999948 122.947937,33.6109616 124.493151,33.0684932 C126.038364,32.5260247 127.780812,32.1726036 129.720548,32.0082192 C131.660284,31.8438348 133.616428,31.7616438 135.589041,31.7616438 L135.589041,31.1205479 Z M134.454795,35.1150685 C133.304104,35.1150685 132.112335,35.1643831 130.879452,35.2630137 C129.646569,35.3616443 128.528772,35.5589026 127.526027,35.8547945 C126.523283,36.1506864 125.693154,36.5945176 125.035616,37.1863014 C124.378079,37.7780852 124.049315,38.5671184 124.049315,39.5534247 C124.049315,40.2438391 124.18904,40.8191758 124.468493,41.2794521 C124.747947,41.7397283 125.117806,42.1178067 125.578082,42.4136986 C126.038358,42.7095905 126.547942,42.9150679 127.106849,43.030137 C127.665756,43.1452061 128.241093,43.2027397 128.832877,43.2027397 C131.002751,43.2027397 132.671227,42.5534312 133.838356,41.2547945 C135.005485,39.9561579 135.589041,38.3205578 135.589041,36.3479452 L135.589041,35.1150685 L134.454795,35.1150685 Z M150.065753,33.9808219 L141.534247,22.8849315 L147.254795,22.8849315 L152.975342,30.9232877 L158.745205,22.8849315 L164.169863,22.8849315 L155.736986,33.9315068 L165.156164,46.260274 L159.386301,46.260274 L152.876712,37.1369863 L146.268493,46.260274 L140.69589,46.260274 L150.065753,33.9808219 Z M170.805479,46.260274 L166.169863,46.260274 L166.169863,22.8849315 L170.805479,22.8849315 L170.805479,46.260274 Z M171.594521,14.4520548 C171.594521,15.3068536 171.290414,16.0136958 170.682192,16.5726027 C170.07397,17.1315096 169.34247,17.4109589 168.487671,17.4109589 C167.632872,17.4109589 166.909592,17.1232905 166.317808,16.5479452 C165.726024,15.9725999 165.430137,15.2739767 165.430137,14.4520548 C165.430137,13.597256 165.726024,12.8821947 166.317808,12.3068493 C166.909592,11.731504 167.632872,11.4438356 168.487671,11.4438356 C169.34247,11.4438356 170.07397,11.731504 170.682192,12.3068493 C171.290414,12.8821947 171.594521,13.597256 171.594521,14.4520548 Z M199.139726,34.5232877 C199.139726,36.3315159 198.819181,37.9917733 198.178082,39.5041096 C197.536983,41.0164459 196.649321,42.3232822 195.515068,43.4246575 C194.380816,44.5260329 193.041104,45.3808189 191.49589,45.9890411 C189.950677,46.5972633 188.29042,46.9013699 186.515068,46.9013699 C184.739717,46.9013699 183.07946,46.5972633 181.534247,45.9890411 C179.989033,45.3808189 178.65754,44.5260329 177.539726,43.4246575 C176.421912,42.3232822 175.542469,41.0164459 174.90137,39.5041096 C174.260271,37.9917733 173.939726,36.3315159 173.939726,34.5232877 C173.939726,32.7150595 174.260271,31.0630212 174.90137,29.5671233 C175.542469,28.0712254 176.421912,26.7808273 177.539726,25.6958904 C178.65754,24.6109535 179.989033,23.7643866 181.534247,23.1561644 C183.07946,22.5479422 184.739717,22.2438356 186.515068,22.2438356 C188.29042,22.2438356 189.950677,22.5479422 191.49589,23.1561644 C193.041104,23.7643866 194.380816,24.6109535 195.515068,25.6958904 C196.649321,26.7808273 197.536983,28.0712254 198.178082,29.5671233 C198.819181,31.0630212 199.139726,32.7150595 199.139726,34.5232877 Z M194.306849,34.5232877 C194.306849,33.4054739 194.134248,32.3369914 193.789041,31.3178082 C193.443834,30.298625 192.942469,29.4027436 192.284932,28.630137 C191.627394,27.8575304 190.813703,27.2410982 189.843836,26.7808219 C188.873968,26.3205456 187.76439,26.090411 186.515068,26.090411 C185.265747,26.090411 184.156169,26.3205456 183.186301,26.7808219 C182.216434,27.2410982 181.402743,27.8575304 180.745205,28.630137 C180.087668,29.4027436 179.586303,30.298625 179.241096,31.3178082 C178.895889,32.3369914 178.723288,33.4054739 178.723288,34.5232877 C178.723288,35.6411015 178.895889,36.7095839 179.241096,37.7287671 C179.586303,38.7479503 180.087668,39.6520508 180.745205,40.4410959 C181.402743,41.2301409 182.216434,41.8547922 183.186301,42.3150685 C184.156169,42.7753448 185.265747,43.0054795 186.515068,43.0054795 C187.76439,43.0054795 188.873968,42.7753448 189.843836,42.3150685 C190.813703,41.8547922 191.627394,41.2301409 192.284932,40.4410959 C192.942469,39.6520508 193.443834,38.7479503 193.789041,37.7287671 C194.134248,36.7095839 194.306849,35.6411015 194.306849,34.5232877 Z" id="Phaxio" fill="#A7B6C2" mask="url(#mask-2)"></path>
            <g id="Icon----Flat" mask="url(#mask-2)">
                <g transform="translate(-4.109589, 0.000000)" id="Group">
                    <g transform="translate(28.767123, 28.767123) scale(1, -1) translate(-28.767123, -28.767123) translate(4.109589, 0.000000)">
                        <path d="M43.6361642,12.4650676 C43.6361642,9.71696995 43.6361642,9.71696995 40.7285194,9.71697046 L15.7941715,9.71697046 L15.7935534,14.5029148 L5.0621128,7.18032248 L15.7941715,0 L15.7941715,4.71595214 L40.7285194,4.67187404 C48.713664,4.7159519 48.713664,4.7159519 48.713664,12.4650676 L48.7136652,46.9375968 L43.6361654,50.3424658 L43.6361642,12.4650676 Z M8.19770514,21.4668709 L8.19770514,18.8322582 L40.9068608,18.8322582 L40.9068608,21.4668709 L8.19770514,21.4668709 Z M18.9368276,15.6815941 L18.9368276,13.0469813 L40.9068608,13.0469813 L40.9068608,15.6815941 L18.9368276,15.6815941 Z M8.19770514,27.2524477 L8.19770514,24.6178349 L40.9068608,24.6178349 L40.9068608,27.2524477 L8.19770514,27.2524477 Z M12.7874263,15.6652652 L8.14339885,15.6652652 L8.14339885,13.0306524 L8.73618363,13.0306524 L12.7874263,15.6652652 Z M5.07750097,45.069179 C5.07750097,47.8172766 5.07750097,47.8172766 7.9851458,47.8172761 L32.9194937,47.8172761 L32.9201118,43.0313318 L43.6515524,50.3539241 L32.9194937,57.5342466 L32.9194937,52.8182944 L7.9851458,52.8623725 C1.19065716e-06,52.8182947 1.19065716e-06,52.8182947 1.19065716e-06,45.069179 L0,10.5966498 L5.07749981,7.19178082 L5.07750097,45.069179 Z M8.19770514,33.0371247 L8.19770514,30.4025119 L40.9068608,30.4025119 L40.9068608,33.0371247 L8.19770514,33.0371247 Z M8.21676281,44.6460057 L8.21676281,42.0113929 L30.186796,42.0113929 L30.186796,44.6460057 L8.21676281,44.6460057 Z M8.19770514,38.8224015 L8.19770514,36.1877887 L40.9065516,36.1877887 L40.9065516,38.8224015 L8.19770514,38.8224015 Z M36.2417931,42.0113929 L40.8858205,42.0113929 L40.8858205,44.6460057 L40.2930357,44.6460057 L36.2417931,42.0113929 Z" id="Combined-Shape" fill="#A7B6C2"></path>
                    </g>
                </g>
            </g>
        </g>
    </g>
</svg>