<svg width="200" height="54" xmlns="http://www.w3.org/2000/svg" xmlns:xlink="http://www.w3.org/1999/xlink"><defs><path id="a" d="M0 0h200v53.6H0z"/></defs><g fill="none" fill-rule="evenodd"><mask id="b" fill="#fff"><use xlink:href="#a"/></mask><path d="M55 11.8l9.4 25 9.4-25H79L66.5 43.1h-4.2L49.7 11.8H55zm26.3 36.7a21.8 21.8 0 0 0 2.4.3c.4 0 .7-.1 1-.3l.8-.8 1-1.8 1-2.8L78 20h5l7.1 18.7 6.4-18.7h4.5L90.6 48.4a7.2 7.2 0 0 1-2.4 3.3 7.1 7.1 0 0 1-4.5 1.3 9.6 9.6 0 0 1-2.4-.3v-4.2zM103.4 11h4.9v25.4c0 .9.2 1.5.6 2 .5.5 1 .7 1.9.7l1.1-.1 1.2-.4.7 3.8c-.7.3-1.5.5-2.5.7l-2.6.3c-1.7 0-3-.4-3.9-1.3-1-1-1.4-2.2-1.4-4V11zm12 0h4.9v25.4c0 .9.2 1.5.6 2 .5.5 1.1.7 1.9.7l1.1-.1 1.2-.4.7 3.8c-.7.3-1.5.5-2.5.7l-2.6.3c-1.6 0-3-.4-3.9-1.3-.9-1-1.4-2.2-1.4-4V11zm18.1 32.5a7.5 7.5 0 0 1-5.6-2 7 7 0 0 1-2.1-5.2c0-1.1.2-2 .7-3 .4-.8 1-1.6 2-2.2.8-.7 1.8-1.2 3-1.5 1.2-.4 2.5-.6 4-.6a18 18 0 0 1 6 1v-1.5c0-1.7-.4-3-1.4-4-1-1-2.4-1.4-4.2-1.4a10 10 0 0 0-3.6.7c-1.2.4-2.4 1-3.7 2l-1.5-3.1c3-2 6-3 9.3-3 3.1 0 5.6.8 7.3 2.4 1.8 1.6 2.7 4 2.7 7v8.2c0 1 .4 1.6 1.3 1.6v4.2a12.7 12.7 0 0 1-2.2.2c-1 0-1.7-.3-2.2-.7a3 3 0 0 1-1-1.8l-.1-1.5c-1 1.4-2.3 2.4-3.8 3.1-1.5.7-3.1 1.1-4.9 1.1zm1.4-3.6c1.1 0 2.2-.2 3.3-.6 1-.4 1.8-1 2.4-1.8.6-.5 1-1 1-1.7v-3a14.6 14.6 0 0 0-5.4-1c-1.7 0-3.1.4-4.2 1.1a3.4 3.4 0 0 0-1.7 3c0 1.1.5 2.1 1.3 2.9.9.8 2 1.1 3.3 1.1zm25.2 3.4a9.6 9.6 0 0 1-7.6-3.5 12.9 12.9 0 0 1-3-8.2c.1-1.7.4-3.2.9-4.7.5-1.4 1.3-2.7 2.2-3.7a9.8 9.8 0 0 1 7.7-3.5 9 9 0 0 1 4.9 1.3c1.3.9 2.5 2 3.4 3.4v-4.3h4.3v22.3c0 1.7-.3 3.2-1 4.4a9.4 9.4 0 0 1-2.5 3.3c-1.1 1-2.4 1.6-4 2a16 16 0 0 1-4.8.8c-2.5 0-4.6-.5-6.3-1.3a12 12 0 0 1-4.3-3.7l2.8-2.5c.8 1.2 2 2.2 3.4 2.8a10.5 10.5 0 0 0 7.3.6c.9-.3 1.7-.7 2.3-1.3a6 6 0 0 0 1.6-2c.4-1 .6-2 .6-3.1v-3.5c-.8 1.4-2 2.5-3.4 3.2-1.4.8-2.9 1.2-4.5 1.2zm1.6-4a6 6 0 0 0 2.1-.3 7.4 7.4 0 0 0 3.4-2.5c.4-.5.7-1 .8-1.7v-6a8.2 8.2 0 0 0-4.6-4.6 5.8 5.8 0 0 0-4.9.3c-.8.4-1.5 1-2.1 1.8a8.6 8.6 0 0 0-1.9 5.4 8 8 0 0 0 2.1 5.4c.6.7 1.4 1.2 2.3 1.7.8.4 1.8.6 2.8.6zm26.2 4.2c-1.8 0-3.4-.3-4.9-1a11.4 11.4 0 0 1-6.2-6.3 12.3 12.3 0 0 1 0-9.2 11.2 11.2 0 0 1 6.2-6.4c1.5-.6 3.1-1 5-1a11.8 11.8 0 0 1 8.5 3.6c1 1 1.8 2.3 2.4 3.7a12.4 12.4 0 0 1 .6 6.3h-18.4c0 1 .3 2 .7 2.7.4.9 1 1.6 1.6 2.2a6.7 6.7 0 0 0 4.7 1.8 7.7 7.7 0 0 0 3.6-1c.5-.2 1-.6 1.4-1l1-1.5 4.1 1.2a9.6 9.6 0 0 1-4 4.3c-1.8 1-3.9 1.6-6.3 1.6zm7-13.7c-.1-1-.4-1.8-.8-2.7a7 7 0 0 0-3.6-3.4 7 7 0 0 0-7.3 1.3c-.6.6-1.1 1.3-1.5 2.1a8 8 0 0 0-.7 2.7h13.9zM0 53.6h12.6l10.6-26.5 10 26.5h12.2l-21-46.3L27.4 0h-2.1l-2.2 4.3L21.1 0h-2.4L22 7.3 0 53.6z" fill="#A7B6C2" mask="url(#b)"/></g></svg>