<?xml version="1.0" encoding="UTF-8"?>
<svg width="200px" height="54px" viewBox="0 0 200 54" version="1.1" xmlns="http://www.w3.org/2000/svg" xmlns:xlink="http://www.w3.org/1999/xlink">
    <!-- Generator: Sketch 46.2 (44496) - http://www.bohemiancoding.com/sketch -->
    <title>logo</title>
    <desc>Created with Sketch.</desc>
    <defs>
        <rect id="path-1" x="0" y="0" width="200" height="53.6082474"></rect>
    </defs>
    <g id="Page-1" stroke="none" stroke-width="1" fill="none" fill-rule="evenodd">
        <g id="logo">
            <g id="Group">
                <mask id="mask-2" fill="white">
                    <use xlink:href="#path-1"></use>
                </mask>
                <g id="Rectangle"></g>
                <path d="M54.9828179,11.8316151 L64.3958763,36.8597938 L73.7649485,11.8316151 L78.9993127,11.8316151 L66.5072165,43.0618557 L62.2845361,43.0618557 L49.7484536,11.8316151 L54.9828179,11.8316151 Z M81.3403589,48.4721649 C81.7802236,48.5601379 82.2127508,48.6334476 82.6379534,48.6920962 C83.063156,48.7507449 83.4077115,48.7800687 83.6716304,48.7800687 C84.0528465,48.7800687 84.3827401,48.6994281 84.6613211,48.5381443 C84.9399021,48.3768606 85.2258099,48.0909528 85.5190531,47.6804124 C85.8122962,47.2698719 86.112866,46.6907254 86.4207713,45.9429553 C86.7286766,45.1951853 87.0878941,44.2348283 87.4984345,43.0618557 L78.0413898,20.0570447 L83.0118366,20.0570447 L90.1376098,38.795189 L96.4716304,20.0570447 L101.046201,20.0570447 L90.6214586,48.3841924 C90.1522695,49.7037867 89.3385319,50.810763 88.1802214,51.7051546 C87.021911,52.5995463 85.5337242,53.0467354 83.7156166,53.0467354 C83.3637248,53.0467354 82.9971764,53.0247425 82.6159603,52.980756 C82.2347442,52.9367695 81.809548,52.8414669 81.3403589,52.6948454 L81.3403589,48.4721649 Z M103.431233,10.95189 L108.269721,10.95189 L108.269721,36.4199313 C108.269721,37.2703364 108.48965,37.9374546 108.929515,38.4213058 C109.36938,38.9051571 109.985181,39.147079 110.776938,39.147079 C111.099505,39.147079 111.473385,39.0884313 111.898587,38.971134 C112.32379,38.8538368 112.726993,38.7218793 113.108209,38.5752577 L113.811989,42.3580756 C113.108206,42.6806431 112.272475,42.937227 111.304773,43.1278351 C110.33707,43.3184431 109.472016,43.4137457 108.709584,43.4137457 C107.038098,43.4137457 105.740516,42.9592256 104.8168,42.0501718 C103.893084,41.141118 103.431233,39.8508675 103.431233,38.1793814 L103.431233,10.95189 Z M115.449255,10.95189 L120.287743,10.95189 L120.287743,36.4199313 C120.287743,37.2703364 120.507672,37.9374546 120.947537,38.4213058 C121.387402,38.9051571 122.003203,39.147079 122.79496,39.147079 C123.117527,39.147079 123.491407,39.0884313 123.916609,38.971134 C124.341812,38.8538368 124.745015,38.7218793 125.126231,38.5752577 L125.830011,42.3580756 C125.126228,42.6806431 124.290497,42.937227 123.322795,43.1278351 C122.355092,43.3184431 121.490038,43.4137457 120.727606,43.4137457 C119.05612,43.4137457 117.758538,42.9592256 116.834822,42.0501718 C115.911106,41.141118 115.449255,39.8508675 115.449255,38.1793814 L115.449255,10.95189 Z M133.537381,43.5017182 C132.423057,43.5017182 131.38939,43.318444 130.43635,42.95189 C129.483309,42.5853361 128.662241,42.0794992 127.973119,41.4343643 C127.283998,40.7892293 126.741506,40.0268085 126.345628,39.147079 C125.94975,38.2673496 125.751814,37.3143236 125.751814,36.2879725 C125.751814,35.2029728 125.986405,34.220623 126.455594,33.3408935 C126.924783,32.461164 127.591901,31.6987432 128.456968,31.0536082 C129.322036,30.4084733 130.348371,29.9099674 131.536006,29.5580756 C132.723641,29.2061838 134.035884,29.0302405 135.472776,29.0302405 C136.557776,29.0302405 137.628097,29.1255431 138.683772,29.3161512 C139.739448,29.5067593 140.692474,29.7633432 141.542879,30.0859107 L141.542879,28.5024055 C141.542879,26.8015952 141.059035,25.4746898 140.091333,24.5216495 C139.12363,23.5686092 137.730746,23.0920962 135.912638,23.0920962 C134.681017,23.0920962 133.471407,23.3193563 132.283772,23.7738832 C131.096138,24.2284101 129.871866,24.8808663 128.61092,25.7312715 L127.115388,22.6522337 C130.077143,20.6581802 133.15615,19.6611684 136.352501,19.6611684 C139.519527,19.6611684 141.982733,20.467575 143.742192,22.0804124 C145.501651,23.6932498 146.381367,26.009836 146.381367,29.0302405 L146.381367,37.3436426 C146.381367,38.3699937 146.806563,38.8978235 147.656968,38.9271478 L147.656968,43.0618557 C147.187779,43.1498286 146.784576,43.2084764 146.447346,43.2378007 C146.110117,43.267125 145.780223,43.2817869 145.457656,43.2817869 C144.519277,43.2817869 143.793512,43.0471959 143.280336,42.5780069 C142.76716,42.1088178 142.451929,41.5076784 142.334632,40.7745704 L142.202673,39.3230241 C141.176322,40.6719426 139.908064,41.7056092 138.397862,42.424055 C136.887659,43.1425007 135.267515,43.5017182 133.537381,43.5017182 Z M134.856968,39.9388316 C136.029941,39.9388316 137.136917,39.7262335 138.17793,39.3010309 C139.218944,38.8758283 140.032681,38.2820198 140.619168,37.5195876 C141.234978,36.9917499 141.542879,36.4345963 141.542879,35.84811 L141.542879,32.8130584 C140.721798,32.4904909 139.849413,32.241238 138.925697,32.0652921 C138.001981,31.8893462 137.100272,31.8013746 136.220542,31.8013746 C134.490408,31.8013746 133.07553,32.175254 131.975869,32.9230241 C130.876207,33.6707941 130.326384,34.6604749 130.326384,35.8920962 C130.326384,37.0357445 130.75158,37.9961015 131.601985,38.7731959 C132.452391,39.5502903 133.537374,39.9388316 134.856968,39.9388316 Z M160.114853,43.2817869 C158.560664,43.2817869 157.138456,42.9665553 155.848186,42.3360825 C154.557916,41.7056097 153.45094,40.8478863 152.527224,39.7628866 C151.603508,38.6778869 150.885073,37.4316222 150.371898,36.024055 C149.858722,34.6164878 149.602138,33.1356321 149.602138,31.5814433 C149.602138,29.9392816 149.866053,28.3924471 150.393891,26.9408935 C150.921728,25.4893398 151.654825,24.2284131 152.593203,23.1580756 C153.531582,22.0877381 154.65322,21.2373456 155.958152,20.6068729 C157.263084,19.9764001 158.707285,19.6611684 160.290798,19.6611684 C162.13823,19.6611684 163.758374,20.1010265 165.151279,20.980756 C166.544184,21.8604855 167.695146,23.0041167 168.6042,24.4116838 L168.6042,20.0570447 L172.870867,20.0570447 L172.870867,42.4020619 C172.870867,44.0735479 172.562966,45.5544036 171.947155,46.8446735 C171.331345,48.1349435 170.473621,49.2272578 169.373959,50.1216495 C168.274298,51.0160411 166.976716,51.6978213 165.481176,52.1670103 C163.985636,52.6361994 162.372823,52.8707904 160.642688,52.8707904 C158.091472,52.8707904 155.972822,52.4382632 154.286674,51.5731959 C152.600526,50.7081285 151.185649,49.4985187 150.042001,47.9443299 L152.769148,45.3931271 C153.648878,46.6247484 154.785178,47.5631125 156.178083,48.2082474 C157.570988,48.8533824 159.059175,49.175945 160.642688,49.175945 C161.639715,49.175945 162.58541,49.0439876 163.479801,48.7800687 C164.374193,48.5161499 165.158607,48.1056156 165.833066,47.5484536 C166.507525,46.9912916 167.042686,46.2875186 167.438564,45.4371134 C167.834443,44.5867082 168.032379,43.5750345 168.032379,42.4020619 L168.032379,38.8831615 C167.211298,40.2907287 166.082329,41.3757121 164.645437,42.1381443 C163.208546,42.9005765 161.698366,43.2817869 160.114853,43.2817869 Z M161.698358,39.3670103 C162.431466,39.3670103 163.135239,39.2423838 163.809698,38.9931271 C164.484158,38.7438705 165.10729,38.4066459 165.679114,37.9814433 C166.250938,37.5562407 166.742113,37.0723968 167.152654,36.5298969 C167.563194,35.9873971 167.856433,35.4082505 168.032379,34.7924399 L168.032379,28.766323 C167.739136,28.0332151 167.357925,27.3660969 166.888736,26.7649485 C166.419547,26.1638 165.884386,25.6433012 165.283238,25.2034364 C164.682089,24.7635717 164.044295,24.4190161 163.369836,24.1697595 C162.695376,23.9205028 162.020927,23.7958763 161.346468,23.7958763 C160.290793,23.7958763 159.345098,24.0231363 158.509355,24.4776632 C157.673612,24.9321901 156.962508,25.5333296 156.376021,26.2810997 C155.789535,27.0288697 155.335015,27.8719312 155.012447,28.8103093 C154.68988,29.7486874 154.528599,30.7163753 154.528599,31.7134021 C154.528599,32.7690774 154.711873,33.7587583 155.078427,34.6824742 C155.444981,35.6061902 155.950818,36.4125968 156.595953,37.1017182 C157.241088,37.7908396 157.996177,38.3406623 158.861245,38.7512027 C159.726312,39.1617432 160.672007,39.3670103 161.698358,39.3670103 Z M187.879954,43.5017182 C186.091171,43.5017182 184.463696,43.1864865 182.99748,42.5560137 C181.531264,41.9255409 180.277668,41.0678176 179.236655,39.9828179 C178.195642,38.8978182 177.389235,37.6368915 176.817411,36.2 C176.245587,34.7631085 175.959679,33.2382669 175.959679,31.6254296 C175.959679,30.0125922 176.245587,28.4804196 176.817411,27.028866 C177.389235,25.5773123 178.195642,24.3017237 179.236655,23.2020619 C180.277668,22.1024 181.531264,21.2373456 182.99748,20.6068729 C184.463696,19.9764001 186.105833,19.6611684 187.92394,19.6611684 C189.712724,19.6611684 191.332868,19.983731 192.784421,20.628866 C194.235975,21.2740009 195.474909,22.1317243 196.50126,23.2020619 C197.527611,24.2723994 198.312025,25.5186641 198.854525,26.9408935 C199.397024,28.3631228 199.66827,29.8513095 199.66827,31.4054983 C199.66827,31.7573901 199.653608,32.0872837 199.624284,32.395189 C199.59496,32.7030943 199.565636,32.9596782 199.536312,33.1649485 L181.106071,33.1649485 C181.194044,34.1912995 181.435966,35.1150016 181.831844,35.9360825 C182.227722,36.7571633 182.74089,37.4682673 183.371363,38.0694158 C184.001836,38.6705643 184.720271,39.1324153 185.52669,39.4549828 C186.333108,39.7775503 187.17617,39.9388316 188.055899,39.9388316 C188.701034,39.9388316 189.338828,39.858191 189.969301,39.6969072 C190.599774,39.5356235 191.178921,39.3010325 191.706758,38.9931271 C192.234596,38.6852218 192.703778,38.3113424 193.114318,37.8714777 C193.524859,37.4316129 193.847421,36.947769 194.082016,36.4199313 L198.216724,37.6075601 C197.424967,39.3376948 196.112724,40.7525718 194.279954,41.8522337 C192.447184,42.9518955 190.313872,43.5017182 187.879954,43.5017182 Z M194.873769,29.8219931 C194.785796,28.8542907 194.543874,27.9599125 194.147995,27.1388316 C193.752117,26.3177508 193.24628,25.6213087 192.63047,25.0494845 C192.014659,24.4776604 191.296224,24.0304713 190.475143,23.7079038 C189.654062,23.3853363 188.789008,23.224055 187.879954,23.224055 C186.9709,23.224055 186.113177,23.3853363 185.306758,23.7079038 C184.50034,24.0304713 183.789236,24.4776604 183.173425,25.0494845 C182.557614,25.6213087 182.059108,26.3177508 181.677892,27.1388316 C181.296676,27.9599125 181.062085,28.8542907 180.974112,29.8219931 L194.873769,29.8219931 Z" id="Vyllage" fill="#A7B6C2" mask="url(#mask-2)"></path>
                <path d="M0,53.5985903 L12.6444585,53.5985903 L23.1989827,27.0643579 L33.2419668,53.6082474 L45.3608247,53.6082474 C45.3608247,53.6082474 31.3950992,22.7686298 24.3150819,7.2865579 L27.5493646,0.0139774234 L25.3993689,0.0167729081 L23.2075084,4.26514723 L21.0900884,0.00381202457 L18.6592375,-3.34631833e-16 L22.0612512,7.27359702 L0,53.5985903 Z" id="Path-36" fill="#A7B6C2" mask="url(#mask-2)"></path>
            </g>
        </g>
    </g>
</svg>