<?xml version="1.0" encoding="UTF-8"?>
<svg width="100px" height="100px" viewBox="0 0 100 100" version="1.1" xmlns="http://www.w3.org/2000/svg" xmlns:xlink="http://www.w3.org/1999/xlink">
    <!-- Generator: Sketch 46.2 (44496) - http://www.bohemiancoding.com/sketch -->
    <title>x-team</title>
    <desc>Created with Sketch.</desc>
    <defs></defs>
    <g id="Page-1" stroke="none" stroke-width="1" fill="none" fill-rule="evenodd">
        <g id="x-team" fill-rule="nonzero" fill="#A7B6C2">
            <path d="M44.5025054,80.5120477 L29.540602,80.4756599 L28.4665832,84.1780595 L33.9620905,84.1917174 L29.7264064,98.7420858 L33.6996297,98.7520938 L37.9346578,84.2013584 L43.4291618,84.2150163 L44.5025054,80.512291 L44.5025054,80.5120477 Z M47.7069847,91.3480934 L56.0904094,91.368229 L57.1332486,87.8483786 L48.7494766,87.8275502 L49.8241515,84.0990162 L59.3682072,84.1224976 L60.4123584,80.5497404 L46.9209531,80.5170085 L41.6129287,98.7697568 L54.1729775,98.7356591 L55.2174567,95.1632296 L46.5772246,95.207559 L47.7069847,91.3480934 L47.7069847,91.3480934 Z M21.1405843,81.5852228 L18.4119031,79 L11.0507306,86.3045821 L7.832996,79.1309512 L4.14808784,81.149333 L8.11401791,89.2198792 L0,97.1026074 L2.87898404,99.4556023 L9.65521034,92.5637583 L12.512276,99.3266919 L16.3279033,97.6714068 L12.6174494,89.6747115 L21.1405843,81.5852228 L21.1405843,81.5852228 Z M19.1275876,91.3368433 L27.0727223,91.3539549 L28.2004951,87.9085323 L20.2550131,87.8910282 L19.1275876,91.3368158 L19.1275876,91.3368433 Z M96.1259881,79.1144302 L88.3852383,93.1441552 L81.9832641,79.2979782 L76.3557064,98.8567044 L80.3451948,98.8567044 L82.9540969,89.5820908 L88.1649163,100 L94.1465057,89.653422 L95.8897483,98.6864259 L100,98.6324417 L96.3353509,80.4855835 L96.1259881,79.1144302 L96.1259881,79.1144302 Z M65.121506,92.1854672 L68.5101112,87.6013468 L69.5652216,92.1854672 L65.121506,92.1854672 L65.121506,92.1854672 Z M70.0582689,79.3353471 L70.0582689,79.3293816 L55.9447565,98.8057933 L60.2288693,98.8057933 L62.5023201,95.730104 L70.3817576,95.730104 L71.084843,98.7829085 L75.1234355,98.7829085 L70.0765213,79.308879 L70.0589635,79.3353236 L70.0582689,79.3353471 Z" id="Shape"></path>
            <polyline id="Shape" points="65.1465723 29.1217741 35.246479 9.28706785e-06 21.1972579 13.7896561 36.9336123 29.2349198 17.8118812 49.193536 31.4646012 62.3853306 65.1465723 29.1217741"></polyline>
            <polyline id="Shape" points="53.0061515 45.0100068 66.7187321 58.4695143 80.7677063 44.6802034 67.0547838 31.2208081 53.0061515 45.0100068"></polyline>
            <polyline id="Shape" points="53.1204603 13.3466496 67.1700802 27.1362966 80.7677063 13.7896561 66.7184093 9.28706786e-06 53.1204603 13.3466496"></polyline>
        </g>
    </g>
</svg>