<svg width="100" height="100" xmlns="http://www.w3.org/2000/svg"><g fill-rule="nonzero" fill="#A7B6C2"><path d="M44.5 80.5h-15l-1 3.7H34l-4.3 14.5h4l4.2-14.5h5.5l1.1-3.7zm3.2 10.8h8.4l1-3.5h-8.4l1.1-3.7h9.6l1-3.6H47l-5.3 18.3h12.6l1-3.6h-8.6l1.1-3.9zm-26.6-9.7L18.4 79l-7.3 7.3-3.3-7.2-3.7 2 4 8.1L0 97.1l2.9 2.4 6.8-7 2.8 6.8 3.8-1.6-3.7-8 8.5-8.1zm-2 9.7h8l1.1-3.4h-8l-1 3.4zm77-12.2l-7.7 14L82 79.3l-5.6 19.6h4l2.6-9.3 5.2 10.4 6-10.3 1.7 9h4.1l-3.7-18.2-.2-1.4zm-31 13l3.4-4.5 1 4.6h-4.4zm5-12.8L55.9 98.8h4.3l2.3-3h7.9l.7 3h4l-5-19.5zM65.1 29.1L35.2 0l-14 13.8 15.7 15.4-19 20 13.6 13.2L65 29M53 45l13.7 13.5 14-13.8-13.6-13.5L53 45M53.1 13.3l14 13.8 13.7-13.3L66.8 0 53 13.3"/></g></svg>